{
.appVersion = "1286";
copyright = "Copyright 2016 The Fredoka Project Authors (https://github.com/hafontia/Fredoka-One)";
customParameters = (
{
name = vendorID;
value = ssde;
},
{
name = license;
value = "This Font Software is licensed under the SIL Open Font License, Version 1.1. This license is available with a FAQ at: http://scripts.sil.org/OFL";
},
{
name = licenseURL;
value = "http://scripts.sil.org/OFL";
},
{
name = fsType;
value = (
);
},
{
name = "Use Typo Metrics";
value = 1;
},
{
name = "Disable Last Change";
value = 1;
},
{
name = "Use Line Breaks";
value = 1;
},
{
name = Axes;
value = (
{
Name = Weight;
Tag = wght;
},
{
Name = Width;
Tag = wdth;
}
);
},
{
name = "Axis Mappings";
value = {
wdth = {
75 = 3;
100 = 5;
125 = 7;
};
wght = {
300 = 300;
400 = 400;
700 = 700;
};
};
},
{
name = "Variable Font Origin";
value = "988D29BF-96E2-481F-8769-6B283BD5795A";
}
);
date = "2016-11-13 09:03:20 +0000";
designer = "Ben Nathan";
designerURL = "http://hafontia.com";
disablesNiceNames = 1;
familyName = Fredoka;
featurePrefixes = (
{
automatic = 1;
code = "languagesystem DFLT dflt;

languagesystem latn dflt;

languagesystem hebr dflt;
";
name = Languagesystems;
}
);
features = (
{
automatic = 1;
code = "feature sups;
feature frac;
feature ordn;
";
name = aalt;
},
{
code = "script latn;
sub one by onesuperior;
sub two by twosuperior;
sub three by threesuperior;
";
name = sups;
},
{
code = "script latn;
sub one slash two by onehalf;
sub one slash four by onequarter;
sub three slash four by threequarters;
sub zero slash zero zero by perthousand;
sub zero slash zero by percent;
";
name = frac;
},
{
code = "script latn;
sub j j by j_j;
sub t t by t_t;
sub f f i by f_f_i;
sub f t by f_t;
sub f f by f_f;
sub f i by fi;
sub f l by fl;
sub l l by l_l;
";
name = liga;
},
{
automatic = 1;
code = "sub [zero one two three four five six seven eight nine] [A a]' by ordfeminine;
sub [zero one two three four five six seven eight nine] [O o]' by ordmasculine;
";
name = ordn;
},
{

glyphs = (
{
glyphname = A;
layers = (
{
anchors = (
{
name = bottom;
position = "{356, 0}";
},
{
name = ogonek;
position = "{640, 10}";
},
{
name = top;
position = "{356, 700}";
}
);
layerId = "05A6575B-AA27-4212-BC78-A0BDA398BBDE";
paths = (
{
closed = 1;
nodes = (
"439 637 LINE SMOOTH",
"422 671 OFFCURVE",
"391 691 OFFCURVE",
"356 691 CURVE SMOOTH",
"322 691 OFFCURVE",
"288 670 OFFCURVE",
"272 638 CURVE SMOOTH",
"21 118 LINE SMOOTH",
"-9 58 OFFCURVE",
"2 29 OFFCURVE",
"64 -1 CURVE SMOOTH",
"127 -32 OFFCURVE",
"155 -23 OFFCURVE",
"187 40 CURVE SMOOTH",
"355 389 LINE",
"525 41 LINE SMOOTH",
"556 -24 OFFCURVE",
"584 -33 OFFCURVE",
"648 -2 CURVE SMOOTH",
"710 29 OFFCURVE",
"720 58 OFFCURVE",
"690 118 CURVE SMOOTH"
);
},
{
closed = 1;
nodes = (
"514 136 LINE",
"438 292 LINE",
"273 292 LINE",
"197 136 LINE"
);
}
);
width = 711;
},
{
anchors = (
{
name = bottom;
position = "{210, 0}";
},
{
name = ogonek;
position = "{364, 10}";
},
{
name = top;
position = "{210, 700}";
}
);
layerId = "4383C18A-60F2-4889-B7DB-EDD0F2222092";
paths = (
{
closed = 1;
nodes = (
"247 667 LINE SMOOTH",
"243 683 OFFCURVE",
"224 686 OFFCURVE",
"210 686 CURVE SMOOTH",
"196 686 OFFCURVE",
"175 681 OFFCURVE",
"172 668 CURVE SMOOTH",
"31 38 LINE SMOOTH",
"25 11 OFFCURVE",
"21 -1 OFFCURVE",
"41 -8 CURVE SMOOTH",
"62 -15 OFFCURVE",
"78 -12 OFFCURVE",
"82 6 CURVE SMOOTH",
"209 607 LINE",
"337 5 LINE SMOOTH",
"341 -13 OFFCURVE",
"357 -17 OFFCURVE",
"377 -9 CURVE SMOOTH",
"394 -2 OFFCURVE",
"397 8 OFFCURVE",
"392 28 CURVE SMOOTH"
);
},
{
closed = 1;
nodes = (
"318 206 LINE",
"299 256 LINE",
"111 256 LINE",
"91 206 LINE"
);
}
);
width = 420;
},
{
anchors = (
{
name = bottom;
position = "{351, 0}";
},
{
name = ogonek;
position = "{647, 10}";
},
{
name = top;
position = "{347, 700}";
}
);
layerId = "988D29BF-96E2-481F-8769-6B283BD5795A";
paths = (
{
closed = 1;
nodes = (
"378 668 LINE SMOOTH",
"372 681 OFFCURVE",
"363 687 OFFCURVE",
"351 687 CURVE SMOOTH",
"339 687 OFFCURVE",
"328 679 OFFCURVE",
"323 669 CURVE SMOOTH",
"24 43 LINE",
"11 16 OFFCURVE",
"11 1 OFFCURVE",
"32 -7 CURVE SMOOTH",
"54 -15 OFFCURVE",
"65 -8 OFFCURVE",
"75 12 CURVE",
"350 604 LINE",
"626 10 LINE",
"635 -9 OFFCURVE",
"647 -18 OFFCURVE",
"668 -8 CURVE SMOOTH",
"688 1 OFFCURVE",
"690 13 OFFCURVE",
"681 32 CURVE SMOOTH"
);
},
{
closed = 1;
nodes = (
"549 207 LINE",
"530 257 LINE",
"172 257 LINE",
"152 207 LINE"
);
}
);
width = 701;
},
{
anchors = (
{
name = bottom;
position = "{280, 0}";
},
{
name = ogonek;
position = "{473, 10}";
},
{
name = top;
position = "{273, 700}";
}
);
layerId = "C221B64C-0844-4CE6-BA2A-18F986CD7755";
paths = (
{
closed = 1;
nodes = (
"371 636 LINE SMOOTH",
"361 669 OFFCURVE",
"323 691 OFFCURVE",
"273 691 CURVE SMOOTH",
"223 691 OFFCURVE",
"185 670 OFFCURVE",
"175 637 CURVE SMOOTH",
"27 117 LINE SMOOTH",
"11 64 OFFCURVE",
"-2 23 OFFCURVE",
"74 -1 CURVE SMOOTH",
"147 -25 OFFCURVE",
"189 -11 OFFCURVE",
"199 43 CURVE SMOOTH",
"273 426 LINE",
"347 43 LINE SMOOTH",
"358 -12 OFFCURVE",
"400 -27 OFFCURVE",
"472 -2 CURVE SMOOTH",
"544 23 OFFCURVE",
"537 57 OFFCURVE",
"519 117 CURVE SMOOTH"
);
},
{
closed = 1;
nodes = (
"436 126 LINE",
"360 273 LINE",
"187 273 LINE",
"110 126 LINE"
);
}
);
width = 546;
},
{
anchors = (
{
name = bottom;
position = "{470, 0}";
},
{
name = ogonek;
position = "{867, 10}";
},
{
name = top;
position = "{470, 700}";
}
);
layerId = "F1D2FE0C-0290-44F9-97DF-753285E87900";
paths = (
{
closed = 1;
nodes = (
"508 678 LINE SMOOTH",
"500 691 OFFCURVE",
"493 694 OFFCURVE",
"475 694 CURVE SMOOTH",
"457 694 OFFCURVE",
"450 691 OFFCURVE",
"442 678 CURVE SMOOTH",
"45 30 LINE SMOOTH",
"33 10 OFFCURVE",
"43 3 OFFCURVE",
"60 -6 CURVE SMOOTH",
"77 -15 OFFCURVE",
"87 -14 OFFCURVE",
"98 5 CURVE SMOOTH",
"475 621 LINE",
"852 5 LINE SMOOTH",
"863 -14 OFFCURVE",
"873 -15 OFFCURVE",
"890 -6 CURVE SMOOTH",
"907 3 OFFCURVE",
"917 10 OFFCURVE",
"905 30 CURVE SMOOTH"
);
},
{
closed = 1;
nodes = (
"762 207 LINE",
"743 257 LINE",
"185 257 LINE",
"165 207 LINE"
);
}
);
width = 1005;
},
{
anchors = (
{
name = bottom;
position = "{509, 0}";
},
{
name = ogonek;
position = "{875, 10}";
},
{
name = top;
position = "{509, 700}";
}
);
layerId = "D56FD762-6887-41EE-B8AF-857F7388911F";
paths = (
{
closed = 1;
nodes = (
"594 643 LINE SMOOTH",
"582 659 OFFCURVE",
"553 695 OFFCURVE",
"508 695 CURVE SMOOTH",
"467 695 OFFCURVE",
"436 663 OFFCURVE",
"421 643 CURVE SMOOTH",
"26 121 LINE",
"-5 60 OFFCURVE",
"5 31 OFFCURVE",
"69 -5 CURVE SMOOTH",
"125 -36 OFFCURVE",
"154 -21 OFFCURVE",
"199 37 CURVE SMOOTH",
"507 440 LINE",
"816 37 LINE SMOOTH",
"862 -23 OFFCURVE",
"890 -38 OFFCURVE",
"945 -6 CURVE SMOOTH",
"1012 33 OFFCURVE",
"1029 68 OFFCURVE",
"988 122 CURVE SMOOTH"
);
},
{
closed = 1;
nodes = (
"766 131 LINE",
"686 297 LINE",
"329 297 LINE",
"248 131 LINE"
);
}
);
width = 1017;
}
);
leftKerningGroup = A;
note = A;
rightKerningGroup = d;
unicode = 0041;
},
{
glyphname = AE;
layers = (
{
anchors = (
{
name = bottom;
position = "{534, 0}";
},
{
name = top;
position = "{534, 700}";
}
);
layerId = "05A6575B-AA27-4212-BC78-A0BDA398BBDE";
paths = (
{
closed = 1;
nodes = (
"962 -8 LINE SMOOTH",
"1006 -8 OFFCURVE",
"1054 -8 OFFCURVE",
"1054 83 CURVE SMOOTH",
"1054 172 OFFCURVE",
"1010 175 OFFCURVE",
"968 175 CURVE SMOOTH",
"688 175 LINE",
"688 250 LINE",
"859 250 LINE SMOOTH",
"906 250 OFFCURVE",
"951 251 OFFCURVE",
"951 341 CURVE SMOOTH",
"951 431 OFFCURVE",
"905 433 OFFCURVE",
"860 433 CURVE SMOOTH",
"688 433 LINE",
"688 509 LINE",
"967 509 LINE SMOOTH",
"1009 509 OFFCURVE",
"1054 511 OFFCURVE",
"1054 600 CURVE SMOOTH",
"1054 692 OFFCURVE",
"1007 692 OFFCURVE",
"963 692 CURVE SMOOTH",
"559 692 LINE SMOOTH",
"531 692 OFFCURVE",
"509 682 OFFCURVE",
"493 665 CURVE",
"24 148 LINE",
"-19 100 OFFCURVE",
"-22 77 OFFCURVE",
"24 19 CURVE SMOOTH",
"66 -29 OFFCURVE",
"109 -32 OFFCURVE",
"155 20 CURVE",
"504 404 LINE",
"504 85 LINE SMOOTH",
"504 34 OFFCURVE",
"546 -8 OFFCURVE",
"595 -8 CURVE SMOOTH"
);
},
{
closed = 1;
nodes = (
"520 129 LINE",
"520 286 LINE",
"380 286 LINE",
"238 129 LINE"
);
}
);
width = 1068;
},
{
anchors = (
{
name = bottom;
position = "{305, 0}";
},
{
name = top;
position = "{305, 700}";
}
);
layerId = "4383C18A-60F2-4889-B7DB-EDD0F2222092";
paths = (
{
closed = 1;
nodes = (
"599 -11 LINE SMOOTH",
"621 -11 OFFCURVE",
"629 -3 OFFCURVE",
"629 19 CURVE SMOOTH",
"629 41 OFFCURVE",
"623 49 OFFCURVE",
"606 49 CURVE SMOOTH",
"396 49 LINE",
"396 311 LINE",
"483 311 LINE SMOOTH",
"505 311 OFFCURVE",
"513 319 OFFCURVE",
"513 341 CURVE SMOOTH",
"513 363 OFFCURVE",
"506 371 OFFCURVE",
"484 371 CURVE SMOOTH",
"396 371 LINE",
"396 627 LINE",
"605 627 LINE SMOOTH",
"623 627 OFFCURVE",
"629 635 OFFCURVE",
"629 657 CURVE SMOOTH",
"629 679 OFFCURVE",
"622 687 OFFCURVE",
"600 687 CURVE SMOOTH",
"328 687 LINE SMOOTH",
"313 687 OFFCURVE",
"303 687 OFFCURVE",
"299 677 CURVE SMOOTH",
"29 31 LINE SMOOTH",
"20 10 OFFCURVE",
"21 1 OFFCURVE",
"41 -8 CURVE SMOOTH",
"61 -17 OFFCURVE",
"71 -16 OFFCURVE",
"81 9 CURVE SMOOTH",
"335 634 LINE",
"335 21 LINE SMOOTH",
"335 4 OFFCURVE",
"350 -11 OFFCURVE",
"365 -11 CURVE SMOOTH"
);
},
{
closed = 1;
nodes = (
"357 205 LINE",
"357 254 LINE",
"151 254 LINE",
"123 205 LINE"
);
}
);
width = 663;
},
{
anchors = (
{
name = bottom;
position = "{574, 0}";
},
{
name = top;
position = "{574, 700}";
}
);
layerId = "988D29BF-96E2-481F-8769-6B283BD5795A";
paths = (
{
closed = 1;
nodes = (
"1058 -11 LINE SMOOTH",
"1080 -11 OFFCURVE",
"1088 -3 OFFCURVE",
"1088 19 CURVE SMOOTH",
"1088 41 OFFCURVE",
"1082 49 OFFCURVE",
"1065 49 CURVE SMOOTH",
"675 49 LINE",
"675 311 LINE",
"942 311 LINE SMOOTH",
"964 311 OFFCURVE",
"972 319 OFFCURVE",
"972 341 CURVE SMOOTH",
"972 363 OFFCURVE",
"965 371 OFFCURVE",
"943 371 CURVE SMOOTH",
"675 371 LINE",
"675 627 LINE",
"1064 627 LINE SMOOTH",
"1082 627 OFFCURVE",
"1088 635 OFFCURVE",
"1088 657 CURVE SMOOTH",
"1088 679 OFFCURVE",
"1081 687 OFFCURVE",
"1059 687 CURVE SMOOTH",
"607 687 LINE SMOOTH",
"592 687 OFFCURVE",
"585 686 OFFCURVE",
"578 677 CURVE SMOOTH",
"53 43 LINE SMOOTH",
"39 27 OFFCURVE",
"33 18 OFFCURVE",
"51 -1 CURVE SMOOTH",
"67 -18 OFFCURVE",
"79 -21 OFFCURVE",
"92 -3 CURVE",
"614 634 LINE",
"614 21 LINE SMOOTH",
"614 4 OFFCURVE",
"629 -11 OFFCURVE",
"644 -11 CURVE SMOOTH"
);
},
{
closed = 1;
nodes = (
"636 205 LINE",
"636 254 LINE",
"250 254 LINE",
"222 205 LINE"
);
}
);
width = 1148;
},
{
anchors = (
{
name = bottom;
position = "{368, 0}";
},
{
name = top;
position = "{368, 700}";
}
);
layerId = "C221B64C-0844-4CE6-BA2A-18F986CD7755";
paths = (
{
closed = 1;
nodes = (
"647 -9 LINE SMOOTH",
"692 -9 OFFCURVE",
"739 -9 OFFCURVE",
"739 82 CURVE SMOOTH",
"739 174 OFFCURVE",
"693 174 OFFCURVE",
"648 174 CURVE SMOOTH",
"531 174 LINE",
"531 263 LINE",
"584 263 LINE SMOOTH",
"630 263 OFFCURVE",
"667 263 OFFCURVE",
"667 340 CURVE SMOOTH",
"667 419 OFFCURVE",
"631 419 OFFCURVE",
"586 419 CURVE SMOOTH",
"531 419 LINE",
"531 508 LINE",
"647 508 LINE SMOOTH",
"692 508 OFFCURVE",
"739 508 OFFCURVE",
"739 599 CURVE SMOOTH",
"739 691 OFFCURVE",
"693 691 OFFCURVE",
"648 691 CURVE",
"364 692 LINE",
"336 692 OFFCURVE",
"314 682 OFFCURVE",
"298 665 CURVE",
"48 121 LINE SMOOTH",
"30 81 OFFCURVE",
"17 34 OFFCURVE",
"102 3 CURVE SMOOTH",
"187 -28 OFFCURVE",
"202 14 OFFCURVE",
"218 56 CURVE SMOOTH",
"348 406 LINE",
"348 83 LINE SMOOTH",
"348 38 OFFCURVE",
"348 -9 OFFCURVE",
"439 -9 CURVE SMOOTH"
);
},
{
closed = 1;
nodes = (
"365 129 LINE",
"365 286 LINE",
"259 286 LINE",
"154 129 LINE"
);
}
);
width = 774;
},
{
anchors = (
{
name = bottom;
position = "{778, 0}";
},
{
name = top;
position = "{778, 700}";
}
);
layerId = "F1D2FE0C-0290-44F9-97DF-753285E87900";
paths = (
{
closed = 1;
nodes = (
"1485 -11 LINE SMOOTH",
"1507 -11 OFFCURVE",
"1515 -3 OFFCURVE",
"1515 19 CURVE SMOOTH",
"1515 41 OFFCURVE",
"1508 49 OFFCURVE",
"1486 49 CURVE SMOOTH",
"800 49 LINE",
"800 320 LINE",
"1368 320 LINE SMOOTH",
"1392 320 OFFCURVE",
"1400 327 OFFCURVE",
"1400 349 CURVE SMOOTH",
"1400 372 OFFCURVE",
"1392 380 OFFCURVE",
"1370 380 CURVE SMOOTH",
"800 380 LINE",
"800 627 LINE",
"1485 627 LINE SMOOTH",
"1507 627 OFFCURVE",
"1515 634 OFFCURVE",
"1515 656 CURVE SMOOTH",
"1515 679 OFFCURVE",
"1508 687 OFFCURVE",
"1486 687 CURVE SMOOTH",
"735 687 LINE",
"720 687 OFFCURVE",
"715 685 OFFCURVE",
"706 677 CURVE SMOOTH",
"28 43 LINE SMOOTH",
"10 27 OFFCURVE",
"11 14 OFFCURVE",
"26 1 CURVE SMOOTH",
"42 -13 OFFCURVE",
"52 -13 OFFCURVE",
"65 2 CURVE",
"739 635 LINE",
"740 20 LINE SMOOTH",
"740 -3 OFFCURVE",
"747 -11 OFFCURVE",
"769 -11 CURVE SMOOTH"
);
},
{
closed = 1;
nodes = (
"751 205 LINE",
"751 254 LINE",
"276 254 LINE",
"233 205 LINE"
);
}
);
width = 1560;
},
{
anchors = (
{
name = bottom;
position = "{658, 0}";
},
{
name = top;
position = "{658, 700}";
}
);
layerId = "D56FD762-6887-41EE-B8AF-857F7388911F";
paths = (
{
closed = 1;
nodes = (
"1198 -9 LINE SMOOTH",
"1243 -9 OFFCURVE",
"1290 -9 OFFCURVE",
"1290 82 CURVE SMOOTH",
"1290 174 OFFCURVE",
"1244 174 OFFCURVE",
"1199 174 CURVE SMOOTH",
"722 174 LINE",
"722 263 LINE",
"1105 263 LINE SMOOTH",
"1151 263 OFFCURVE",
"1188 263 OFFCURVE",
"1188 340 CURVE SMOOTH",
"1188 419 OFFCURVE",
"1152 419 OFFCURVE",
"1107 419 CURVE SMOOTH",
"722 419 LINE",
"722 508 LINE",
"1198 508 LINE SMOOTH",
"1243 508 OFFCURVE",
"1290 508 OFFCURVE",
"1290 599 CURVE SMOOTH",
"1290 691 OFFCURVE",
"1244 691 OFFCURVE",
"1199 691 CURVE SMOOTH",
"593 691 LINE",
"567 691 OFFCURVE",
"543 681 OFFCURVE",
"527 664 CURVE",
"58 147 LINE SMOOTH",
"15 99 OFFCURVE",
"10 74 OFFCURVE",
"58 18 CURVE SMOOTH",
"100 -31 OFFCURVE",
"144 -31 OFFCURVE",
"189 19 CURVE SMOOTH",
"539 403 LINE",
"539 70 LINE",
"540 30 OFFCURVE",
"548 -8 OFFCURVE",
"628 -9 CURVE SMOOTH"
);
},
{
closed = 1;
nodes = (
"554 128 LINE",
"554 285 LINE",
"414 285 LINE",
"272 128 LINE"
);
}
);
width = 1315;
}
);
leftKerningGroup = A;
note = AE;
rightKerningGroup = d;
unicode = 00C6;
},
{
glyphname = B;
layers = (
{
anchors = (
{
name = bottom;
position = "{303, 0}";
},
{
name = top;
position = "{303, 700}";
}
);
layerId = "05A6575B-AA27-4212-BC78-A0BDA398BBDE";
paths = (
{
closed = 1;
nodes = (
"366 -8 LINE SMOOTH",
"486 -8 OFFCURVE",
"587 91 OFFCURVE",
"589 219 CURVE SMOOTH",
"589 271 OFFCURVE",
"570 323 OFFCURVE",
"536 366 CURVE",
"558 400 OFFCURVE",
"569 439 OFFCURVE",
"569 478 CURVE SMOOTH",
"569 592 OFFCURVE",
"477 692 OFFCURVE",
"356 692 CURVE SMOOTH",
"122 692 LINE SMOOTH",
"30 692 OFFCURVE",
"30 645 OFFCURVE",
"30 601 CURVE SMOOTH",
"30 85 LINE SMOOTH",
"30 39 OFFCURVE",
"30 -8 OFFCURVE",
"121 -8 CURVE SMOOTH"
);
},
{
closed = 1;
nodes = (
"213 509 LINE",
"334 509 LINE SMOOTH",
"375 509 OFFCURVE",
"386 501 OFFCURVE",
"386 470 CURVE SMOOTH",
"386 436 OFFCURVE",
"376 432 OFFCURVE",
"355 432 CURVE SMOOTH",
"343 432 LINE SMOOTH",
"287 432 OFFCURVE",
"264 413 OFFCURVE",
"264 358 CURVE SMOOTH",
"264 301 OFFCURVE",
"285 281 OFFCURVE",
"338 281 CURVE SMOOTH",
"351 281 LINE SMOOTH",
"384 281 OFFCURVE",
"406 277 OFFCURVE",
"406 230 CURVE SMOOTH",
"406 175 OFFCURVE",
"370 175 OFFCURVE",
"356 175 CURVE SMOOTH",
"213 175 LINE"
);
}
);
width = 609;
},
{
anchors = (
{
name = bottom;
position = "{187, 0}";
},
{
name = top;
position = "{187, 700}";
}
);
layerId = "4383C18A-60F2-4889-B7DB-EDD0F2222092";
paths = (
{
closed = 1;
nodes = (
"204 -11 LINE SMOOTH",
"317 -11 OFFCURVE",
"396 76 OFFCURVE",
"398 187 CURVE SMOOTH",
"398 259 OFFCURVE",
"369 334 OFFCURVE",
"305 363 CURVE",
"351 390 OFFCURVE",
"372 446 OFFCURVE",
"371 507 CURVE",
"373 605 OFFCURVE",
"303 687 OFFCURVE",
"194 687 CURVE SMOOTH",
"103 687 LINE SMOOTH",
"86 687 OFFCURVE",
"75 674 OFFCURVE",
"75 649 CURVE SMOOTH",
"75 29 LINE SMOOTH",
"75 2 OFFCURVE",
"85 -11 OFFCURVE",
"102 -11 CURVE SMOOTH"
);
},
{
closed = 1;
nodes = (
"129 632 LINE",
"186 632 LINE SMOOTH",
"273 632 OFFCURVE",
"319 586 OFFCURVE",
"319 497 CURVE SMOOTH",
"319 372 OFFCURVE",
"237 385 OFFCURVE",
"219 385 CURVE SMOOTH",
"214 385 LINE SMOOTH",
"196 385 OFFCURVE",
"186 376 OFFCURVE",
"186 358 CURVE SMOOTH",
"186 338 OFFCURVE",
"194 328 OFFCURVE",
"209 328 CURVE SMOOTH",
"219 328 LINE",
"246 330 OFFCURVE",
"344 338 OFFCURVE",
"344 198 CURVE SMOOTH",
"344 103 OFFCURVE",
"294 43 OFFCURVE",
"194 43 CURVE SMOOTH",
"129 43 LINE"
);
}
);
width = 443;
},
{
anchors = (
{
name = bottom;
position = "{323, -3}";
},
{
name = top;
position = "{323, 700}";
}
);
layerId = "988D29BF-96E2-481F-8769-6B283BD5795A";
paths = (
{
closed = 1;
nodes = (
"396 -11 LINE SMOOTH",
"509 -11 OFFCURVE",
"591 76 OFFCURVE",
"593 187 CURVE SMOOTH",
"593 264 OFFCURVE",
"556 338 OFFCURVE",
"497 368 CURVE",
"543 395 OFFCURVE",
"567 451 OFFCURVE",
"566 509 CURVE",
"568 607 OFFCURVE",
"495 687 OFFCURVE",
"386 687 CURVE SMOOTH",
"92 687 LINE SMOOTH",
"75 687 OFFCURVE",
"64 674 OFFCURVE",
"64 649 CURVE SMOOTH",
"64 29 LINE SMOOTH",
"64 2 OFFCURVE",
"74 -11 OFFCURVE",
"91 -11 CURVE SMOOTH"
);
},
{
closed = 1;
nodes = (
"123 632 LINE",
"356 632 LINE SMOOTH",
"465 632 OFFCURVE",
"511 588 OFFCURVE",
"511 499 CURVE SMOOTH",
"511 381 OFFCURVE",
"410 390 OFFCURVE",
"362 390 CURVE SMOOTH",
"284 390 LINE SMOOTH",
"268 390 OFFCURVE",
"258 381 OFFCURVE",
"258 363 CURVE SMOOTH",
"258 343 OFFCURVE",
"266 333 OFFCURVE",
"284 333 CURVE SMOOTH",
"362 333 LINE SMOOTH",
"415 333 OFFCURVE",
"536 341 OFFCURVE",
"536 198 CURVE SMOOTH",
"536 103 OFFCURVE",
"486 43 OFFCURVE",
"386 43 CURVE SMOOTH",
"123 43 LINE"
);
}
);
width = 648;
},
{
anchors = (
{
name = bottom;
position = "{276, 0}";
},
{
name = top;
position = "{276, 700}";
}
);
layerId = "C221B64C-0844-4CE6-BA2A-18F986CD7755";
paths = (
{
closed = 1;
nodes = (
"301 -8 LINE SMOOTH",
"439 -8 OFFCURVE",
"522 66 OFFCURVE",
"524 209 CURVE SMOOTH",
"525 293 OFFCURVE",
"496 342 OFFCURVE",
"451 366 CURVE",
"485 388 OFFCURVE",
"504 442 OFFCURVE",
"504 488 CURVE SMOOTH",
"504 623 OFFCURVE",
"425 692 OFFCURVE",
"291 692 CURVE SMOOTH",
"157 692 LINE SMOOTH",
"65 692 OFFCURVE",
"65 645 OFFCURVE",
"65 601 CURVE SMOOTH",
"65 85 LINE SMOOTH",
"65 39 OFFCURVE",
"65 -8 OFFCURVE",
"156 -8 CURVE SMOOTH"
);
},
{
closed = 1;
nodes = (
"248 509 LINE",
"279 509 LINE SMOOTH",
"313 509 OFFCURVE",
"321 496 OFFCURVE",
"321 470 CURVE SMOOTH",
"321 445 OFFCURVE",
"321 432 OFFCURVE",
"313 432 CURVE SMOOTH",
"312 432 LINE SMOOTH",
"284 432 OFFCURVE",
"279 404 OFFCURVE",
"279 358 CURVE SMOOTH",
"279 307 OFFCURVE",
"284 281 OFFCURVE",
"312 281 CURVE SMOOTH",
"314 281 LINE SMOOTH",
"335 281 OFFCURVE",
"351 262 OFFCURVE",
"351 230 CURVE SMOOTH",
"351 194 OFFCURVE",
"334 175 OFFCURVE",
"301 175 CURVE SMOOTH",
"248 175 LINE"
);
}
);
width = 559;
},
{
anchors = (
{
name = bottom;
position = "{455, 0}";
},
{
name = top;
position = "{455, 700}";
}
);
layerId = "F1D2FE0C-0290-44F9-97DF-753285E87900";
paths = (
{
closed = 1;
nodes = (
"693 -11 LINE SMOOTH",
"806 -11 OFFCURVE",
"897 76 OFFCURVE",
"899 187 CURVE SMOOTH",
"900 257 OFFCURVE",
"872 338 OFFCURVE",
"793 368 CURVE",
"847 395 OFFCURVE",
"873 451 OFFCURVE",
"872 509 CURVE",
"874 607 OFFCURVE",
"792 687 OFFCURVE",
"683 687 CURVE SMOOTH",
"98 687 LINE SMOOTH",
"81 687 OFFCURVE",
"70 674 OFFCURVE",
"70 649 CURVE SMOOTH",
"70 29 LINE SMOOTH",
"70 2 OFFCURVE",
"80 -11 OFFCURVE",
"97 -11 CURVE SMOOTH"
);
},
{
closed = 1;
nodes = (
"129 632 LINE",
"653 632 LINE SMOOTH",
"762 632 OFFCURVE",
"817 588 OFFCURVE",
"817 499 CURVE SMOOTH",
"817 381 OFFCURVE",
"706 390 OFFCURVE",
"686 390 CURVE SMOOTH",
"340 390 LINE SMOOTH",
"324 390 OFFCURVE",
"314 381 OFFCURVE",
"314 363 CURVE SMOOTH",
"314 343 OFFCURVE",
"322 333 OFFCURVE",
"340 333 CURVE SMOOTH",
"686 333 LINE SMOOTH",
"711 333 OFFCURVE",
"842 341 OFFCURVE",
"842 198 CURVE SMOOTH",
"842 103 OFFCURVE",
"783 43 OFFCURVE",
"683 43 CURVE SMOOTH",
"129 43 LINE"
);
}
);
width = 949;
},
{
anchors = (
{
name = bottom;
position = "{475, 0}";
},
{
name = top;
position = "{475, 700}";
}
);
layerId = "D56FD762-6887-41EE-B8AF-857F7388911F";
paths = (
{
closed = 1;
nodes = (
"677 -8 LINE SMOOTH",
"807 -8 OFFCURVE",
"934 76 OFFCURVE",
"934 204 CURVE SMOOTH",
"934 286 OFFCURVE",
"872 353 OFFCURVE",
"838 366 CURVE",
"860 378 OFFCURVE",
"914 422 OFFCURVE",
"914 500 CURVE SMOOTH",
"914 614 OFFCURVE",
"798 692 OFFCURVE",
"667 692 CURVE SMOOTH",
"167 692 LINE SMOOTH",
"75 692 OFFCURVE",
"75 645 OFFCURVE",
"75 601 CURVE SMOOTH",
"75 85 LINE SMOOTH",
"75 39 OFFCURVE",
"75 -8 OFFCURVE",
"166 -8 CURVE SMOOTH"
);
},
{
closed = 1;
nodes = (
"258 509 LINE",
"659 509 LINE SMOOTH",
"700 509 OFFCURVE",
"731 501 OFFCURVE",
"731 470 CURVE SMOOTH",
"731 435 OFFCURVE",
"693 432 OFFCURVE",
"662 432 CURVE SMOOTH",
"563 432 LINE SMOOTH",
"502 432 OFFCURVE",
"479 413 OFFCURVE",
"479 358 CURVE SMOOTH",
"479 301 OFFCURVE",
"500 281 OFFCURVE",
"558 281 CURVE SMOOTH",
"666 281 LINE SMOOTH",
"703 281 OFFCURVE",
"751 277 OFFCURVE",
"751 230 CURVE SMOOTH",
"751 175 OFFCURVE",
"695 175 OFFCURVE",
"681 175 CURVE SMOOTH",
"258 175 LINE"
);
}
);
width = 969;
}
);
note = B;
rightKerningGroup = d;
unicode = 0042;
},
{
glyphname = C;
layers = (
{
anchors = (
{
name = bottom;
position = "{346, 0}";
},
{
name = top;
position = "{346, 700}";
}
);
layerId = "05A6575B-AA27-4212-BC78-A0BDA398BBDE";
paths = (
{
closed = 1;
nodes = (
"486 -19 OFFCURVE",
"548 28 OFFCURVE",
"562 37 CURVE",
"588 53 OFFCURVE",
"617 71 OFFCURVE",
"617 104 CURVE SMOOTH",
"617 120 OFFCURVE",
"609 139 OFFCURVE",
"595 162 CURVE SMOOTH",
"570 200 OFFCURVE",
"548 219 OFFCURVE",
"525 219 CURVE SMOOTH",
"507 219 OFFCURVE",
"490 209 OFFCURVE",
"475 199 CURVE SMOOTH",
"450 182 OFFCURVE",
"423 166 OFFCURVE",
"372 166 CURVE SMOOTH",
"304 166 OFFCURVE",
"197 213 OFFCURVE",
"197 340 CURVE SMOOTH",
"197 466 OFFCURVE",
"302 514 OFFCURVE",
"372 514 CURVE SMOOTH",
"434 514 OFFCURVE",
"456 494 OFFCURVE",
"470 485 CURVE",
"492 470 OFFCURVE",
"507 462 OFFCURVE",
"524 462 CURVE SMOOTH",
"547 462 OFFCURVE",
"569 479 OFFCURVE",
"596 516 CURVE SMOOTH",
"610 536 OFFCURVE",
"618 555 OFFCURVE",
"618 572 CURVE SMOOTH",
"618 606 OFFCURVE",
"589 625 OFFCURVE",
"563 642 CURVE",
"551 649 OFFCURVE",
"480 698 OFFCURVE",
"379 698 CURVE SMOOTH",
"242 698 OFFCURVE",
"14 599 OFFCURVE",
"14 345 CURVE SMOOTH",
"14 81 OFFCURVE",
"246 -19 OFFCURVE",
"376 -19 CURVE SMOOTH"
);
}
);
width = 631;
},
{
anchors = (
{
name = bottom;
position = "{227, 0}";
},
{
name = top;
position = "{227, 700}";
}
);
layerId = "4383C18A-60F2-4889-B7DB-EDD0F2222092";
paths = (
{
closed = 1;
nodes = (
"290 -10 OFFCURVE",
"305 -3 OFFCURVE",
"340 16 CURVE SMOOTH",
"360 27 OFFCURVE",
"373 42 OFFCURVE",
"377 53 CURVE SMOOTH",
"379 59 OFFCURVE",
"377 69 OFFCURVE",
"371 79 CURVE SMOOTH",
"366 87 OFFCURVE",
"356 91 OFFCURVE",
"348 91 CURVE SMOOTH",
"336 91 OFFCURVE",
"335 85 OFFCURVE",
"314 73 CURVE SMOOTH",
"277 52 OFFCURVE",
"266 51 OFFCURVE",
"234 51 CURVE SMOOTH",
"154 51 OFFCURVE",
"104 159 OFFCURVE",
"104 342 CURVE SMOOTH",
"104 524 OFFCURVE",
"154 632 OFFCURVE",
"234 632 CURVE SMOOTH",
"270 632 OFFCURVE",
"281 628 OFFCURVE",
"314 606 CURVE SMOOTH",
"335 592 OFFCURVE",
"340 586 OFFCURVE",
"349 586 CURVE SMOOTH",
"358 586 OFFCURVE",
"364 590 OFFCURVE",
"371 599 CURVE SMOOTH",
"378 609 OFFCURVE",
"380 616 OFFCURVE",
"377 624 CURVE SMOOTH",
"374 631 OFFCURVE",
"361 649 OFFCURVE",
"340 661 CURVE SMOOTH",
"297 686 OFFCURVE",
"278 693 OFFCURVE",
"238 693 CURVE SMOOTH",
"118 693 OFFCURVE",
"44 564 OFFCURVE",
"44 347 CURVE SMOOTH",
"44 123 OFFCURVE",
"118 -10 OFFCURVE",
"238 -10 CURVE SMOOTH"
);
}
);
width = 423;
},
{
anchors = (
{
name = bottom;
position = "{400, 0}";
},
{
name = top;
position = "{400, 700}";
}
);
layerId = "988D29BF-96E2-481F-8769-6B283BD5795A";
paths = (
{
closed = 1;
nodes = (
"505 -10 OFFCURVE",
"561 25 OFFCURVE",
"580 36 CURVE SMOOTH",
"596 45 OFFCURVE",
"614 58 OFFCURVE",
"617 73 CURVE SMOOTH",
"620 86 OFFCURVE",
"615 93 OFFCURVE",
"611 99 CURVE SMOOTH",
"605 108 OFFCURVE",
"597 111 OFFCURVE",
"588 111 CURVE SMOOTH",
"576 111 OFFCURVE",
"568 101 OFFCURVE",
"554 93 CURVE SMOOTH",
"541 86 OFFCURVE",
"486 51 OFFCURVE",
"403 51 CURVE SMOOTH",
"242 51 OFFCURVE",
"122 169 OFFCURVE",
"122 342 CURVE SMOOTH",
"122 514 OFFCURVE",
"242 632 OFFCURVE",
"403 632 CURVE SMOOTH",
"486 632 OFFCURVE",
"542 598 OFFCURVE",
"554 590 CURVE SMOOTH",
"568 581 OFFCURVE",
"576 571 OFFCURVE",
"588 571 CURVE SMOOTH",
"597 571 OFFCURVE",
"605 575 OFFCURVE",
"611 584 CURVE SMOOTH",
"615 590 OFFCURVE",
"620 596 OFFCURVE",
"617 609 CURVE SMOOTH",
"614 624 OFFCURVE",
"596 636 OFFCURVE",
"580 646 CURVE SMOOTH",
"561 658 OFFCURVE",
"507 693 OFFCURVE",
"407 693 CURVE SMOOTH",
"211 689 OFFCURVE",
"62 552 OFFCURVE",
"62 347 CURVE SMOOTH",
"62 139 OFFCURVE",
"211 -10 OFFCURVE",
"407 -10 CURVE SMOOTH"
);
}
);
width = 679;
},
{
anchors = (
{
name = bottom;
position = "{290, 0}";
},
{
name = top;
position = "{290, 700}";
}
);
layerId = "C221B64C-0844-4CE6-BA2A-18F986CD7755";
paths = (
{
closed = 1;
nodes = (
"363 -19 OFFCURVE",
"417 -4 OFFCURVE",
"463 25 CURVE SMOOTH",
"498 47 OFFCURVE",
"517 71 OFFCURVE",
"517 92 CURVE SMOOTH",
"517 107 OFFCURVE",
"510 127 OFFCURVE",
"496 150 CURVE SMOOTH",
"473 188 OFFCURVE",
"452 208 OFFCURVE",
"433 208 CURVE SMOOTH",
"418 208 OFFCURVE",
"400 199 OFFCURVE",
"380 183 CURVE SMOOTH",
"358 165 OFFCURVE",
"332 156 OFFCURVE",
"302 156 CURVE SMOOTH",
"249 156 OFFCURVE",
"218 224 OFFCURVE",
"218 340 CURVE SMOOTH",
"218 456 OFFCURVE",
"249 524 OFFCURVE",
"302 524 CURVE SMOOTH",
"322 524 OFFCURVE",
"344 516 OFFCURVE",
"365 501 CURVE SMOOTH",
"390 483 OFFCURVE",
"407 474 OFFCURVE",
"417 474 CURVE SMOOTH",
"433 474 OFFCURVE",
"455 492 OFFCURVE",
"482 527 CURVE SMOOTH",
"496 545 OFFCURVE",
"504 564 OFFCURVE",
"505 582 CURVE SMOOTH",
"506 606 OFFCURVE",
"488 631 OFFCURVE",
"453 654 CURVE SMOOTH",
"408 683 OFFCURVE",
"358 698 OFFCURVE",
"308 698 CURVE SMOOTH",
"136 698 OFFCURVE",
"35 567 OFFCURVE",
"35 345 CURVE SMOOTH",
"35 116 OFFCURVE",
"135 -19 OFFCURVE",
"305 -19 CURVE SMOOTH"
);
}
);
width = 552;
},
{
anchors = (
{
name = bottom;
position = "{488, 0}";
},
{
name = top;
position = "{488, 700}";
}
);
layerId = "F1D2FE0C-0290-44F9-97DF-753285E87900";
paths = (
{
closed = 1;
nodes = (
"649 -10 OFFCURVE",
"735 24 OFFCURVE",
"808 66 CURVE SMOOTH",
"829 78 OFFCURVE",
"843 92 OFFCURVE",
"845 103 CURVE",
"847 111 OFFCURVE",
"845 121 OFFCURVE",
"839 129 CURVE",
"834 137 OFFCURVE",
"827 141 OFFCURVE",
"817 141 CURVE SMOOTH",
"809 141 OFFCURVE",
"802 136 OFFCURVE",
"782 123 CURVE SMOOTH",
"707 74 OFFCURVE",
"629 49 OFFCURVE",
"493 49 CURVE SMOOTH",
"249 49 OFFCURVE",
"110 158 OFFCURVE",
"110 342 CURVE SMOOTH",
"110 526 OFFCURVE",
"249 634 OFFCURVE",
"493 634 CURVE SMOOTH",
"644 634 OFFCURVE",
"723 605 OFFCURVE",
"782 562 CURVE SMOOTH",
"800 549 OFFCURVE",
"810 543 OFFCURVE",
"817 543 CURVE SMOOTH",
"826 543 OFFCURVE",
"834 548 OFFCURVE",
"839 556 CURVE SMOOTH",
"845 565 OFFCURVE",
"847 574 OFFCURVE",
"845 581 CURVE",
"843 591 OFFCURVE",
"829 605 OFFCURVE",
"808 618 CURVE SMOOTH",
"741 660 OFFCURVE",
"654 693 OFFCURVE",
"493 692 CURVE SMOOTH",
"213 690 OFFCURVE",
"50 560 OFFCURVE",
"50 347 CURVE SMOOTH",
"50 123 OFFCURVE",
"213 -10 OFFCURVE",
"493 -10 CURVE SMOOTH"
);
}
);
width = 896;
},
{
anchors = (
{
name = bottom;
position = "{507, 0}";
},
{
name = top;
position = "{507, 700}";
}
);
layerId = "D56FD762-6887-41EE-B8AF-857F7388911F";
paths = (
{
closed = 1;
nodes = (
"706 -19 OFFCURVE",
"821 23 OFFCURVE",
"873 57 CURVE",
"906 77 OFFCURVE",
"928 104 OFFCURVE",
"928 124 CURVE SMOOTH",
"928 137 OFFCURVE",
"919 160 OFFCURVE",
"906 182 CURVE SMOOTH",
"886 216 OFFCURVE",
"857 239 OFFCURVE",
"836 239 CURVE SMOOTH",
"824 239 OFFCURVE",
"804 231 OFFCURVE",
"786 219 CURVE SMOOTH",
"757 199 OFFCURVE",
"676 166 OFFCURVE",
"533 166 CURVE SMOOTH",
"318 166 OFFCURVE",
"208 236 OFFCURVE",
"208 340 CURVE SMOOTH",
"208 444 OFFCURVE",
"318 514 OFFCURVE",
"533 514 CURVE SMOOTH",
"675 514 OFFCURVE",
"754 482 OFFCURVE",
"781 465 CURVE",
"801 451 OFFCURVE",
"823 442 OFFCURVE",
"835 442 CURVE SMOOTH",
"856 442 OFFCURVE",
"885 464 OFFCURVE",
"907 496 CURVE SMOOTH",
"920 515 OFFCURVE",
"929 537 OFFCURVE",
"929 552 CURVE SMOOTH",
"929 572 OFFCURVE",
"907 600 OFFCURVE",
"874 622 CURVE",
"816 656 OFFCURVE",
"703 698 OFFCURVE",
"540 698 CURVE SMOOTH",
"211 698 OFFCURVE",
"25 557 OFFCURVE",
"25 345 CURVE SMOOTH",
"25 127 OFFCURVE",
"210 -19 OFFCURVE",
"537 -19 CURVE SMOOTH"
);
}
);
width = 964;
}
);
leftKerningGroup = C;
note = C;
rightKerningGroup = C;
unicode = 0043;
},
{
glyphname = D;
layers = (
{
anchors = (
{
name = bottom;
position = "{328, 0}";
},
{
name = center;
position = "{328, 350}";
},
{
name = top;
position = "{328, 700}";
}
);
layerId = "05A6575B-AA27-4212-BC78-A0BDA398BBDE";
paths = (
{
closed = 1;
nodes = (
"289 -8 LINE SMOOTH",
"483 -8 OFFCURVE",
"641 150 OFFCURVE",
"641 345 CURVE SMOOTH",
"641 535 OFFCURVE",
"482 691 OFFCURVE",
"292 691 CURVE",
"120 691 LINE",
"28 692 OFFCURVE",
"28 645 OFFCURVE",
"28 601 CURVE SMOOTH",
"28 84 LINE SMOOTH",
"28 35 OFFCURVE",
"33 -8 OFFCURVE",
"119 -8 CURVE SMOOTH"
);
},
{
closed = 1;
nodes = (
"211 508 LINE",
"291 508 LINE SMOOTH",
"383 508 OFFCURVE",
"458 433 OFFCURVE",
"458 341 CURVE SMOOTH",
"458 249 OFFCURVE",
"382 175 OFFCURVE",
"292 175 CURVE SMOOTH",
"211 175 LINE"
);
}
);
width = 655;
},
{
anchors = (
{
name = bottom;
position = "{198, 0}";
},
{
name = center;
position = "{198, 350}";
},
{
name = top;
position = "{198, 700}";
}
);
layerId = "4383C18A-60F2-4889-B7DB-EDD0F2222092";
paths = (
{
closed = 1;
nodes = (
"157 -11 LINE SMOOTH",
"360 -11 OFFCURVE",
"430 120 OFFCURVE",
"430 342 CURVE SMOOTH",
"430 559 OFFCURVE",
"361 687 OFFCURVE",
"160 687 CURVE SMOOTH",
"105 687 LINE SMOOTH",
"86 687 OFFCURVE",
"75 677 OFFCURVE",
"75 658 CURVE SMOOTH",
"75 20 LINE SMOOTH",
"75 1 OFFCURVE",
"86 -11 OFFCURVE",
"104 -11 CURVE SMOOTH"
);
},
{
closed = 1;
nodes = (
"134 627 LINE",
"159 627 LINE SMOOTH",
"323 627 OFFCURVE",
"370 519 OFFCURVE",
"370 337 CURVE SMOOTH",
"370 156 OFFCURVE",
"323 49 OFFCURVE",
"160 49 CURVE SMOOTH",
"134 49 LINE"
);
}
);
width = 465;
},
{
anchors = (
{
name = bottom;
position = "{352, -3}";
},
{
name = center;
position = "{352, 365}";
},
{
name = top;
position = "{322, 700}";
}
);
layerId = "988D29BF-96E2-481F-8769-6B283BD5795A";
paths = (
{
closed = 1;
nodes = (
"309 -11 LINE SMOOTH",
"512 -11 OFFCURVE",
"632 120 OFFCURVE",
"632 342 CURVE SMOOTH",
"632 559 OFFCURVE",
"513 687 OFFCURVE",
"312 687 CURVE SMOOTH",
"107 688 LINE SMOOTH",
"88 688 OFFCURVE",
"77 677 OFFCURVE",
"77 658 CURVE SMOOTH",
"77 20 LINE SMOOTH",
"77 1 OFFCURVE",
"88 -11 OFFCURVE",
"106 -11 CURVE SMOOTH"
);
},
{
closed = 1;
nodes = (
"136 627 LINE",
"311 627 LINE SMOOTH",
"475 627 OFFCURVE",
"572 519 OFFCURVE",
"572 337 CURVE SMOOTH",
"572 156 OFFCURVE",
"475 49 OFFCURVE",
"312 49 CURVE SMOOTH",
"136 49 LINE"
);
}
);
width = 704;
},
{
anchors = (
{
name = bottom;
position = "{260, 0}";
},
{
name = center;
position = "{260, 350}";
},
{
name = top;
position = "{260, 700}";
}
);
layerId = "C221B64C-0844-4CE6-BA2A-18F986CD7755";
paths = (
{
closed = 1;
nodes = (
"246 -8 LINE SMOOTH",
"440 -8 OFFCURVE",
"528 150 OFFCURVE",
"528 345 CURVE SMOOTH",
"528 535 OFFCURVE",
"439 691 OFFCURVE",
"249 691 CURVE SMOOTH",
"137 691 LINE SMOOTH",
"45 691 OFFCURVE",
"45 645 OFFCURVE",
"45 601 CURVE SMOOTH",
"45 84 LINE SMOOTH",
"45 35 OFFCURVE",
"50 -8 OFFCURVE",
"136 -8 CURVE SMOOTH"
);
},
{
closed = 1;
nodes = (
"228 508 LINE",
"248 508 LINE SMOOTH",
"340 508 OFFCURVE",
"345 433 OFFCURVE",
"345 341 CURVE SMOOTH",
"345 249 OFFCURVE",
"339 175 OFFCURVE",
"249 175 CURVE SMOOTH",
"228 175 LINE"
);
}
);
width = 563;
},
{
anchors = (
{
name = bottom;
position = "{488, 0}";
},
{
name = center;
position = "{488, 350}";
},
{
name = top;
position = "{488, 700}";
}
);
layerId = "F1D2FE0C-0290-44F9-97DF-753285E87900";
paths = (
{
closed = 1;
nodes = (
"552 -11 LINE SMOOTH",
"764 -11 OFFCURVE",
"925 110 OFFCURVE",
"925 342 CURVE SMOOTH",
"925 568 OFFCURVE",
"765 687 OFFCURVE",
"555 687 CURVE SMOOTH",
"100 687 LINE SMOOTH",
"80 687 OFFCURVE",
"70 678 OFFCURVE",
"70 658 CURVE SMOOTH",
"70 20 LINE SMOOTH",
"70 0 OFFCURVE",
"80 -11 OFFCURVE",
"99 -11 CURVE SMOOTH"
);
},
{
closed = 1;
nodes = (
"129 627 LINE",
"554 627 LINE SMOOTH",
"726 627 OFFCURVE",
"865 528 OFFCURVE",
"865 337 CURVE SMOOTH",
"865 148 OFFCURVE",
"726 49 OFFCURVE",
"555 49 CURVE SMOOTH",
"129 49 LINE"
);
}
);
width = 975;
},
{
anchors = (
{
name = bottom;
position = "{562, 0}";
},
{
name = center;
position = "{562, 350}";
},
{
name = top;
position = "{562, 700}";
}
);
layerId = "D56FD762-6887-41EE-B8AF-857F7388911F";
paths = (
{
closed = 1;
nodes = (
"616 -8 LINE SMOOTH",
"810 -8 OFFCURVE",
"968 150 OFFCURVE",
"968 345 CURVE SMOOTH",
"968 535 OFFCURVE",
"809 691 OFFCURVE",
"619 691 CURVE",
"147 691 LINE",
"55 692 OFFCURVE",
"55 645 OFFCURVE",
"55 601 CURVE SMOOTH",
"55 84 LINE SMOOTH",
"55 35 OFFCURVE",
"60 -8 OFFCURVE",
"146 -8 CURVE SMOOTH"
);
},
{
closed = 1;
nodes = (
"238 508 LINE",
"618 508 LINE SMOOTH",
"710 508 OFFCURVE",
"785 433 OFFCURVE",
"785 341 CURVE SMOOTH",
"785 249 OFFCURVE",
"709 175 OFFCURVE",
"619 175 CURVE SMOOTH",
"238 175 LINE"
);
}
);
width = 1003;
}
);
note = D;
rightKerningGroup = D;
unicode = 0044;
},
{
glyphname = E;
layers = (
{
anchors = (
{
name = bottom;
position = "{307, 0}";
},
{
name = ogonek;
position = "{595, 9}";
},
{
name = top;
position = "{307, 700}";
},
{
name = topleft;
position = "{30, 700}";
}
);
layerId = "05A6575B-AA27-4212-BC78-A0BDA398BBDE";
paths = (
{
closed = 1;
nodes = (
"497 -9 LINE SMOOTH",
"542 -9 OFFCURVE",
"589 -9 OFFCURVE",
"589 82 CURVE SMOOTH",
"589 174 OFFCURVE",
"543 174 OFFCURVE",
"498 174 CURVE SMOOTH",
"221 174 LINE",
"221 263 LINE",
"404 263 LINE SMOOTH",
"450 263 OFFCURVE",
"487 263 OFFCURVE",
"487 340 CURVE SMOOTH",
"487 419 OFFCURVE",
"451 419 OFFCURVE",
"406 419 CURVE SMOOTH",
"221 419 LINE",
"221 508 LINE",
"497 508 LINE SMOOTH",
"542 508 OFFCURVE",
"589 508 OFFCURVE",
"589 599 CURVE SMOOTH",
"589 691 OFFCURVE",
"543 691 OFFCURVE",
"498 691 CURVE SMOOTH",
"132 691 LINE SMOOTH",
"61 691 OFFCURVE",
"38 669 OFFCURVE",
"38 600 CURVE SMOOTH",
"38 83 LINE SMOOTH",
"38 38 OFFCURVE",
"38 -9 OFFCURVE",
"129 -9 CURVE SMOOTH"
);
}
);
width = 603;
},
{
anchors = (
{
name = bottom;
position = "{153, 0}";
},
{
name = ogonek;
position = "{326, 10}";
},
{
name = top;
position = "{193, 700}";
},
{
name = topleft;
position = "{44, 700}";
}
);
layerId = "4383C18A-60F2-4889-B7DB-EDD0F2222092";
paths = (
{
closed = 1;
nodes = (
"320 -11 LINE SMOOTH",
"342 -11 OFFCURVE",
"350 -3 OFFCURVE",
"350 19 CURVE SMOOTH",
"350 41 OFFCURVE",
"343 49 OFFCURVE",
"321 49 CURVE SMOOTH",
"134 49 LINE",
"134 320 LINE",
"253 320 LINE SMOOTH",
"277 320 OFFCURVE",
"285 327 OFFCURVE",
"285 349 CURVE SMOOTH",
"285 372 OFFCURVE",
"277 380 OFFCURVE",
"255 380 CURVE SMOOTH",
"134 380 LINE",
"134 627 LINE",
"320 627 LINE SMOOTH",
"342 627 OFFCURVE",
"350 634 OFFCURVE",
"350 656 CURVE SMOOTH",
"350 679 OFFCURVE",
"343 687 OFFCURVE",
"321 687 CURVE SMOOTH",
"107 687 LINE SMOOTH",
"83 687 OFFCURVE",
"75 679 OFFCURVE",
"75 657 CURVE SMOOTH",
"75 20 LINE SMOOTH",
"75 -3 OFFCURVE",
"82 -11 OFFCURVE",
"104 -11 CURVE SMOOTH"
);
}
);
width = 395;
},
{
anchors = (
{
name = bottom;
position = "{319, 0}";
},
{
name = ogonek;
position = "{534, 7}";
},
{
name = top;
position = "{319, 700}";
},
{
name = topleft;
position = "{20, 700}";
}
);
layerId = "988D29BF-96E2-481F-8769-6B283BD5795A";
paths = (
{
closed = 1;
nodes = (
"534 -11 LINE SMOOTH",
"556 -11 OFFCURVE",
"564 -3 OFFCURVE",
"564 19 CURVE SMOOTH",
"564 41 OFFCURVE",
"557 49 OFFCURVE",
"535 49 CURVE SMOOTH",
"148 49 LINE",
"148 320 LINE",
"417 320 LINE SMOOTH",
"441 320 OFFCURVE",
"449 327 OFFCURVE",
"449 349 CURVE SMOOTH",
"449 372 OFFCURVE",
"441 380 OFFCURVE",
"419 380 CURVE SMOOTH",
"148 380 LINE",
"148 627 LINE",
"534 627 LINE SMOOTH",
"556 627 OFFCURVE",
"564 634 OFFCURVE",
"564 656 CURVE SMOOTH",
"564 679 OFFCURVE",
"557 687 OFFCURVE",
"535 687 CURVE SMOOTH",
"121 687 LINE SMOOTH",
"97 687 OFFCURVE",
"89 679 OFFCURVE",
"89 657 CURVE SMOOTH",
"89 20 LINE SMOOTH",
"89 -3 OFFCURVE",
"96 -11 OFFCURVE",
"118 -11 CURVE SMOOTH"
);
}
);
width = 630;
},
{
anchors = (
{
name = bottom;
position = "{196, 0}";
},
{
name = ogonek;
position = "{447, 10}";
},
{
name = top;
position = "{235, 700}";
},
{
name = topleft;
position = "{17, 700}";
}
);
layerId = "C221B64C-0844-4CE6-BA2A-18F986CD7755";
paths = (
{
closed = 1;
nodes = (
"344 -9 LINE SMOOTH",
"389 -9 OFFCURVE",
"436 -9 OFFCURVE",
"436 82 CURVE SMOOTH",
"436 174 OFFCURVE",
"390 174 OFFCURVE",
"345 174 CURVE SMOOTH",
"228 174 LINE",
"228 263 LINE",
"281 263 LINE SMOOTH",
"327 263 OFFCURVE",
"364 263 OFFCURVE",
"364 340 CURVE SMOOTH",
"364 419 OFFCURVE",
"328 419 OFFCURVE",
"283 419 CURVE SMOOTH",
"228 419 LINE",
"228 508 LINE",
"344 508 LINE SMOOTH",
"389 508 OFFCURVE",
"436 508 OFFCURVE",
"436 599 CURVE SMOOTH",
"436 691 OFFCURVE",
"390 691 OFFCURVE",
"345 691 CURVE SMOOTH",
"139 691 LINE SMOOTH",
"68 691 OFFCURVE",
"45 669 OFFCURVE",
"45 600 CURVE SMOOTH",
"45 83 LINE SMOOTH",
"45 38 OFFCURVE",
"45 -9 OFFCURVE",
"136 -9 CURVE SMOOTH"
);
}
);
width = 461;
},
{
anchors = (
{
name = bottom;
position = "{483, 0}";
},
{
name = ogonek;
position = "{800, 10}";
},
{
name = top;
position = "{433, 700}";
},
{
name = topleft;
position = "{105, 700}";
}
);
layerId = "F1D2FE0C-0290-44F9-97DF-753285E87900";
paths = (
{
closed = 1;
nodes = (
"800 -11 LINE SMOOTH",
"822 -11 OFFCURVE",
"830 -3 OFFCURVE",
"830 19 CURVE SMOOTH",
"830 41 OFFCURVE",
"823 49 OFFCURVE",
"801 49 CURVE SMOOTH",
"114 49 LINE",
"114 320 LINE",
"683 320 LINE SMOOTH",
"707 320 OFFCURVE",
"715 327 OFFCURVE",
"715 349 CURVE SMOOTH",
"715 372 OFFCURVE",
"707 380 OFFCURVE",
"685 380 CURVE SMOOTH",
"114 380 LINE",
"114 627 LINE",
"800 627 LINE SMOOTH",
"822 627 OFFCURVE",
"830 634 OFFCURVE",
"830 656 CURVE SMOOTH",
"830 679 OFFCURVE",
"823 687 OFFCURVE",
"801 687 CURVE SMOOTH",
"87 687 LINE SMOOTH",
"63 687 OFFCURVE",
"55 679 OFFCURVE",
"55 657 CURVE SMOOTH",
"55 20 LINE SMOOTH",
"55 -3 OFFCURVE",
"62 -11 OFFCURVE",
"84 -11 CURVE SMOOTH"
);
}
);
width = 875;
},
{
anchors = (
{
name = bottom;
position = "{528, 0}";
},
{
name = ogonek;
position = "{848, 10}";
},
{
name = top;
position = "{458, 700}";
},
{
name = topleft;
position = "{147, 700}";
}
);
layerId = "D56FD762-6887-41EE-B8AF-857F7388911F";
paths = (
{
closed = 1;
nodes = (
"814 -9 LINE SMOOTH",
"859 -9 OFFCURVE",
"906 -9 OFFCURVE",
"906 82 CURVE SMOOTH",
"906 174 OFFCURVE",
"860 174 OFFCURVE",
"815 174 CURVE SMOOTH",
"238 174 LINE",
"238 263 LINE",
"721 263 LINE SMOOTH",
"767 263 OFFCURVE",
"804 263 OFFCURVE",
"804 340 CURVE SMOOTH",
"804 419 OFFCURVE",
"768 419 OFFCURVE",
"723 419 CURVE SMOOTH",
"238 419 LINE",
"238 508 LINE",
"814 508 LINE SMOOTH",
"859 508 OFFCURVE",
"906 508 OFFCURVE",
"906 599 CURVE SMOOTH",
"906 691 OFFCURVE",
"860 691 OFFCURVE",
"815 691 CURVE SMOOTH",
"149 691 LINE SMOOTH",
"78 691 OFFCURVE",
"55 669 OFFCURVE",
"55 600 CURVE SMOOTH",
"55 83 LINE SMOOTH",
"55 38 OFFCURVE",
"55 -9 OFFCURVE",
"146 -9 CURVE SMOOTH"
);
}
);
width = 941;
}
);
note = E;
unicode = 0045;
},
{
glyphname = F;
layers = (
{
anchors = (
{
name = bottom;
position = "{306, 0}";
},
{
name = top;
position = "{306, 700}";
}
);
layerId = "05A6575B-AA27-4212-BC78-A0BDA398BBDE";
paths = (
{
closed = 1;
nodes = (
"221 -9 OFFCURVE",
"221 37 OFFCURVE",
"221 82 CURVE SMOOTH",
"221 263 LINE",
"404 263 LINE SMOOTH",
"449 263 OFFCURVE",
"486 263 OFFCURVE",
"486 339 CURVE SMOOTH",
"486 419 OFFCURVE",
"451 419 OFFCURVE",
"405 419 CURVE SMOOTH",
"221 419 LINE",
"221 508 LINE",
"496 508 LINE SMOOTH",
"542 508 OFFCURVE",
"588 508 OFFCURVE",
"588 599 CURVE SMOOTH",
"588 691 OFFCURVE",
"543 691 OFFCURVE",
"498 691 CURVE SMOOTH",
"132 691 LINE SMOOTH",
"61 691 OFFCURVE",
"38 669 OFFCURVE",
"38 600 CURVE SMOOTH",
"38 83 LINE SMOOTH",
"38 38 OFFCURVE",
"38 -9 OFFCURVE",
"129 -9 CURVE SMOOTH"
);
}
);
width = 613;
},
{
anchors = (
{
name = bottom;
position = "{102, 0}";
},
{
name = top;
position = "{212, 700}";
}
);
layerId = "4383C18A-60F2-4889-B7DB-EDD0F2222092";
paths = (
{
closed = 1;
nodes = (
"126 -11 OFFCURVE",
"134 -3 OFFCURVE",
"134 19 CURVE SMOOTH",
"134 320 LINE",
"253 320 LINE SMOOTH",
"276 320 OFFCURVE",
"284 327 OFFCURVE",
"284 349 CURVE SMOOTH",
"284 372 OFFCURVE",
"276 380 OFFCURVE",
"254 380 CURVE SMOOTH",
"134 380 LINE",
"134 627 LINE",
"319 627 LINE SMOOTH",
"341 627 OFFCURVE",
"349 634 OFFCURVE",
"349 656 CURVE SMOOTH",
"349 679 OFFCURVE",
"342 687 OFFCURVE",
"321 687 CURVE SMOOTH",
"107 687 LINE SMOOTH",
"83 687 OFFCURVE",
"75 679 OFFCURVE",
"75 657 CURVE SMOOTH",
"75 20 LINE SMOOTH",
"75 -3 OFFCURVE",
"82 -11 OFFCURVE",
"104 -11 CURVE SMOOTH"
);
}
);
width = 374;
},
{
anchors = (
{
name = bottom;
position = "{319, 0}";
},
{
name = top;
position = "{319, 700}";
}
);
layerId = "988D29BF-96E2-481F-8769-6B283BD5795A";
paths = (
{
closed = 1;
nodes = (
"140 -11 OFFCURVE",
"148 -3 OFFCURVE",
"148 19 CURVE SMOOTH",
"148 320 LINE",
"417 320 LINE SMOOTH",
"440 320 OFFCURVE",
"448 327 OFFCURVE",
"448 349 CURVE SMOOTH",
"448 372 OFFCURVE",
"440 380 OFFCURVE",
"418 380 CURVE SMOOTH",
"148 380 LINE",
"148 627 LINE",
"533 627 LINE SMOOTH",
"555 627 OFFCURVE",
"563 634 OFFCURVE",
"563 656 CURVE SMOOTH",
"563 679 OFFCURVE",
"556 687 OFFCURVE",
"535 687 CURVE SMOOTH",
"121 687 LINE SMOOTH",
"97 687 OFFCURVE",
"89 679 OFFCURVE",
"89 657 CURVE SMOOTH",
"89 20 LINE SMOOTH",
"89 -3 OFFCURVE",
"96 -11 OFFCURVE",
"118 -11 CURVE SMOOTH"
);
}
);
width = 637;
},
{
anchors = (
{
name = bottom;
position = "{206, 0}";
},
{
name = top;
position = "{206, 700}";
}
);
layerId = "C221B64C-0844-4CE6-BA2A-18F986CD7755";
paths = (
{
closed = 1;
nodes = (
"238 -9 OFFCURVE",
"238 37 OFFCURVE",
"238 82 CURVE SMOOTH",
"238 263 LINE",
"281 263 LINE SMOOTH",
"326 263 OFFCURVE",
"363 263 OFFCURVE",
"363 339 CURVE SMOOTH",
"363 419 OFFCURVE",
"328 419 OFFCURVE",
"282 419 CURVE SMOOTH",
"238 419 LINE",
"238 508 LINE",
"353 508 LINE SMOOTH",
"399 508 OFFCURVE",
"445 508 OFFCURVE",
"445 599 CURVE SMOOTH",
"445 691 OFFCURVE",
"400 691 OFFCURVE",
"355 691 CURVE SMOOTH",
"149 691 LINE SMOOTH",
"78 691 OFFCURVE",
"55 669 OFFCURVE",
"55 600 CURVE SMOOTH",
"55 83 LINE SMOOTH",
"55 38 OFFCURVE",
"55 -9 OFFCURVE",
"146 -9 CURVE SMOOTH"
);
}
);
width = 465;
},
{
anchors = (
{
name = bottom;
position = "{442, 0}";
},
{
name = top;
position = "{442, 700}";
}
);
layerId = "F1D2FE0C-0290-44F9-97DF-753285E87900";
paths = (
{
closed = 1;
nodes = (
"106 -11 OFFCURVE",
"114 -3 OFFCURVE",
"114 19 CURVE SMOOTH",
"114 320 LINE",
"683 320 LINE SMOOTH",
"706 320 OFFCURVE",
"714 327 OFFCURVE",
"714 349 CURVE SMOOTH",
"714 372 OFFCURVE",
"706 380 OFFCURVE",
"684 380 CURVE SMOOTH",
"114 380 LINE",
"114 627 LINE",
"799 627 LINE SMOOTH",
"821 627 OFFCURVE",
"829 634 OFFCURVE",
"829 656 CURVE SMOOTH",
"829 679 OFFCURVE",
"822 687 OFFCURVE",
"801 687 CURVE SMOOTH",
"87 687 LINE SMOOTH",
"63 687 OFFCURVE",
"55 679 OFFCURVE",
"55 657 CURVE SMOOTH",
"55 20 LINE SMOOTH",
"55 -3 OFFCURVE",
"62 -11 OFFCURVE",
"84 -11 CURVE SMOOTH"
);
}
);
width = 864;
},
{
anchors = (
{
name = bottom;
position = "{507, 0}";
},
{
name = top;
position = "{507, 700}";
}
);
layerId = "D56FD762-6887-41EE-B8AF-857F7388911F";
paths = (
{
closed = 1;
nodes = (
"248 -9 OFFCURVE",
"248 37 OFFCURVE",
"248 82 CURVE SMOOTH",
"248 263 LINE",
"731 263 LINE SMOOTH",
"776 263 OFFCURVE",
"813 263 OFFCURVE",
"813 339 CURVE SMOOTH",
"813 419 OFFCURVE",
"778 419 OFFCURVE",
"732 419 CURVE SMOOTH",
"248 419 LINE",
"248 508 LINE",
"823 508 LINE SMOOTH",
"869 508 OFFCURVE",
"915 508 OFFCURVE",
"915 599 CURVE SMOOTH",
"915 691 OFFCURVE",
"870 691 OFFCURVE",
"825 691 CURVE SMOOTH",
"159 691 LINE SMOOTH",
"88 691 OFFCURVE",
"65 669 OFFCURVE",
"65 600 CURVE SMOOTH",
"65 83 LINE SMOOTH",
"65 38 OFFCURVE",
"65 -9 OFFCURVE",
"156 -9 CURVE SMOOTH"
);
}
);
width = 950;
}
);
note = F;
unicode = 0046;
},
{
glyphname = G;
layers = (
{
anchors = (
{
name = bottom;
position = "{360, 0}";
},
{
name = top;
position = "{360, 700}";
}
);
layerId = "05A6575B-AA27-4212-BC78-A0BDA398BBDE";
paths = (
{
closed = 1;
nodes = (
"466 -19 OFFCURVE",
"535 -6 OFFCURVE",
"585 20 CURVE SMOOTH",
"639 48 OFFCURVE",
"674 90 OFFCURVE",
"674 128 CURVE SMOOTH",
"674 333 LINE SMOOTH",
"674 374 OFFCURVE",
"674 417 OFFCURVE",
"595 420 CURVE",
"420 420 LINE SMOOTH",
"385 420 OFFCURVE",
"347 420 OFFCURVE",
"347 343 CURVE SMOOTH",
"347 265 OFFCURVE",
"380 265 OFFCURVE",
"417 265 CURVE SMOOTH",
"491 265 LINE",
"491 179 LINE",
"464 169 OFFCURVE",
"426 166 OFFCURVE",
"391 166 CURVE SMOOTH",
"299 166 OFFCURVE",
"218 251 OFFCURVE",
"218 349 CURVE SMOOTH",
"218 445 OFFCURVE",
"294 520 OFFCURVE",
"389 520 CURVE SMOOTH",
"441 520 OFFCURVE",
"489 500 OFFCURVE",
"502 492 CURVE SMOOTH",
"528 476 OFFCURVE",
"541 469 OFFCURVE",
"556 469 CURVE SMOOTH",
"579 469 OFFCURVE",
"604 485 OFFCURVE",
"630 522 CURVE SMOOTH",
"645 543 OFFCURVE",
"653 562 OFFCURVE",
"653 578 CURVE SMOOTH",
"653 610 OFFCURVE",
"625 629 OFFCURVE",
"597 648 CURVE SMOOTH",
"544 684 OFFCURVE",
"457 703 OFFCURVE",
"394 703 CURVE SMOOTH",
"197 703 OFFCURVE",
"35 545 OFFCURVE",
"35 351 CURVE SMOOTH",
"35 148 OFFCURVE",
"195 -19 OFFCURVE",
"387 -19 CURVE SMOOTH"
);
}
);
width = 719;
},
{
anchors = (
{
name = bottom;
position = "{236, 0}";
},
{
name = top;
position = "{236, 700}";
}
);
layerId = "4383C18A-60F2-4889-B7DB-EDD0F2222092";
paths = (
{
closed = 1;
nodes = (
"288 -10 OFFCURVE",
"340 -1 OFFCURVE",
"373 17 CURVE SMOOTH",
"396 30 OFFCURVE",
"420 61 OFFCURVE",
"420 77 CURVE SMOOTH",
"420 350 LINE SMOOTH",
"420 369 OFFCURVE",
"409 380 OFFCURVE",
"390 380 CURVE SMOOTH",
"260 380 LINE SMOOTH",
"241 380 OFFCURVE",
"230 368 OFFCURVE",
"230 349 CURVE SMOOTH",
"230 331 OFFCURVE",
"242 320 OFFCURVE",
"261 320 CURVE SMOOTH",
"360 320 LINE",
"360 71 LINE",
"333 54 OFFCURVE",
"294 50 OFFCURVE",
"263 50 CURVE SMOOTH",
"172 50 OFFCURVE",
"97 168 OFFCURVE",
"95 346 CURVE SMOOTH",
"93 518 OFFCURVE",
"169 632 OFFCURVE",
"266 632 CURVE SMOOTH",
"284 632 OFFCURVE",
"330 627 OFFCURVE",
"352 613 CURVE SMOOTH",
"369 602 OFFCURVE",
"379 598 OFFCURVE",
"389 600 CURVE SMOOTH",
"398 602 OFFCURVE",
"407 608 OFFCURVE",
"410 617 CURVE SMOOTH",
"413 625 OFFCURVE",
"416 635 OFFCURVE",
"412 642 CURVE",
"409 651 OFFCURVE",
"393 662 OFFCURVE",
"370 673 CURVE SMOOTH",
"342 687 OFFCURVE",
"295 693 OFFCURVE",
"270 693 CURVE SMOOTH",
"137 693 OFFCURVE",
"35 556 OFFCURVE",
"35 350 CURVE SMOOTH",
"35 134 OFFCURVE",
"133 -10 OFFCURVE",
"259 -10 CURVE SMOOTH"
);
}
);
width = 475;
},
{
anchors = (
{
name = bottom;
position = "{347, -2}";
},
{
name = top;
position = "{377, 700}";
}
);
layerId = "988D29BF-96E2-481F-8769-6B283BD5795A";
paths = (
{
closed = 1;
nodes = (
"461 -10 OFFCURVE",
"525 8 OFFCURVE",
"569 30 CURVE SMOOTH",
"607 49 OFFCURVE",
"628 66 OFFCURVE",
"628 82 CURVE SMOOTH",
"628 342 LINE SMOOTH",
"628 367 OFFCURVE",
"615 380 OFFCURVE",
"590 380 CURVE SMOOTH",
"358 380 LINE SMOOTH",
"336 380 OFFCURVE",
"328 372 OFFCURVE",
"328 349 CURVE SMOOTH",
"328 327 OFFCURVE",
"336 320 OFFCURVE",
"359 320 CURVE SMOOTH",
"568 320 LINE",
"568 91 LINE",
"518 65 OFFCURVE",
"456 50 OFFCURVE",
"401 50 CURVE SMOOTH",
"228 50 OFFCURVE",
"125 161 OFFCURVE",
"123 346 CURVE SMOOTH",
"125 526 OFFCURVE",
"229 632 OFFCURVE",
"404 632 CURVE SMOOTH",
"459 632 OFFCURVE",
"515 616 OFFCURVE",
"555 590 CURVE SMOOTH",
"574 578 OFFCURVE",
"586 571 OFFCURVE",
"589 571 CURVE SMOOTH",
"598 571 OFFCURVE",
"607 576 OFFCURVE",
"612 584 CURVE SMOOTH",
"617 592 OFFCURVE",
"620 602 OFFCURVE",
"618 609 CURVE",
"616 619 OFFCURVE",
"602 633 OFFCURVE",
"581 646 CURVE SMOOTH",
"534 676 OFFCURVE",
"470 693 OFFCURVE",
"408 693 CURVE SMOOTH",
"192 689 OFFCURVE",
"63 561 OFFCURVE",
"63 350 CURVE SMOOTH",
"63 124 OFFCURVE",
"187 -10 OFFCURVE",
"397 -10 CURVE SMOOTH"
);
}
);
width = 704;
},
{
anchors = (
{
name = bottom;
position = "{268, 0}";
},
{
name = top;
position = "{268, 700}";
}
);
layerId = "C221B64C-0844-4CE6-BA2A-18F986CD7755";
paths = (
{
closed = 1;
nodes = (
"333 -19 OFFCURVE",
"387 -3 OFFCURVE",
"432 20 CURVE SMOOTH",
"485 47 OFFCURVE",
"521 91 OFFCURVE",
"521 128 CURVE SMOOTH",
"521 333 LINE SMOOTH",
"521 383 OFFCURVE",
"489 418 OFFCURVE",
"442 420 CURVE",
"330 420 LINE SMOOTH",
"295 420 OFFCURVE",
"277 420 OFFCURVE",
"277 343 CURVE SMOOTH",
"277 265 OFFCURVE",
"290 265 OFFCURVE",
"327 265 CURVE SMOOTH",
"338 265 LINE",
"338 172 LINE",
"317 167 OFFCURVE",
"312 166 OFFCURVE",
"291 166 CURVE SMOOTH",
"237 166 OFFCURVE",
"218 239 OFFCURVE",
"218 349 CURVE SMOOTH",
"218 452 OFFCURVE",
"236 520 OFFCURVE",
"289 520 CURVE SMOOTH",
"317 520 OFFCURVE",
"332 509 OFFCURVE",
"359 492 CURVE SMOOTH",
"381 478 OFFCURVE",
"403 469 OFFCURVE",
"413 469 CURVE SMOOTH",
"435 469 OFFCURVE",
"465 490 OFFCURVE",
"487 522 CURVE SMOOTH",
"500 541 OFFCURVE",
"510 564 OFFCURVE",
"510 578 CURVE SMOOTH",
"510 597 OFFCURVE",
"488 625 OFFCURVE",
"454 648 CURVE SMOOTH",
"405 681 OFFCURVE",
"325 703 OFFCURVE",
"294 703 CURVE SMOOTH",
"129 703 OFFCURVE",
"35 562 OFFCURVE",
"35 351 CURVE SMOOTH",
"35 129 OFFCURVE",
"126 -19 OFFCURVE",
"287 -19 CURVE SMOOTH"
);
}
);
width = 569;
},
{
anchors = (
{
name = bottom;
position = "{514, 0}";
},
{
name = top;
position = "{514, 700}";
}
);
layerId = "F1D2FE0C-0290-44F9-97DF-753285E87900";
paths = (
{
closed = 1;
nodes = (
"668 -10 OFFCURVE",
"757 18 OFFCURVE",
"811 46 CURVE SMOOTH",
"846 64 OFFCURVE",
"870 86 OFFCURVE",
"870 102 CURVE SMOOTH",
"870 330 LINE SMOOTH",
"870 367 OFFCURVE",
"857 380 OFFCURVE",
"820 380 CURVE SMOOTH",
"450 380 LINE SMOOTH",
"432 380 OFFCURVE",
"420 368 OFFCURVE",
"420 349 CURVE SMOOTH",
"420 332 OFFCURVE",
"432 320 OFFCURVE",
"451 320 CURVE SMOOTH",
"810 320 LINE",
"810 111 LINE",
"751 80 OFFCURVE",
"664 50 OFFCURVE",
"493 50 CURVE SMOOTH",
"248 50 OFFCURVE",
"117 168 OFFCURVE",
"115 346 CURVE SMOOTH",
"113 518 OFFCURVE",
"245 632 OFFCURVE",
"496 632 CURVE SMOOTH",
"667 632 OFFCURVE",
"747 601 OFFCURVE",
"797 570 CURVE SMOOTH",
"815 559 OFFCURVE",
"829 551 OFFCURVE",
"831 551 CURVE SMOOTH",
"840 551 OFFCURVE",
"849 556 OFFCURVE",
"854 564 CURVE SMOOTH",
"859 573 OFFCURVE",
"862 583 OFFCURVE",
"860 589 CURVE",
"858 599 OFFCURVE",
"843 613 OFFCURVE",
"823 626 CURVE SMOOTH",
"767 662 OFFCURVE",
"677 694 OFFCURVE",
"500 693 CURVE SMOOTH",
"213 691 OFFCURVE",
"55 553 OFFCURVE",
"55 350 CURVE SMOOTH",
"55 134 OFFCURVE",
"209 -10 OFFCURVE",
"489 -10 CURVE SMOOTH"
);
}
);
width = 925;
},
{
anchors = (
{
name = bottom;
position = "{486, 0}";
},
{
name = top;
position = "{486, 700}";
}
);
layerId = "D56FD762-6887-41EE-B8AF-857F7388911F";
paths = (
{
closed = 1;
nodes = (
"653 -17 OFFCURVE",
"766 7 OFFCURVE",
"844 46 CURVE SMOOTH",
"902 75 OFFCURVE",
"941 120 OFFCURVE",
"941 158 CURVE SMOOTH",
"941 333 LINE SMOOTH",
"941 383 OFFCURVE",
"909 418 OFFCURVE",
"862 420 CURVE",
"533 420 LINE SMOOTH",
"498 420 OFFCURVE",
"460 420 OFFCURVE",
"460 343 CURVE SMOOTH",
"460 265 OFFCURVE",
"493 265 OFFCURVE",
"530 265 CURVE SMOOTH",
"758 265 LINE",
"758 199 LINE",
"707 179 OFFCURVE",
"630 167 OFFCURVE",
"511 166 CURVE SMOOTH",
"309 164 OFFCURVE",
"208 233 OFFCURVE",
"208 341 CURVE SMOOTH",
"208 445 OFFCURVE",
"308 517 OFFCURVE",
"509 520 CURVE SMOOTH",
"641 522 OFFCURVE",
"723 501 OFFCURVE",
"769 472 CURVE SMOOTH",
"791 458 OFFCURVE",
"812 449 OFFCURVE",
"823 449 CURVE SMOOTH",
"846 449 OFFCURVE",
"875 470 OFFCURVE",
"897 502 CURVE SMOOTH",
"911 522 OFFCURVE",
"920 544 OFFCURVE",
"920 558 CURVE SMOOTH",
"920 577 OFFCURVE",
"898 605 OFFCURVE",
"864 628 CURVE SMOOTH",
"797 673 OFFCURVE",
"679 705 OFFCURVE",
"514 703 CURVE SMOOTH",
"201 699 OFFCURVE",
"25 556 OFFCURVE",
"25 343 CURVE SMOOTH",
"25 123 OFFCURVE",
"198 -23 OFFCURVE",
"507 -19 CURVE SMOOTH"
);
}
);
width = 981;
}
);
note = G;
rightKerningGroup = d;
unicode = 0047;
},
{
glyphname = H;
layers = (
{
anchors = (
{
name = bottom;
position = "{325, 0}";
},
{
name = center;
position = "{325, 350}";
},
{
name = top;
position = "{325, 700}";
},
{
name = topleft;
position = "{20, 700}";
}
);
layerId = "05A6575B-AA27-4212-BC78-A0BDA398BBDE";
paths = (
{
closed = 1;
nodes = (
"622 -8 OFFCURVE",
"622 38 OFFCURVE",
"622 83 CURVE SMOOTH",
"622 599 LINE SMOOTH",
"622 644 OFFCURVE",
"622 691 OFFCURVE",
"531 691 CURVE SMOOTH",
"439 691 OFFCURVE",
"439 644 OFFCURVE",
"439 600 CURVE SMOOTH",
"439 84 LINE SMOOTH",
"439 39 OFFCURVE",
"439 -8 OFFCURVE",
"530 -8 CURVE SMOOTH"
);
},
{
closed = 1;
nodes = (
"211 -8 OFFCURVE",
"211 38 OFFCURVE",
"211 83 CURVE SMOOTH",
"211 599 LINE SMOOTH",
"211 644 OFFCURVE",
"211 691 OFFCURVE",
"120 691 CURVE SMOOTH",
"28 691 OFFCURVE",
"28 644 OFFCURVE",
"28 600 CURVE SMOOTH",
"28 84 LINE SMOOTH",
"28 39 OFFCURVE",
"28 -8 OFFCURVE",
"119 -8 CURVE SMOOTH"
);
},
{
closed = 1;
nodes = (
"455 263 LINE",
"455 419 LINE",
"195 419 LINE",
"195 263 LINE"
);
}
);
width = 650;
},
{
anchors = (
{
name = bottom;
position = "{237, 0}";
},
{
name = center;
position = "{237, 350}";
},
{
name = top;
position = "{237, 700}";
},
{
name = topleft;
position = "{40, 700}";
}
);
layerId = "4383C18A-60F2-4889-B7DB-EDD0F2222092";
paths = (
{
closed = 1;
nodes = (
"398 -11 OFFCURVE",
"408 -1 OFFCURVE",
"408 19 CURVE SMOOTH",
"408 656 LINE SMOOTH",
"408 676 OFFCURVE",
"398 687 OFFCURVE",
"379 687 CURVE SMOOTH",
"359 687 OFFCURVE",
"349 677 OFFCURVE",
"349 657 CURVE SMOOTH",
"349 20 LINE SMOOTH",
"349 0 OFFCURVE",
"359 -11 OFFCURVE",
"378 -11 CURVE SMOOTH"
);
},
{
closed = 1;
nodes = (
"114 -11 OFFCURVE",
"124 -1 OFFCURVE",
"124 19 CURVE SMOOTH",
"124 656 LINE SMOOTH",
"124 676 OFFCURVE",
"114 687 OFFCURVE",
"95 687 CURVE SMOOTH",
"75 687 OFFCURVE",
"65 677 OFFCURVE",
"65 657 CURVE SMOOTH",
"65 20 LINE SMOOTH",
"65 0 OFFCURVE",
"75 -11 OFFCURVE",
"94 -11 CURVE SMOOTH"
);
},
{
closed = 1;
nodes = (
"364 320 LINE",
"365 380 LINE",
"75 380 LINE",
"75 320 LINE"
);
}
);
width = 473;
},
{
anchors = (
{
name = bottom;
position = "{347, 0}";
},
{
name = center;
position = "{350, 350}";
},
{
name = top;
position = "{347, 700}";
},
{
name = topleft;
position = "{30, 700}";
}
);
layerId = "988D29BF-96E2-481F-8769-6B283BD5795A";
paths = (
{
closed = 1;
nodes = (
"603 -11 OFFCURVE",
"611 -3 OFFCURVE",
"611 19 CURVE SMOOTH",
"611 656 LINE SMOOTH",
"611 679 OFFCURVE",
"604 687 OFFCURVE",
"582 687 CURVE SMOOTH",
"560 687 OFFCURVE",
"552 679 OFFCURVE",
"552 657 CURVE SMOOTH",
"552 20 LINE SMOOTH",
"552 -3 OFFCURVE",
"559 -11 OFFCURVE",
"581 -11 CURVE SMOOTH"
);
},
{
closed = 1;
nodes = (
"139 -11 OFFCURVE",
"147 -3 OFFCURVE",
"147 19 CURVE SMOOTH",
"147 656 LINE SMOOTH",
"147 679 OFFCURVE",
"140 687 OFFCURVE",
"118 687 CURVE SMOOTH",
"96 687 OFFCURVE",
"88 679 OFFCURVE",
"88 657 CURVE SMOOTH",
"88 20 LINE SMOOTH",
"88 -3 OFFCURVE",
"95 -11 OFFCURVE",
"117 -11 CURVE SMOOTH"
);
},
{
closed = 1;
nodes = (
"567 320 LINE",
"568 380 LINE",
"98 380 LINE",
"98 320 LINE"
);
}
);
width = 699;
},
{
anchors = (
{
name = bottom;
position = "{272, 0}";
},
{
name = center;
position = "{252, 350}";
},
{
name = top;
position = "{272, 700}";
},
{
name = topleft;
position = "{20, 700}";
}
);
layerId = "C221B64C-0844-4CE6-BA2A-18F986CD7755";
paths = (
{
closed = 1;
nodes = (
"509 -8 OFFCURVE",
"509 38 OFFCURVE",
"509 83 CURVE SMOOTH",
"509 599 LINE SMOOTH",
"509 644 OFFCURVE",
"509 691 OFFCURVE",
"418 691 CURVE SMOOTH",
"326 691 OFFCURVE",
"326 644 OFFCURVE",
"326 600 CURVE SMOOTH",
"326 84 LINE SMOOTH",
"326 39 OFFCURVE",
"326 -8 OFFCURVE",
"417 -8 CURVE SMOOTH"
);
},
{
closed = 1;
nodes = (
"228 -8 OFFCURVE",
"228 38 OFFCURVE",
"228 83 CURVE SMOOTH",
"228 599 LINE SMOOTH",
"228 644 OFFCURVE",
"228 691 OFFCURVE",
"137 691 CURVE SMOOTH",
"45 691 OFFCURVE",
"45 644 OFFCURVE",
"45 600 CURVE SMOOTH",
"45 84 LINE SMOOTH",
"45 39 OFFCURVE",
"45 -8 OFFCURVE",
"136 -8 CURVE SMOOTH"
);
},
{
closed = 1;
nodes = (
"342 263 LINE",
"342 419 LINE",
"212 419 LINE",
"212 263 LINE"
);
}
);
width = 554;
},
{
anchors = (
{
name = bottom;
position = "{470, 0}";
},
{
name = center;
position = "{470, 350}";
},
{
name = top;
position = "{470, 700}";
},
{
name = topleft;
position = "{80, 700}";
}
);
layerId = "F1D2FE0C-0290-44F9-97DF-753285E87900";
paths = (
{
closed = 1;
nodes = (
"875 -11 OFFCURVE",
"883 -3 OFFCURVE",
"883 19 CURVE SMOOTH",
"883 656 LINE SMOOTH",
"883 679 OFFCURVE",
"876 687 OFFCURVE",
"854 687 CURVE SMOOTH",
"832 687 OFFCURVE",
"824 679 OFFCURVE",
"824 657 CURVE SMOOTH",
"824 20 LINE SMOOTH",
"824 -3 OFFCURVE",
"831 -11 OFFCURVE",
"853 -11 CURVE SMOOTH"
);
},
{
closed = 1;
nodes = (
"111 -11 OFFCURVE",
"119 -3 OFFCURVE",
"119 19 CURVE SMOOTH",
"119 656 LINE SMOOTH",
"119 679 OFFCURVE",
"112 687 OFFCURVE",
"90 687 CURVE SMOOTH",
"68 687 OFFCURVE",
"60 679 OFFCURVE",
"60 657 CURVE SMOOTH",
"60 20 LINE SMOOTH",
"60 -3 OFFCURVE",
"67 -11 OFFCURVE",
"89 -11 CURVE SMOOTH"
);
},
{
closed = 1;
nodes = (
"839 320 LINE",
"840 380 LINE",
"70 380 LINE",
"70 320 LINE"
);
}
);
width = 943;
},
{
anchors = (
{
name = bottom;
position = "{507, 0}";
},
{
name = center;
position = "{507, 350}";
},
{
name = top;
position = "{507, 700}";
},
{
name = topleft;
position = "{130, 700}";
}
);
layerId = "D56FD762-6887-41EE-B8AF-857F7388911F";
paths = (
{
closed = 1;
nodes = (
"949 -8 OFFCURVE",
"949 38 OFFCURVE",
"949 83 CURVE SMOOTH",
"949 599 LINE SMOOTH",
"949 644 OFFCURVE",
"949 691 OFFCURVE",
"858 691 CURVE SMOOTH",
"766 691 OFFCURVE",
"766 644 OFFCURVE",
"766 600 CURVE SMOOTH",
"766 84 LINE SMOOTH",
"766 39 OFFCURVE",
"766 -8 OFFCURVE",
"857 -8 CURVE SMOOTH"
);
},
{
closed = 1;
nodes = (
"238 -8 OFFCURVE",
"238 38 OFFCURVE",
"238 83 CURVE SMOOTH",
"238 599 LINE SMOOTH",
"238 644 OFFCURVE",
"238 691 OFFCURVE",
"147 691 CURVE SMOOTH",
"55 691 OFFCURVE",
"55 644 OFFCURVE",
"55 600 CURVE SMOOTH",
"55 84 LINE SMOOTH",
"55 39 OFFCURVE",
"55 -8 OFFCURVE",
"146 -8 CURVE SMOOTH"
);
},
{
closed = 1;
nodes = (
"782 263 LINE",
"782 419 LINE",
"222 419 LINE",
"222 263 LINE"
);
}
);
width = 1004;
}
);
note = H;
unicode = 0048;
},
{
glyphname = I;
layers = (
{
anchors = (
{
name = bottom;
position = "{120, 0}";
},
{
name = ogonek;
position = "{215, 10}";
},
{
name = top;
position = "{120, 700}";
},
{
name = topleft;
position = "{20, 700}";
}
);
layerId = "05A6575B-AA27-4212-BC78-A0BDA398BBDE";
paths = (
{
closed = 1;
nodes = (
"211 -9 OFFCURVE",
"211 37 OFFCURVE",
"211 82 CURVE SMOOTH",
"211 599 LINE SMOOTH",
"211 644 OFFCURVE",
"211 691 OFFCURVE",
"120 691 CURVE SMOOTH",
"28 691 OFFCURVE",
"28 644 OFFCURVE",
"28 600 CURVE SMOOTH",
"28 83 LINE SMOOTH",
"28 38 OFFCURVE",
"28 -9 OFFCURVE",
"119 -9 CURVE SMOOTH"
);
}
);
width = 239;
},
{
anchors = (
{
name = bottom;
position = "{85, 0}";
},
{
name = ogonek;
position = "{160, 10}";
},
{
name = top;
position = "{85, 700}";
},
{
name = topleft;
position = "{10, 700}";
}
);
layerId = "4383C18A-60F2-4889-B7DB-EDD0F2222092";
paths = (
{
closed = 1;
nodes = (
"104 -11 OFFCURVE",
"114 -1 OFFCURVE",
"114 19 CURVE SMOOTH",
"114 656 LINE SMOOTH",
"114 676 OFFCURVE",
"104 687 OFFCURVE",
"85 687 CURVE SMOOTH",
"65 687 OFFCURVE",
"55 677 OFFCURVE",
"55 657 CURVE SMOOTH",
"55 20 LINE SMOOTH",
"55 0 OFFCURVE",
"65 -11 OFFCURVE",
"84 -11 CURVE SMOOTH"
);
}
);
width = 169;
},
{
anchors = (
{
name = bottom;
position = "{100, 0}";
},
{
name = ogonek;
position = "{202, 10}";
},
{
name = top;
position = "{100, 700}";
},
{
name = topleft;
position = "{-9, 700}";
}
);
layerId = "988D29BF-96E2-481F-8769-6B283BD5795A";
paths = (
{
closed = 1;
nodes = (
"126 -11 OFFCURVE",
"134 -3 OFFCURVE",
"134 19 CURVE SMOOTH",
"134 656 LINE SMOOTH",
"134 679 OFFCURVE",
"127 687 OFFCURVE",
"105 687 CURVE SMOOTH",
"83 687 OFFCURVE",
"75 679 OFFCURVE",
"75 657 CURVE SMOOTH",
"75 20 LINE SMOOTH",
"75 -3 OFFCURVE",
"82 -11 OFFCURVE",
"104 -11 CURVE SMOOTH"
);
}
);
width = 209;
},
{
anchors = (
{
name = bottom;
position = "{137, 0}";
},
{
name = ogonek;
position = "{238, 10}";
},
{
name = top;
position = "{137, 700}";
},
{
name = topleft;
position = "{30, 700}";
}
);
layerId = "C221B64C-0844-4CE6-BA2A-18F986CD7755";
paths = (
{
closed = 1;
nodes = (
"228 -9 OFFCURVE",
"228 37 OFFCURVE",
"228 82 CURVE SMOOTH",
"228 599 LINE SMOOTH",
"228 644 OFFCURVE",
"228 691 OFFCURVE",
"137 691 CURVE SMOOTH",
"45 691 OFFCURVE",
"45 644 OFFCURVE",
"45 600 CURVE SMOOTH",
"45 83 LINE SMOOTH",
"45 38 OFFCURVE",
"45 -9 OFFCURVE",
"136 -9 CURVE SMOOTH"
);
}
);
width = 273;
},
{
anchors = (
{
name = bottom;
position = "{80, 0}";
},
{
name = ogonek;
position = "{202, 10}";
},
{
name = top;
position = "{80, 700}";
},
{
name = topleft;
position = "{-54, 700}";
}
);
layerId = "F1D2FE0C-0290-44F9-97DF-753285E87900";
paths = (
{
closed = 1;
nodes = (
"106 -11 OFFCURVE",
"114 -3 OFFCURVE",
"114 19 CURVE SMOOTH",
"114 656 LINE SMOOTH",
"114 679 OFFCURVE",
"107 687 OFFCURVE",
"85 687 CURVE SMOOTH",
"63 687 OFFCURVE",
"55 679 OFFCURVE",
"55 657 CURVE SMOOTH",
"55 20 LINE SMOOTH",
"55 -3 OFFCURVE",
"62 -11 OFFCURVE",
"84 -11 CURVE SMOOTH"
);
}
);
width = 169;
},
{
anchors = (
{
name = bottom;
position = "{170, 0}";
},
{
name = ogonek;
position = "{265, 10}";
},
{
name = top;
position = "{170, 700}";
},
{
name = topleft;
position = "{70, 700}";
}
);
layerId = "D56FD762-6887-41EE-B8AF-857F7388911F";
paths = (
{
closed = 1;
nodes = (
"261 -9 OFFCURVE",
"261 37 OFFCURVE",
"261 82 CURVE SMOOTH",
"261 599 LINE SMOOTH",
"261 644 OFFCURVE",
"261 691 OFFCURVE",
"170 691 CURVE SMOOTH",
"78 691 OFFCURVE",
"78 644 OFFCURVE",
"78 600 CURVE SMOOTH",
"78 83 LINE SMOOTH",
"78 38 OFFCURVE",
"78 -9 OFFCURVE",
"169 -9 CURVE SMOOTH"
);
}
);
width = 339;
}
);
leftKerningGroup = I;
note = I;
rightKerningGroup = d;
unicode = 0049;
},
{
glyphname = J;
layers = (
{
anchors = (
{
name = bottom;
position = "{266, 0}";
},
{
name = top;
position = "{406, 700}";
}
);
layerId = "05A6575B-AA27-4212-BC78-A0BDA398BBDE";
paths = (
{
closed = 1;
nodes = (
"377 -19 OFFCURVE",
"493 96 OFFCURVE",
"493 238 CURVE SMOOTH",
"493 598 LINE SMOOTH",
"493 642 OFFCURVE",
"490 691 OFFCURVE",
"403 691 CURVE SMOOTH",
"311 691 OFFCURVE",
"309 638 OFFCURVE",
"309 592 CURVE SMOOTH",
"309 245 LINE SMOOTH",
"309 198 OFFCURVE",
"280 166 OFFCURVE",
"237 166 CURVE SMOOTH",
"205 166 OFFCURVE",
"188 182 OFFCURVE",
"181 189 CURVE SMOOTH",
"163 207 OFFCURVE",
"141 227 OFFCURVE",
"115 227 CURVE SMOOTH",
"94 227 OFFCURVE",
"73 215 OFFCURVE",
"50 191 CURVE SMOOTH",
"26 166 OFFCURVE",
"15 144 OFFCURVE",
"15 123 CURVE SMOOTH",
"15 98 OFFCURVE",
"32 79 OFFCURVE",
"50 61 CURVE",
"50 61 OFFCURVE",
"119 -19 OFFCURVE",
"232 -19 CURVE SMOOTH"
);
}
);
width = 531;
},
{
anchors = (
{
name = bottom;
position = "{169, 0}";
},
{
name = top;
position = "{169, 700}";
}
);
layerId = "4383C18A-60F2-4889-B7DB-EDD0F2222092";
paths = (
{
closed = 1;
nodes = (
"247 -11 OFFCURVE",
"272 93 OFFCURVE",
"272 206 CURVE SMOOTH",
"272 656 LINE SMOOTH",
"272 679 OFFCURVE",
"265 687 OFFCURVE",
"245 687 CURVE SMOOTH",
"221 687 OFFCURVE",
"213 677 OFFCURVE",
"213 649 CURVE SMOOTH",
"213 216 LINE SMOOTH",
"213 135 OFFCURVE",
"206 45 OFFCURVE",
"157 45 CURVE SMOOTH",
"134 45 OFFCURVE",
"118 53 OFFCURVE",
"104 61 CURVE SMOOTH",
"78 76 OFFCURVE",
"73 83 OFFCURVE",
"62 83 CURVE SMOOTH",
"52 83 OFFCURVE",
"48 80 OFFCURVE",
"40 69 CURVE SMOOTH",
"36 64 OFFCURVE",
"31 51 OFFCURVE",
"32 43 CURVE SMOOTH",
"33 36 OFFCURVE",
"44 28 OFFCURVE",
"61 17 CURVE SMOOTH",
"84 2 OFFCURVE",
"115 -11 OFFCURVE",
"153 -11 CURVE SMOOTH"
);
}
);
width = 327;
},
{
anchors = (
{
name = bottom;
position = "{275, 0}";
},
{
name = top;
position = "{265, 700}";
}
);
layerId = "988D29BF-96E2-481F-8769-6B283BD5795A";
paths = (
{
closed = 1;
nodes = (
"394 -11 OFFCURVE",
"458 83 OFFCURVE",
"458 225 CURVE SMOOTH",
"458 656 LINE SMOOTH",
"458 679 OFFCURVE",
"451 687 OFFCURVE",
"431 687 CURVE SMOOTH",
"407 687 OFFCURVE",
"399 677 OFFCURVE",
"399 649 CURVE SMOOTH",
"399 233 LINE SMOOTH",
"399 126 OFFCURVE",
"356 45 OFFCURVE",
"253 45 CURVE SMOOTH",
"199 45 OFFCURVE",
"151 74 OFFCURVE",
"128 93 CURVE SMOOTH",
"103 114 OFFCURVE",
"100 126 OFFCURVE",
"86 126 CURVE SMOOTH",
"79 126 OFFCURVE",
"75 125 OFFCURVE",
"63 113 CURVE SMOOTH",
"59 109 OFFCURVE",
"50 98 OFFCURVE",
"50 90 CURVE SMOOTH",
"50 83 OFFCURVE",
"59 74 OFFCURVE",
"72 61 CURVE SMOOTH",
"115 18 OFFCURVE",
"181 -11 OFFCURVE",
"249 -11 CURVE SMOOTH"
);
}
);
width = 549;
},
{
anchors = (
{
name = bottom;
position = "{249, 0}";
},
{
name = top;
position = "{249, 700}";
}
);
layerId = "C221B64C-0844-4CE6-BA2A-18F986CD7755";
paths = (
{
closed = 1;
nodes = (
"347 -19 OFFCURVE",
"443 76 OFFCURVE",
"443 218 CURVE SMOOTH",
"443 598 LINE SMOOTH",
"443 642 OFFCURVE",
"440 691 OFFCURVE",
"353 691 CURVE SMOOTH",
"261 691 OFFCURVE",
"259 638 OFFCURVE",
"259 592 CURVE SMOOTH",
"259 225 LINE SMOOTH",
"259 178 OFFCURVE",
"250 166 OFFCURVE",
"234 166 CURVE SMOOTH",
"210 166 OFFCURVE",
"193 182 OFFCURVE",
"186 189 CURVE SMOOTH",
"161 214 OFFCURVE",
"151 227 OFFCURVE",
"125 227 CURVE SMOOTH",
"104 227 OFFCURVE",
"83 215 OFFCURVE",
"60 191 CURVE SMOOTH",
"36 166 OFFCURVE",
"25 144 OFFCURVE",
"25 123 CURVE SMOOTH",
"25 98 OFFCURVE",
"42 79 OFFCURVE",
"60 61 CURVE",
"60 61 OFFCURVE",
"129 -19 OFFCURVE",
"222 -19 CURVE SMOOTH"
);
}
);
width = 498;
},
{
anchors = (
{
name = bottom;
position = "{383, 0}";
},
{
name = top;
position = "{383, 700}";
}
);
layerId = "F1D2FE0C-0290-44F9-97DF-753285E87900";
paths = (
{
closed = 1;
nodes = (
"590 -11 OFFCURVE",
"734 103 OFFCURVE",
"734 245 CURVE SMOOTH",
"734 656 LINE SMOOTH",
"734 679 OFFCURVE",
"727 687 OFFCURVE",
"707 687 CURVE SMOOTH",
"683 687 OFFCURVE",
"675 677 OFFCURVE",
"675 649 CURVE SMOOTH",
"675 246 LINE SMOOTH",
"675 133 OFFCURVE",
"557 44 OFFCURVE",
"369 44 CURVE SMOOTH",
"229 44 OFFCURVE",
"139 104 OFFCURVE",
"94 142 CURVE SMOOTH",
"68 164 OFFCURVE",
"65 177 OFFCURVE",
"51 177 CURVE SMOOTH",
"44 177 OFFCURVE",
"40 176 OFFCURVE",
"28 164 CURVE SMOOTH",
"24 160 OFFCURVE",
"15 149 OFFCURVE",
"15 141 CURVE SMOOTH",
"15 134 OFFCURVE",
"24 125 OFFCURVE",
"37 112 CURVE SMOOTH",
"80 69 OFFCURVE",
"177 -11 OFFCURVE",
"365 -11 CURVE SMOOTH"
);
}
);
width = 784;
},
{
anchors = (
{
name = bottom;
position = "{474, 0}";
},
{
name = top;
position = "{474, 700}";
}
);
layerId = "D56FD762-6887-41EE-B8AF-857F7388911F";
paths = (
{
closed = 1;
nodes = (
"619 -19 OFFCURVE",
"813 94 OFFCURVE",
"813 248 CURVE SMOOTH",
"813 598 LINE SMOOTH",
"813 642 OFFCURVE",
"810 691 OFFCURVE",
"723 691 CURVE SMOOTH",
"631 691 OFFCURVE",
"629 638 OFFCURVE",
"629 592 CURVE SMOOTH",
"629 255 LINE SMOOTH",
"629 208 OFFCURVE",
"510 166 OFFCURVE",
"407 166 CURVE SMOOTH",
"289 166 OFFCURVE",
"223 187 OFFCURVE",
"191 219 CURVE SMOOTH",
"168 242 OFFCURVE",
"142 257 OFFCURVE",
"125 257 CURVE SMOOTH",
"107 257 OFFCURVE",
"81 243 OFFCURVE",
"60 221 CURVE SMOOTH",
"39 199 OFFCURVE",
"25 172 OFFCURVE",
"25 153 CURVE SMOOTH",
"25 137 OFFCURVE",
"39 112 OFFCURVE",
"60 91 CURVE",
"126 25 OFFCURVE",
"243 -19 OFFCURVE",
"402 -19 CURVE SMOOTH"
);
}
);
width = 868;
}
);
note = J;
rightKerningGroup = d;
unicode = 004A;
},
{
glyphname = K;
layers = (
{
anchors = (
{
name = bottom;
position = "{309, 0}";
},
{
name = top;
position = "{309, 700}";
}
);
layerId = "05A6575B-AA27-4212-BC78-A0BDA398BBDE";
paths = (
{
closed = 1;
nodes = (
"223 -9 OFFCURVE",
"223 37 OFFCURVE",
"223 82 CURVE SMOOTH",
"223 223 LINE",
"398 24 LINE SMOOTH",
"442 -28 OFFCURVE",
"468 -35 OFFCURVE",
"528 13 CURVE SMOOTH",
"583 58 OFFCURVE",
"586 94 OFFCURVE",
"537 143 CURVE SMOOTH",
"340 340 LINE",
"536 540 LINE SMOOTH",
"581 588 OFFCURVE",
"582 620 OFFCURVE",
"527 669 CURVE SMOOTH",
"476 716 OFFCURVE",
"442 710 OFFCURVE",
"397 660 CURVE SMOOTH",
"223 461 LINE",
"223 599 LINE SMOOTH",
"223 644 OFFCURVE",
"223 691 OFFCURVE",
"132 691 CURVE SMOOTH",
"40 691 OFFCURVE",
"40 644 OFFCURVE",
"40 600 CURVE SMOOTH",
"40 83 LINE SMOOTH",
"40 38 OFFCURVE",
"40 -9 OFFCURVE",
"131 -9 CURVE SMOOTH"
);
}
);
width = 597;
},
{
anchors = (
{
name = bottom;
position = "{177, 0}";
},
{
name = top;
position = "{177, 700}";
}
);
layerId = "4383C18A-60F2-4889-B7DB-EDD0F2222092";
paths = (
{
closed = 1;
nodes = (
"117 -11 OFFCURVE",
"125 -4 OFFCURVE",
"125 18 CURVE SMOOTH",
"125 293 LINE",
"263 2 LINE SMOOTH",
"273 -19 OFFCURVE",
"287 -16 OFFCURVE",
"305 -2 CURVE SMOOTH",
"324 13 OFFCURVE",
"317 19 OFFCURVE",
"307 40 CURVE SMOOTH",
"159 345 LINE",
"297 631 LINE SMOOTH",
"307 651 OFFCURVE",
"314 657 OFFCURVE",
"295 673 CURVE SMOOTH",
"278 688 OFFCURVE",
"263 690 OFFCURVE",
"253 669 CURVE SMOOTH",
"125 396 LINE",
"125 657 LINE SMOOTH",
"125 679 OFFCURVE",
"117 687 OFFCURVE",
"95 687 CURVE SMOOTH",
"73 687 OFFCURVE",
"65 680 OFFCURVE",
"65 658 CURVE SMOOTH",
"65 19 LINE SMOOTH",
"65 -3 OFFCURVE",
"72 -11 OFFCURVE",
"94 -11 CURVE SMOOTH"
);
}
);
width = 357;
},
{
anchors = (
{
name = bottom;
position = "{305, 0}";
},
{
name = top;
position = "{305, 700}";
}
);
layerId = "988D29BF-96E2-481F-8769-6B283BD5795A";
paths = (
{
closed = 1;
nodes = (
"131 -11 OFFCURVE",
"139 -4 OFFCURVE",
"139 18 CURVE SMOOTH",
"139 298 LINE",
"479 -3 LINE SMOOTH",
"497 -19 OFFCURVE",
"506 -17 OFFCURVE",
"521 -1 CURVE SMOOTH",
"537 16 OFFCURVE",
"535 26 OFFCURVE",
"518 41 CURVE SMOOTH",
"181 340 LINE",
"513 634 LINE SMOOTH",
"530 649 OFFCURVE",
"532 659 OFFCURVE",
"516 676 CURVE SMOOTH",
"501 692 OFFCURVE",
"491 693 OFFCURVE",
"474 678 CURVE SMOOTH",
"139 381 LINE",
"139 657 LINE SMOOTH",
"139 679 OFFCURVE",
"131 687 OFFCURVE",
"109 687 CURVE SMOOTH",
"87 687 OFFCURVE",
"79 680 OFFCURVE",
"79 658 CURVE SMOOTH",
"79 19 LINE SMOOTH",
"79 -3 OFFCURVE",
"86 -11 OFFCURVE",
"108 -11 CURVE SMOOTH"
);
}
);
width = 589;
},
{
anchors = (
{
name = bottom;
position = "{268, 0}";
},
{
name = top;
position = "{268, 700}";
}
);
layerId = "C221B64C-0844-4CE6-BA2A-18F986CD7755";
paths = (
{
closed = 1;
nodes = (
"228 -9 OFFCURVE",
"228 37 OFFCURVE",
"228 82 CURVE SMOOTH",
"228 197 LINE",
"325 46 LINE SMOOTH",
"361 -9 OFFCURVE",
"389 -21 OFFCURVE",
"452 18 CURVE SMOOTH",
"512 56 OFFCURVE",
"519 91 OFFCURVE",
"480 144 CURVE SMOOTH",
"333 346 LINE",
"480 537 LINE SMOOTH",
"518 589 OFFCURVE",
"514 624 OFFCURVE",
"452 663 CURVE SMOOTH",
"391 701 OFFCURVE",
"362 692 OFFCURVE",
"325 635 CURVE SMOOTH",
"228 486 LINE",
"228 599 LINE SMOOTH",
"228 644 OFFCURVE",
"228 691 OFFCURVE",
"137 691 CURVE SMOOTH",
"45 691 OFFCURVE",
"45 644 OFFCURVE",
"45 600 CURVE SMOOTH",
"45 83 LINE SMOOTH",
"45 38 OFFCURVE",
"45 -9 OFFCURVE",
"136 -9 CURVE SMOOTH"
);
}
);
width = 530;
},
{
anchors = (
{
name = bottom;
position = "{489, 0}";
},
{
name = top;
position = "{489, 700}";
}
);
layerId = "F1D2FE0C-0290-44F9-97DF-753285E87900";
paths = (
{
closed = 1;
nodes = (
"107 -11 OFFCURVE",
"115 -4 OFFCURVE",
"115 18 CURVE SMOOTH",
"115 301 LINE",
"777 -7 LINE SMOOTH",
"797 -16 OFFCURVE",
"806 -14 OFFCURVE",
"817 5 CURVE SMOOTH",
"828 24 OFFCURVE",
"824 36 OFFCURVE",
"804 45 CURVE SMOOTH",
"170 337 LINE",
"804 630 LINE SMOOTH",
"824 639 OFFCURVE",
"828 651 OFFCURVE",
"817 670 CURVE SMOOTH",
"806 689 OFFCURVE",
"796 691 OFFCURVE",
"777 682 CURVE SMOOTH",
"115 375 LINE",
"115 657 LINE SMOOTH",
"115 679 OFFCURVE",
"107 687 OFFCURVE",
"85 687 CURVE SMOOTH",
"63 687 OFFCURVE",
"55 680 OFFCURVE",
"55 658 CURVE SMOOTH",
"55 19 LINE SMOOTH",
"55 -3 OFFCURVE",
"62 -11 OFFCURVE",
"84 -11 CURVE SMOOTH"
);
}
);
width = 868;
},
{
anchors = (
{
name = bottom;
position = "{424, 0}";
},
{
name = top;
position = "{424, 700}";
}
);
layerId = "D56FD762-6887-41EE-B8AF-857F7388911F";
paths = (
{
closed = 1;
nodes = (
"238 -9 OFFCURVE",
"238 37 OFFCURVE",
"238 82 CURVE SMOOTH",
"238 260 LINE",
"737 8 LINE SMOOTH",
"800 -24 OFFCURVE",
"821 -30 OFFCURVE",
"865 34 CURVE SMOOTH",
"905 93 OFFCURVE",
"894 124 OFFCURVE",
"838 161 CURVE",
"410 351 LINE",
"837 518 LINE SMOOTH",
"898 542 OFFCURVE",
"908 578 OFFCURVE",
"871 643 CURVE SMOOTH",
"835 706 OFFCURVE",
"808 704 OFFCURVE",
"746 677 CURVE SMOOTH",
"238 457 LINE",
"238 599 LINE SMOOTH",
"238 644 OFFCURVE",
"238 691 OFFCURVE",
"147 691 CURVE SMOOTH",
"55 691 OFFCURVE",
"55 644 OFFCURVE",
"55 600 CURVE SMOOTH",
"55 83 LINE SMOOTH",
"55 38 OFFCURVE",
"55 -9 OFFCURVE",
"146 -9 CURVE SMOOTH"
);
}
);
width = 928;
}
);
note = K;
rightKerningGroup = d;
unicode = 004B;
},
{
glyphname = L;
layers = (
{
anchors = (
{
name = bottom;
position = "{295, 0}";
},
{
name = center;
position = "{295, 350}";
},
{
name = top;
position = "{295, 700}";
},
{
name = topright;
position = "{548, 700}";
}
);
layerId = "05A6575B-AA27-4212-BC78-A0BDA398BBDE";
paths = (
{
closed = 1;
nodes = (
"476 -9 LINE SMOOTH",
"513 -9 OFFCURVE",
"554 -8 OFFCURVE",
"554 69 CURVE SMOOTH",
"554 147 OFFCURVE",
"514 147 OFFCURVE",
"477 147 CURVE SMOOTH",
"233 147 LINE",
"233 599 LINE SMOOTH",
"233 644 OFFCURVE",
"233 691 OFFCURVE",
"142 691 CURVE SMOOTH",
"50 691 OFFCURVE",
"50 644 OFFCURVE",
"50 600 CURVE SMOOTH",
"50 83 LINE SMOOTH",
"50 38 OFFCURVE",
"50 -9 OFFCURVE",
"141 -9 CURVE SMOOTH"
);
}
);
width = 569;
},
{
anchors = (
{
name = bottom;
position = "{187, 0}";
},
{
name = center;
position = "{187, 350}";
},
{
name = top;
position = "{187, 700}";
},
{
name = topright;
position = "{314, 700}";
}
);
layerId = "4383C18A-60F2-4889-B7DB-EDD0F2222092";
paths = (
{
closed = 1;
nodes = (
"291 -11 LINE SMOOTH",
"312 -11 OFFCURVE",
"319 -3 OFFCURVE",
"319 20 CURVE SMOOTH",
"319 42 OFFCURVE",
"311 49 OFFCURVE",
"289 49 CURVE SMOOTH",
"124 49 LINE",
"124 657 LINE",
"124 679 OFFCURVE",
"116 687 OFFCURVE",
"94 687 CURVE SMOOTH",
"72 687 OFFCURVE",
"65 679 OFFCURVE",
"65 656 CURVE SMOOTH",
"65 19 LINE SMOOTH",
"65 -3 OFFCURVE",
"73 -11 OFFCURVE",
"97 -11 CURVE SMOOTH"
);
}
);
width = 354;
},
{
anchors = (
{
name = bottom;
position = "{274, -3}";
},
{
name = center;
position = "{274, 365}";
},
{
name = top;
position = "{104, 700}";
},
{
name = topright;
position = "{561, 700}";
}
);
layerId = "988D29BF-96E2-481F-8769-6B283BD5795A";
paths = (
{
closed = 1;
nodes = (
"496 -11 LINE SMOOTH",
"517 -11 OFFCURVE",
"524 -3 OFFCURVE",
"524 20 CURVE SMOOTH",
"524 42 OFFCURVE",
"516 49 OFFCURVE",
"494 49 CURVE SMOOTH",
"129 49 LINE",
"129 657 LINE",
"129 679 OFFCURVE",
"121 687 OFFCURVE",
"99 687 CURVE SMOOTH",
"77 687 OFFCURVE",
"70 679 OFFCURVE",
"70 656 CURVE SMOOTH",
"70 19 LINE SMOOTH",
"70 -3 OFFCURVE",
"78 -11 OFFCURVE",
"102 -11 CURVE SMOOTH"
);
}
);
width = 554;
},
{
anchors = (
{
name = bottom;
position = "{251, 0}";
},
{
name = center;
position = "{251, 350}";
},
{
name = top;
position = "{251, 700}";
},
{
name = topright;
position = "{464, 700}";
}
);
layerId = "C221B64C-0844-4CE6-BA2A-18F986CD7755";
paths = (
{
closed = 1;
nodes = (
"381 -9 LINE SMOOTH",
"418 -9 OFFCURVE",
"459 -8 OFFCURVE",
"459 69 CURVE SMOOTH",
"459 147 OFFCURVE",
"419 147 OFFCURVE",
"382 147 CURVE SMOOTH",
"228 147 LINE",
"228 599 LINE SMOOTH",
"228 644 OFFCURVE",
"228 691 OFFCURVE",
"137 691 CURVE SMOOTH",
"45 691 OFFCURVE",
"45 644 OFFCURVE",
"45 600 CURVE SMOOTH",
"45 83 LINE SMOOTH",
"45 38 OFFCURVE",
"45 -9 OFFCURVE",
"136 -9 CURVE SMOOTH"
);
}
);
width = 484;
},
{
anchors = (
{
name = bottom;
position = "{435, 0}";
},
{
name = center;
position = "{435, 350}";
},
{
name = top;
position = "{435, 700}";
},
{
name = topright;
position = "{839, 700}";
}
);
layerId = "F1D2FE0C-0290-44F9-97DF-753285E87900";
paths = (
{
closed = 1;
nodes = (
"781 -11 LINE SMOOTH",
"802 -11 OFFCURVE",
"809 -3 OFFCURVE",
"809 20 CURVE SMOOTH",
"809 42 OFFCURVE",
"801 49 OFFCURVE",
"779 49 CURVE SMOOTH",
"114 49 LINE",
"114 657 LINE",
"114 679 OFFCURVE",
"106 687 OFFCURVE",
"84 687 CURVE SMOOTH",
"62 687 OFFCURVE",
"55 679 OFFCURVE",
"55 656 CURVE SMOOTH",
"55 19 LINE SMOOTH",
"55 -3 OFFCURVE",
"63 -11 OFFCURVE",
"87 -11 CURVE SMOOTH"
);
}
);
width = 839;
},
{
anchors = (
{
name = bottom;
position = "{507, 0}";
},
{
name = center;
position = "{507, 350}";
},
{
name = top;
position = "{507, 700}";
},
{
name = topright;
position = "{864, 700}";
}
);
layerId = "D56FD762-6887-41EE-B8AF-857F7388911F";
paths = (
{
closed = 1;
nodes = (
"781 -9 LINE SMOOTH",
"818 -9 OFFCURVE",
"859 -8 OFFCURVE",
"859 69 CURVE SMOOTH",
"859 147 OFFCURVE",
"819 147 OFFCURVE",
"782 147 CURVE SMOOTH",
"238 147 LINE",
"238 599 LINE SMOOTH",
"238 644 OFFCURVE",
"238 691 OFFCURVE",
"147 691 CURVE SMOOTH",
"55 691 OFFCURVE",
"55 644 OFFCURVE",
"55 600 CURVE SMOOTH",
"55 83 LINE SMOOTH",
"55 38 OFFCURVE",
"55 -9 OFFCURVE",
"146 -9 CURVE SMOOTH"
);
}
);
width = 884;
}
);
note = L;
rightKerningGroup = L;
unicode = 004C;
},
{
glyphname = Lslash;
layers = (
{
components = (
{
name = L;
transform = "{1, 0, 0, 1, 80, 0}";
}
);
layerId = "05A6575B-AA27-4212-BC78-A0BDA398BBDE";
paths = (
{
closed = 1;
nodes = (
"389 334 LINE SMOOTH",
"433 347 OFFCURVE",
"444 369 OFFCURVE",
"435 418 CURVE SMOOTH",
"422 464 OFFCURVE",
"401 477 OFFCURVE",
"352 466 CURVE SMOOTH",
"66 386 LINE SMOOTH",
"19 374 OFFCURVE",
"7 352 OFFCURVE",
"19 302 CURVE SMOOTH",
"34 250 OFFCURVE",
"56 238 OFFCURVE",
"103 253 CURVE SMOOTH"
);
}
);
width = 659;
},
{
components = (
{
name = L;
transform = "{1, 0, 0, 1, 60, 0}";
}
);
layerId = "4383C18A-60F2-4889-B7DB-EDD0F2222092";
paths = (
{
closed = 1;
nodes = (
"283 308 LINE SMOOTH",
"303 315 OFFCURVE",
"309 325 OFFCURVE",
"301 346 CURVE SMOOTH",
"293 368 OFFCURVE",
"285 373 OFFCURVE",
"265 366 CURVE SMOOTH",
"45 287 LINE SMOOTH",
"24 279 OFFCURVE",
"21 270 OFFCURVE",
"28 248 CURVE SMOOTH",
"35 227 OFFCURVE",
"46 223 OFFCURVE",
"66 230 CURVE SMOOTH"
);
}
);
width = 404;
},
{
components = (
{
name = L;
transform = "{1, 0, 0, 1, 50, 0}";
}
);
layerId = "988D29BF-96E2-481F-8769-6B283BD5795A";
paths = (
{
closed = 1;
nodes = (
"313 320 LINE SMOOTH",
"333 327 OFFCURVE",
"339 337 OFFCURVE",
"331 358 CURVE SMOOTH",
"323 380 OFFCURVE",
"315 385 OFFCURVE",
"295 378 CURVE SMOOTH",
"35 287 LINE SMOOTH",
"14 280 OFFCURVE",
"11 270 OFFCURVE",
"18 248 CURVE SMOOTH",
"25 227 OFFCURVE",
"36 223 OFFCURVE",
"56 230 CURVE SMOOTH"
);
}
);
width = 599;
},
{
components = (
{
name = L;
transform = "{1, 0, 0, 1, 70, 0}";
}
);
layerId = "C221B64C-0844-4CE6-BA2A-18F986CD7755";
paths = (
{
closed = 1;
nodes = (
"339 314 LINE SMOOTH",
"384 326 OFFCURVE",
"394 349 OFFCURVE",
"385 398 CURVE SMOOTH",
"376 445 OFFCURVE",
"351 459 OFFCURVE",
"302 446 CURVE SMOOTH",
"76 386 LINE SMOOTH",
"29 374 OFFCURVE",
"17 352 OFFCURVE",
"29 302 CURVE SMOOTH",
"42 249 OFFCURVE",
"65 240 OFFCURVE",
"113 253 CURVE SMOOTH"
);
}
);
width = 557;
},
{
components = (
{
name = L;
transform = "{1, 0, 0, 1, 90, 0}";
}
);
layerId = "F1D2FE0C-0290-44F9-97DF-753285E87900";
paths = (
{
closed = 1;
nodes = (
"390 342 LINE SMOOTH",
"410 349 OFFCURVE",
"416 359 OFFCURVE",
"408 380 CURVE SMOOTH",
"400 402 OFFCURVE",
"392 407 OFFCURVE",
"372 400 CURVE SMOOTH",
"45 287 LINE SMOOTH",
"24 280 OFFCURVE",
"21 270 OFFCURVE",
"28 248 CURVE SMOOTH",
"35 227 OFFCURVE",
"46 223 OFFCURVE",
"66 230 CURVE SMOOTH"
);
}
);
width = 924;
},
{
components = (
{
name = L;
transform = "{1, 0, 0, 1, 160, 0}";
}
);
layerId = "D56FD762-6887-41EE-B8AF-857F7388911F";
paths = (
{
closed = 1;
nodes = (
"567 338 LINE SMOOTH",
"612 351 OFFCURVE",
"622 373 OFFCURVE",
"613 422 CURVE SMOOTH",
"604 469 OFFCURVE",
"579 484 OFFCURVE",
"530 470 CURVE SMOOTH",
"76 341 LINE SMOOTH",
"30 328 OFFCURVE",
"17 307 OFFCURVE",
"29 257 CURVE SMOOTH",
"42 204 OFFCURVE",
"65 194 OFFCURVE",
"113 208 CURVE SMOOTH"
);
}
);
width = 1044;
}
);
note = Lslash;
rightKerningGroup = L;
unicode = 0141;
},
{
glyphname = M;
layers = (
{
anchors = (
{
name = bottom;
position = "{405, 0}";
},
{
name = top;
position = "{405, 700}";
}
);
layerId = "05A6575B-AA27-4212-BC78-A0BDA398BBDE";
paths = (
{
closed = 1;
nodes = (
"210 -8 OFFCURVE",
"210 37 OFFCURVE",
"210 82 CURVE SMOOTH",
"210 367 LINE",
"326 209 LINE",
"334 197 OFFCURVE",
"350 168 OFFCURVE",
"404 168 CURVE SMOOTH",
"458 168 OFFCURVE",
"472 199 OFFCURVE",
"481 209 CURVE",
"598 368 LINE",
"598 84 LINE SMOOTH",
"598 39 OFFCURVE",
"598 -8 OFFCURVE",
"689 -8 CURVE SMOOTH",
"780 -8 OFFCURVE",
"781 37 OFFCURVE",
"781 82 CURVE SMOOTH",
"781 598 LINE SMOOTH",
"781 644 OFFCURVE",
"780 690 OFFCURVE",
"690 690 CURVE SMOOTH",
"635 690 OFFCURVE",
"626 682 OFFCURVE",
"607 661 CURVE",
"401 396 LINE",
"407 396 LINE",
"200 662 LINE",
"185 677 OFFCURVE",
"182 690 OFFCURVE",
"120 690 CURVE SMOOTH",
"28 690 OFFCURVE",
"28 644 OFFCURVE",
"28 600 CURVE SMOOTH",
"28 84 LINE SMOOTH",
"28 37 OFFCURVE",
"29 -8 OFFCURVE",
"118 -8 CURVE SMOOTH"
);
}
);
width = 809;
},
{
anchors = (
{
name = bottom;
position = "{280, 0}";
},
{
name = top;
position = "{280, 700}";
}
);
layerId = "4383C18A-60F2-4889-B7DB-EDD0F2222092";
paths = (
{
closed = 1;
nodes = (
"114 -11 OFFCURVE",
"124 -1 OFFCURVE",
"124 18 CURVE SMOOTH",
"124 574 LINE",
"259 230 LINE SMOOTH",
"264 218 OFFCURVE",
"274 214 OFFCURVE",
"286 214 CURVE SMOOTH",
"297 214 OFFCURVE",
"309 217 OFFCURVE",
"313 228 CURVE SMOOTH",
"449 574 LINE",
"449 20 LINE SMOOTH",
"449 0 OFFCURVE",
"459 -11 OFFCURVE",
"478 -11 CURVE SMOOTH",
"498 -11 OFFCURVE",
"509 -1 OFFCURVE",
"509 18 CURVE SMOOTH",
"509 656 LINE SMOOTH",
"509 676 OFFCURVE",
"499 687 OFFCURVE",
"480 687 CURVE SMOOTH",
"461 687 OFFCURVE",
"443 684 OFFCURVE",
"438 672 CURVE SMOOTH",
"262 237 LINE",
"311 237 LINE",
"138 668 LINE SMOOTH",
"132 683 OFFCURVE",
"116 687 OFFCURVE",
"96 687 CURVE SMOOTH",
"76 687 OFFCURVE",
"65 677 OFFCURVE",
"65 658 CURVE SMOOTH",
"65 20 LINE SMOOTH",
"65 0 OFFCURVE",
"75 -11 OFFCURVE",
"94 -11 CURVE SMOOTH"
);
}
);
width = 574;
},
{
anchors = (
{
name = bottom;
position = "{435, -3}";
},
{
name = top;
position = "{401, 700}";
}
);
layerId = "988D29BF-96E2-481F-8769-6B283BD5795A";
paths = (
{
closed = 1;
nodes = (
"132 -11 OFFCURVE",
"142 -1 OFFCURVE",
"142 18 CURVE SMOOTH",
"142 594 LINE",
"387 229 LINE",
"398 217 OFFCURVE",
"402 214 OFFCURVE",
"414 214 CURVE SMOOTH",
"425 214 OFFCURVE",
"435 219 OFFCURVE",
"441 227 CURVE",
"687 594 LINE",
"687 20 LINE SMOOTH",
"687 0 OFFCURVE",
"697 -11 OFFCURVE",
"716 -11 CURVE SMOOTH",
"736 -11 OFFCURVE",
"747 -1 OFFCURVE",
"747 18 CURVE SMOOTH",
"747 656 LINE SMOOTH",
"747 676 OFFCURVE",
"736 687 OFFCURVE",
"717 687 CURVE SMOOTH",
"698 687 OFFCURVE",
"686 687 OFFCURVE",
"678 677 CURVE",
"394 257 LINE",
"434 257 LINE",
"154 673 LINE",
"144 684 OFFCURVE",
"134 687 OFFCURVE",
"114 687 CURVE SMOOTH",
"94 687 OFFCURVE",
"83 677 OFFCURVE",
"83 658 CURVE SMOOTH",
"83 20 LINE SMOOTH",
"83 0 OFFCURVE",
"93 -11 OFFCURVE",
"112 -11 CURVE SMOOTH"
);
}
);
width = 830;
},
{
anchors = (
{
name = bottom;
position = "{377, 0}";
},
{
name = top;
position = "{377, 700}";
}
);
layerId = "C221B64C-0844-4CE6-BA2A-18F986CD7755";
paths = (
{
closed = 1;
nodes = (
"217 -8 OFFCURVE",
"217 37 OFFCURVE",
"217 82 CURVE SMOOTH",
"217 358 LINE",
"298 209 LINE SMOOTH",
"309 188 OFFCURVE",
"322 168 OFFCURVE",
"376 168 CURVE SMOOTH",
"430 168 OFFCURVE",
"442 189 OFFCURVE",
"453 209 CURVE SMOOTH",
"535 359 LINE",
"535 84 LINE SMOOTH",
"535 39 OFFCURVE",
"535 -8 OFFCURVE",
"626 -8 CURVE SMOOTH",
"717 -8 OFFCURVE",
"718 37 OFFCURVE",
"718 82 CURVE SMOOTH",
"718 598 LINE SMOOTH",
"718 644 OFFCURVE",
"717 690 OFFCURVE",
"627 690 CURVE SMOOTH",
"572 690 OFFCURVE",
"558 685 OFFCURVE",
"544 661 CURVE SMOOTH",
"363 356 LINE",
"389 356 LINE",
"207 661 LINE SMOOTH",
"197 680 OFFCURVE",
"179 690 OFFCURVE",
"127 690 CURVE SMOOTH",
"35 690 OFFCURVE",
"35 644 OFFCURVE",
"35 600 CURVE SMOOTH",
"35 84 LINE SMOOTH",
"35 37 OFFCURVE",
"36 -8 OFFCURVE",
"125 -8 CURVE SMOOTH"
);
}
);
width = 753;
},
{
anchors = (
{
name = bottom;
position = "{537, 0}";
},
{
name = top;
position = "{537, 700}";
}
);
layerId = "F1D2FE0C-0290-44F9-97DF-753285E87900";
paths = (
{
closed = 1;
nodes = (
"104 -11 OFFCURVE",
"114 -1 OFFCURVE",
"114 18 CURVE SMOOTH",
"114 603 LINE",
"509 199 LINE SMOOTH",
"519 188 OFFCURVE",
"524 184 OFFCURVE",
"536 184 CURVE SMOOTH",
"547 184 OFFCURVE",
"556 189 OFFCURVE",
"563 197 CURVE SMOOTH",
"959 603 LINE",
"959 20 LINE SMOOTH",
"959 0 OFFCURVE",
"969 -11 OFFCURVE",
"988 -11 CURVE SMOOTH",
"1008 -11 OFFCURVE",
"1019 -1 OFFCURVE",
"1019 18 CURVE SMOOTH",
"1019 656 LINE SMOOTH",
"1019 676 OFFCURVE",
"1008 687 OFFCURVE",
"989 687 CURVE SMOOTH",
"970 687 OFFCURVE",
"958 687 OFFCURVE",
"950 677 CURVE",
"519 237 LINE",
"553 237 LINE",
"126 673 LINE",
"116 684 OFFCURVE",
"106 687 OFFCURVE",
"86 687 CURVE SMOOTH",
"66 687 OFFCURVE",
"55 677 OFFCURVE",
"55 658 CURVE SMOOTH",
"55 20 LINE SMOOTH",
"55 0 OFFCURVE",
"65 -11 OFFCURVE",
"84 -11 CURVE SMOOTH"
);
}
);
width = 1074;
},
{
anchors = (
{
name = bottom;
position = "{582, 0}";
},
{
name = top;
position = "{582, 700}";
}
);
layerId = "D56FD762-6887-41EE-B8AF-857F7388911F";
paths = (
{
closed = 1;
nodes = (
"237 -8 OFFCURVE",
"237 37 OFFCURVE",
"237 82 CURVE SMOOTH",
"237 430 LINE",
"503 209 LINE SMOOTH",
"518 196 OFFCURVE",
"538 168 OFFCURVE",
"581 168 CURVE SMOOTH",
"624 168 OFFCURVE",
"644 197 OFFCURVE",
"658 209 CURVE SMOOTH",
"925 430 LINE",
"925 84 LINE SMOOTH",
"925 39 OFFCURVE",
"925 -8 OFFCURVE",
"1016 -8 CURVE SMOOTH",
"1107 -8 OFFCURVE",
"1108 37 OFFCURVE",
"1108 82 CURVE SMOOTH",
"1108 598 LINE SMOOTH",
"1108 644 OFFCURVE",
"1107 690 OFFCURVE",
"1017 690 CURVE SMOOTH",
"982 690 OFFCURVE",
"962 685 OFFCURVE",
"934 661 CURVE SMOOTH",
"568 346 LINE",
"594 346 LINE",
"227 662 LINE SMOOTH",
"205 681 OFFCURVE",
"189 690 OFFCURVE",
"147 690 CURVE SMOOTH",
"55 690 OFFCURVE",
"55 644 OFFCURVE",
"55 600 CURVE SMOOTH",
"55 84 LINE SMOOTH",
"55 37 OFFCURVE",
"56 -8 OFFCURVE",
"145 -8 CURVE SMOOTH"
);
}
);
width = 1163;
}
);
note = M;
rightKerningGroup = d;
unicode = 004D;
},
{
glyphname = N;
layers = (
{
anchors = (
{
name = bottom;
position = "{335, 0}";
},
{
name = top;
position = "{335, 700}";
}
);
layerId = "05A6575B-AA27-4212-BC78-A0BDA398BBDE";
paths = (
{
closed = 1;
nodes = (
"210 -9 OFFCURVE",
"210 37 OFFCURVE",
"210 82 CURVE",
"210 360 LINE",
"469 18 LINE",
"485 -3 OFFCURVE",
"505 -9 OFFCURVE",
"550 -9 CURVE SMOOTH",
"642 -9 OFFCURVE",
"642 37 OFFCURVE",
"642 82 CURVE SMOOTH",
"642 598 LINE SMOOTH",
"642 643 OFFCURVE",
"642 690 OFFCURVE",
"551 690 CURVE SMOOTH",
"461 690 OFFCURVE",
"459 646 OFFCURVE",
"459 602 CURVE SMOOTH",
"459 315 LINE",
"209 651 LINE SMOOTH",
"192 673 OFFCURVE",
"178 690 OFFCURVE",
"120 690 CURVE SMOOTH",
"29 690 OFFCURVE",
"28 646 OFFCURVE",
"28 602 CURVE SMOOTH",
"28 83 LINE SMOOTH",
"28 37 OFFCURVE",
"29 -9 OFFCURVE",
"118 -9 CURVE SMOOTH"
);
}
);
width = 670;
},
{
anchors = (
{
name = bottom;
position = "{248, 0}";
},
{
name = top;
position = "{248, 700}";
}
);
layerId = "4383C18A-60F2-4889-B7DB-EDD0F2222092";
paths = (
{
closed = 1;
nodes = (
"113 -10 OFFCURVE",
"124 0 OFFCURVE",
"124 20 CURVE SMOOTH",
"124 558 LINE",
"341 9 LINE SMOOTH",
"347 -6 OFFCURVE",
"362 -10 OFFCURVE",
"376 -10 CURVE SMOOTH",
"396 -10 OFFCURVE",
"411 0 OFFCURVE",
"411 20 CURVE SMOOTH",
"411 656 LINE SMOOTH",
"411 676 OFFCURVE",
"401 687 OFFCURVE",
"383 687 CURVE SMOOTH",
"363 687 OFFCURVE",
"352 678 OFFCURVE",
"352 661 CURVE SMOOTH",
"352 115 LINE",
"135 670 LINE SMOOTH",
"130 684 OFFCURVE",
"118 687 OFFCURVE",
"98 687 CURVE SMOOTH",
"78 687 OFFCURVE",
"65 678 OFFCURVE",
"65 661 CURVE SMOOTH",
"65 21 LINE SMOOTH",
"65 1 OFFCURVE",
"75 -10 OFFCURVE",
"93 -10 CURVE SMOOTH"
);
}
);
width = 476;
},
{
anchors = (
{
name = bottom;
position = "{360, 0}";
},
{
name = top;
position = "{360, 700}";
}
);
layerId = "988D29BF-96E2-481F-8769-6B283BD5795A";
paths = (
{
closed = 1;
nodes = (
"125 -10 OFFCURVE",
"136 0 OFFCURVE",
"136 20 CURVE SMOOTH",
"136 596 LINE",
"554 6 LINE",
"565 -7 OFFCURVE",
"574 -10 OFFCURVE",
"588 -10 CURVE SMOOTH",
"608 -10 OFFCURVE",
"623 0 OFFCURVE",
"623 20 CURVE SMOOTH",
"623 656 LINE SMOOTH",
"623 676 OFFCURVE",
"613 687 OFFCURVE",
"595 687 CURVE SMOOTH",
"575 687 OFFCURVE",
"564 678 OFFCURVE",
"564 661 CURVE SMOOTH",
"564 79 LINE",
"146 676 LINE SMOOTH",
"137 687 OFFCURVE",
"130 687 OFFCURVE",
"110 687 CURVE SMOOTH",
"90 687 OFFCURVE",
"77 678 OFFCURVE",
"77 661 CURVE SMOOTH",
"77 21 LINE SMOOTH",
"77 1 OFFCURVE",
"87 -10 OFFCURVE",
"105 -10 CURVE SMOOTH"
);
}
);
width = 720;
},
{
anchors = (
{
name = bottom;
position = "{316, 0}";
},
{
name = top;
position = "{316, 700}";
}
);
layerId = "C221B64C-0844-4CE6-BA2A-18F986CD7755";
paths = (
{
closed = 1;
nodes = (
"217 -9 OFFCURVE",
"217 37 OFFCURVE",
"217 82 CURVE",
"217 330 LINE",
"426 18 LINE",
"442 -3 OFFCURVE",
"462 -9 OFFCURVE",
"507 -9 CURVE SMOOTH",
"599 -9 OFFCURVE",
"599 37 OFFCURVE",
"599 82 CURVE SMOOTH",
"599 598 LINE SMOOTH",
"599 643 OFFCURVE",
"599 690 OFFCURVE",
"508 690 CURVE SMOOTH",
"418 690 OFFCURVE",
"416 646 OFFCURVE",
"416 602 CURVE SMOOTH",
"416 345 LINE",
"216 651 LINE SMOOTH",
"199 673 OFFCURVE",
"185 690 OFFCURVE",
"127 690 CURVE SMOOTH",
"36 690 OFFCURVE",
"35 646 OFFCURVE",
"35 602 CURVE SMOOTH",
"35 83 LINE SMOOTH",
"35 37 OFFCURVE",
"36 -9 OFFCURVE",
"125 -9 CURVE SMOOTH"
);
}
);
width = 634;
},
{
anchors = (
{
name = bottom;
position = "{498, 0}";
},
{
name = top;
position = "{498, 700}";
}
);
layerId = "F1D2FE0C-0290-44F9-97DF-753285E87900";
paths = (
{
closed = 1;
nodes = (
"103 -10 OFFCURVE",
"114 0 OFFCURVE",
"114 20 CURVE SMOOTH",
"114 602 LINE",
"832 5 LINE",
"843 -7 OFFCURVE",
"852 -10 OFFCURVE",
"866 -10 CURVE SMOOTH",
"886 -10 OFFCURVE",
"901 0 OFFCURVE",
"901 20 CURVE SMOOTH",
"901 656 LINE SMOOTH",
"901 676 OFFCURVE",
"891 687 OFFCURVE",
"873 687 CURVE SMOOTH",
"853 687 OFFCURVE",
"842 678 OFFCURVE",
"842 661 CURVE SMOOTH",
"842 73 LINE",
"124 676 LINE SMOOTH",
"113 685 OFFCURVE",
"108 687 OFFCURVE",
"88 687 CURVE SMOOTH",
"68 687 OFFCURVE",
"55 678 OFFCURVE",
"55 661 CURVE SMOOTH",
"55 21 LINE SMOOTH",
"55 1 OFFCURVE",
"65 -10 OFFCURVE",
"83 -10 CURVE SMOOTH"
);
}
);
width = 956;
},
{
anchors = (
{
name = bottom;
position = "{532, 0}";
},
{
name = top;
position = "{532, 700}";
}
);
layerId = "D56FD762-6887-41EE-B8AF-857F7388911F";
paths = (
{
closed = 1;
nodes = (
"237 -9 OFFCURVE",
"237 37 OFFCURVE",
"237 82 CURVE",
"237 420 LINE",
"796 18 LINE SMOOTH",
"823 -1 OFFCURVE",
"852 -9 OFFCURVE",
"887 -9 CURVE SMOOTH",
"969 -9 OFFCURVE",
"969 37 OFFCURVE",
"969 82 CURVE SMOOTH",
"969 598 LINE SMOOTH",
"969 643 OFFCURVE",
"969 690 OFFCURVE",
"878 690 CURVE SMOOTH",
"788 690 OFFCURVE",
"786 646 OFFCURVE",
"786 602 CURVE SMOOTH",
"786 255 LINE",
"236 651 LINE SMOOTH",
"206 673 OFFCURVE",
"185 690 OFFCURVE",
"147 690 CURVE SMOOTH",
"66 690 OFFCURVE",
"55 646 OFFCURVE",
"55 602 CURVE SMOOTH",
"55 83 LINE SMOOTH",
"55 37 OFFCURVE",
"56 -9 OFFCURVE",
"145 -9 CURVE SMOOTH"
);
}
);
width = 1024;
}
);
leftKerningGroup = N;
note = N;
rightKerningGroup = N;
unicode = 004E;
},
{
glyphname = O;
layers = (
{
anchors = (
{
name = bottom;
position = "{361, 0}";
},
{
name = center;
position = "{361, 350}";
},
{
name = ogonek;
position = "{450, 2}";
},
{
name = top;
position = "{361, 700}";
},
{
name = topleft;
position = "{20, 700}";
},
{
name = topright;
position = "{701, 700}";
}
);
layerId = "05A6575B-AA27-4212-BC78-A0BDA398BBDE";
paths = (
{
closed = 1;
nodes = (
"553 -20 OFFCURVE",
"707 142 OFFCURVE",
"707 339 CURVE SMOOTH",
"707 541 OFFCURVE",
"552 699 OFFCURVE",
"357 699 CURVE SMOOTH",
"167 699 OFFCURVE",
"14 538 OFFCURVE",
"14 335 CURVE SMOOTH",
"14 139 OFFCURVE",
"171 -20 OFFCURVE",
"365 -20 CURVE SMOOTH"
);
},
{
closed = 1;
nodes = (
"272 163 OFFCURVE",
"197 242 OFFCURVE",
"197 339 CURVE SMOOTH",
"197 438 OFFCURVE",
"271 516 OFFCURVE",
"361 516 CURVE SMOOTH",
"450 516 OFFCURVE",
"524 438 OFFCURVE",
"524 339 CURVE SMOOTH",
"524 239 OFFCURVE",
"451 163 OFFCURVE",
"360 163 CURVE SMOOTH"
);
}
);
width = 721;
},
{
anchors = (
{
name = bottom;
position = "{262, 0}";
},
{
name = center;
position = "{262, 350}";
},
{
name = ogonek;
position = "{304, 10}";
},
{
name = top;
position = "{262, 700}";
},
{
name = topleft;
position = "{-20, 700}";
},
{
name = topright;
position = "{543, 700}";
}
);
layerId = "4383C18A-60F2-4889-B7DB-EDD0F2222092";
paths = (
{
closed = 1;
nodes = (
"406 -12 OFFCURVE",
"478 109 OFFCURVE",
"478 342 CURVE SMOOTH",
"478 576 OFFCURVE",
"403 698 OFFCURVE",
"258 698 CURVE SMOOTH",
"118 698 OFFCURVE",
"45 575 OFFCURVE",
"45 338 CURVE SMOOTH",
"45 108 OFFCURVE",
"121 -12 OFFCURVE",
"267 -12 CURVE SMOOTH"
);
},
{
closed = 1;
nodes = (
"157 46 OFFCURVE",
"103 147 OFFCURVE",
"103 342 CURVE SMOOTH",
"103 538 OFFCURVE",
"158 640 OFFCURVE",
"262 640 CURVE SMOOTH",
"366 640 OFFCURVE",
"420 538 OFFCURVE",
"420 343 CURVE SMOOTH",
"420 148 OFFCURVE",
"365 46 OFFCURVE",
"261 46 CURVE SMOOTH"
);
}
);
width = 523;
},
{
anchors = (
{
name = bottom;
position = "{368, 0}";
},
{
name = center;
position = "{368, 350}";
},
{
name = ogonek;
position = "{381, 4}";
},
{
name = top;
position = "{368, 700}";
},
{
name = topleft;
position = "{20, 700}";
},
{
name = topright;
position = "{715, 700}";
}
);
layerId = "988D29BF-96E2-481F-8769-6B283BD5795A";
paths = (
{
closed = 1;
nodes = (
"554 -16 OFFCURVE",
"705 144 OFFCURVE",
"705 336 CURVE SMOOTH",
"705 534 OFFCURVE",
"553 690 OFFCURVE",
"364 690 CURVE SMOOTH",
"180 690 OFFCURVE",
"30 530 OFFCURVE",
"30 332 CURVE SMOOTH",
"30 141 OFFCURVE",
"184 -16 OFFCURVE",
"373 -16 CURVE SMOOTH"
);
},
{
closed = 1;
nodes = (
"216 44 OFFCURVE",
"90 176 OFFCURVE",
"90 336 CURVE SMOOTH",
"90 499 OFFCURVE",
"215 630 OFFCURVE",
"368 630 CURVE SMOOTH",
"520 630 OFFCURVE",
"645 498 OFFCURVE",
"645 337 CURVE SMOOTH",
"645 174 OFFCURVE",
"521 44 OFFCURVE",
"367 44 CURVE SMOOTH"
);
}
);
width = 735;
},
{
anchors = (
{
name = bottom;
position = "{290, 0}";
},
{
name = center;
position = "{290, 350}";
},
{
name = ogonek;
position = "{383, 0}";
},
{
name = top;
position = "{290, 700}";
},
{
name = topleft;
position = "{-20, 700}";
},
{
name = topright;
position = "{599, 700}";
}
);
layerId = "C221B64C-0844-4CE6-BA2A-18F986CD7755";
paths = (
{
closed = 1;
nodes = (
"452 -20 OFFCURVE",
"544 113 OFFCURVE",
"544 339 CURVE SMOOTH",
"544 565 OFFCURVE",
"449 699 OFFCURVE",
"287 699 CURVE SMOOTH",
"129 699 OFFCURVE",
"35 564 OFFCURVE",
"35 335 CURVE SMOOTH",
"35 112 OFFCURVE",
"132 -20 OFFCURVE",
"295 -20 CURVE SMOOTH"
);
},
{
closed = 1;
nodes = (
"251 163 OFFCURVE",
"228 228 OFFCURVE",
"228 339 CURVE SMOOTH",
"228 450 OFFCURVE",
"251 516 OFFCURVE",
"290 516 CURVE SMOOTH",
"329 516 OFFCURVE",
"352 450 OFFCURVE",
"352 339 CURVE SMOOTH",
"352 228 OFFCURVE",
"329 163 OFFCURVE",
"289 163 CURVE SMOOTH"
);
}
);
width = 579;
},
{
anchors = (
{
name = bottom;
position = "{522, 0}";
},
{
name = center;
position = "{522, 350}";
},
{
name = ogonek;
position = "{541, 6}";
},
{
name = top;
position = "{522, 700}";
},
{
name = topleft;
position = "{54, 700}";
},
{
name = topright;
position = "{989, 700}";
}
);
layerId = "F1D2FE0C-0290-44F9-97DF-753285E87900";
paths = (
{
closed = 1;
nodes = (
"819 -14 OFFCURVE",
"1008 116 OFFCURVE",
"1008 340 CURVE SMOOTH",
"1008 567 OFFCURVE",
"815 697 OFFCURVE",
"518 697 CURVE SMOOTH",
"225 697 OFFCURVE",
"35 565 OFFCURVE",
"35 336 CURVE SMOOTH",
"35 115 OFFCURVE",
"229 -14 OFFCURVE",
"527 -14 CURVE SMOOTH"
);
},
{
closed = 1;
nodes = (
"264 44 OFFCURVE",
"93 152 OFFCURVE",
"93 340 CURVE SMOOTH",
"93 530 OFFCURVE",
"264 639 OFFCURVE",
"522 639 CURVE SMOOTH",
"779 639 OFFCURVE",
"950 530 OFFCURVE",
"950 341 CURVE SMOOTH",
"950 157 OFFCURVE",
"783 44 OFFCURVE",
"521 44 CURVE SMOOTH"
);
}
);
width = 1043;
},
{
anchors = (
{
name = bottom;
position = "{530, 0}";
},
{
name = center;
position = "{530, 350}";
},
{
name = ogonek;
position = "{542, 10}";
},
{
name = top;
position = "{530, 700}";
},
{
name = topleft;
position = "{96, 700}";
},
{
name = topright;
position = "{963, 700}";
}
);
layerId = "D56FD762-6887-41EE-B8AF-857F7388911F";
paths = (
{
closed = 1;
nodes = (
"847 -25 OFFCURVE",
"1023 121 OFFCURVE",
"1023 339 CURVE SMOOTH",
"1023 558 OFFCURVE",
"844 704 OFFCURVE",
"526 704 CURVE SMOOTH",
"211 704 OFFCURVE",
"35 556 OFFCURVE",
"35 335 CURVE SMOOTH",
"35 119 OFFCURVE",
"215 -25 OFFCURVE",
"534 -25 CURVE SMOOTH"
);
},
{
closed = 1;
nodes = (
"322 157 OFFCURVE",
"218 230 OFFCURVE",
"218 339 CURVE SMOOTH",
"218 449 OFFCURVE",
"323 522 OFFCURVE",
"530 522 CURVE SMOOTH",
"737 522 OFFCURVE",
"841 449 OFFCURVE",
"841 339 CURVE SMOOTH",
"841 230 OFFCURVE",
"736 157 OFFCURVE",
"529 157 CURVE SMOOTH"
);
}
);
width = 1058;
}
);
note = O;
rightKerningGroup = O;
unicode = 004F;
},
{
glyphname = Oslash;
layers = (
{
anchors = (
{
name = bottom;
position = "{361, 0}";
},
{
name = top;
position = "{361, 700}";
}
);
layerId = "05A6575B-AA27-4212-BC78-A0BDA398BBDE";
paths = (
{
closed = 1;
nodes = (
"563 -20 OFFCURVE",
"717 142 OFFCURVE",
"717 339 CURVE SMOOTH",
"717 541 OFFCURVE",
"562 699 OFFCURVE",
"367 699 CURVE SMOOTH",
"177 699 OFFCURVE",
"24 538 OFFCURVE",
"24 335 CURVE SMOOTH",
"24 139 OFFCURVE",
"181 -20 OFFCURVE",
"375 -20 CURVE SMOOTH"
);
},
{
closed = 1;
nodes = (
"281 163 OFFCURVE",
"207 241 OFFCURVE",
"207 339 CURVE SMOOTH",
"207 438 OFFCURVE",
"280 516 OFFCURVE",
"371 516 CURVE SMOOTH",
"460 516 OFFCURVE",
"534 438 OFFCURVE",
"534 339 CURVE SMOOTH",
"534 239 OFFCURVE",
"461 163 OFFCURVE",
"370 163 CURVE SMOOTH"
);
},
{
closed = 1;
nodes = (
"245 -74 OFFCURVE",
"270 -67 OFFCURVE",
"297 -11 CURVE SMOOTH",
"596 610 LINE SMOOTH",
"624 667 OFFCURVE",
"619 689 OFFCURVE",
"554 721 CURVE SMOOTH",
"495 750 OFFCURVE",
"468 743 OFFCURVE",
"441 687 CURVE SMOOTH",
"141 60 LINE SMOOTH",
"115 5 OFFCURVE",
"123 -17 OFFCURVE",
"185 -46 CURVE SMOOTH"
);
}
);
width = 742;
},
{
anchors = (
{
name = bottom;
position = "{252, 0}";
},
{
name = top;
position = "{252, 700}";
}
);
layerId = "4383C18A-60F2-4889-B7DB-EDD0F2222092";
paths = (
{
closed = 1;
nodes = (
"396 -12 OFFCURVE",
"468 109 OFFCURVE",
"468 342 CURVE SMOOTH",
"468 576 OFFCURVE",
"393 698 OFFCURVE",
"248 698 CURVE SMOOTH",
"108 698 OFFCURVE",
"35 575 OFFCURVE",
"35 338 CURVE SMOOTH",
"35 108 OFFCURVE",
"111 -12 OFFCURVE",
"257 -12 CURVE SMOOTH"
);
},
{
closed = 1;
nodes = (
"147 46 OFFCURVE",
"93 147 OFFCURVE",
"93 342 CURVE SMOOTH",
"93 538 OFFCURVE",
"148 640 OFFCURVE",
"252 640 CURVE SMOOTH",
"356 640 OFFCURVE",
"410 538 OFFCURVE",
"410 343 CURVE SMOOTH",
"410 148 OFFCURVE",
"355 46 OFFCURVE",
"251 46 CURVE SMOOTH"
);
},
{
closed = 1;
nodes = (
"96 -36 OFFCURVE",
"107 -32 OFFCURVE",
"116 -12 CURVE SMOOTH",
"434 661 LINE SMOOTH",
"443 681 OFFCURVE",
"441 692 OFFCURVE",
"422 701 CURVE SMOOTH",
"402 711 OFFCURVE",
"392 707 OFFCURVE",
"382 687 CURVE SMOOTH",
"63 14 LINE SMOOTH",
"53 -6 OFFCURVE",
"56 -17 OFFCURVE",
"75 -26 CURVE SMOOTH"
);
}
);
width = 503;
},
{
anchors = (
{
name = bottom;
position = "{368, 0}";
},
{
name = top;
position = "{368, 700}";
}
);
layerId = "988D29BF-96E2-481F-8769-6B283BD5795A";
paths = (
{
closed = 1;
nodes = (
"554 -16 OFFCURVE",
"705 144 OFFCURVE",
"705 336 CURVE SMOOTH",
"705 534 OFFCURVE",
"553 690 OFFCURVE",
"364 690 CURVE SMOOTH",
"180 690 OFFCURVE",
"30 530 OFFCURVE",
"30 332 CURVE SMOOTH",
"30 141 OFFCURVE",
"184 -16 OFFCURVE",
"373 -16 CURVE SMOOTH"
);
},
{
closed = 1;
nodes = (
"216 44 OFFCURVE",
"90 176 OFFCURVE",
"90 336 CURVE SMOOTH",
"90 499 OFFCURVE",
"215 630 OFFCURVE",
"368 630 CURVE SMOOTH",
"520 630 OFFCURVE",
"645 498 OFFCURVE",
"645 337 CURVE SMOOTH",
"645 174 OFFCURVE",
"521 44 OFFCURVE",
"367 44 CURVE SMOOTH"
);
},
{
closed = 1;
nodes = (
"213 -36 OFFCURVE",
"224 -32 OFFCURVE",
"233 -12 CURVE SMOOTH",
"551 661 LINE SMOOTH",
"560 681 OFFCURVE",
"558 692 OFFCURVE",
"539 701 CURVE SMOOTH",
"519 711 OFFCURVE",
"509 707 OFFCURVE",
"499 687 CURVE SMOOTH",
"180 14 LINE SMOOTH",
"170 -6 OFFCURVE",
"173 -17 OFFCURVE",
"192 -26 CURVE SMOOTH"
);
}
);
width = 735;
},
{
anchors = (
{
name = bottom;
position = "{350, 0}";
},
{
name = top;
position = "{350, 700}";
}
);
layerId = "C221B64C-0844-4CE6-BA2A-18F986CD7755";
paths = (
{
closed = 1;
nodes = (
"535 -20 OFFCURVE",
"654 123 OFFCURVE",
"654 339 CURVE SMOOTH",
"654 555 OFFCURVE",
"532 699 OFFCURVE",
"347 699 CURVE SMOOTH",
"166 699 OFFCURVE",
"45 553 OFFCURVE",
"45 335 CURVE SMOOTH",
"45 122 OFFCURVE",
"169 -20 OFFCURVE",
"355 -20 CURVE SMOOTH"
);
},
{
closed = 1;
nodes = (
"283 163 OFFCURVE",
"238 233 OFFCURVE",
"238 339 CURVE SMOOTH",
"238 445 OFFCURVE",
"283 516 OFFCURVE",
"350 516 CURVE SMOOTH",
"416 516 OFFCURVE",
"462 445 OFFCURVE",
"462 339 CURVE SMOOTH",
"462 233 OFFCURVE",
"416 163 OFFCURVE",
"349 163 CURVE SMOOTH"
);
},
{
closed = 1;
nodes = (
"163 -113 OFFCURVE",
"192 -105 OFFCURVE",
"215 -63 CURVE SMOOTH",
"623 679 LINE SMOOTH",
"648 725 OFFCURVE",
"638 755 OFFCURVE",
"591 779 CURVE SMOOTH",
"544 803 OFFCURVE",
"515 801 OFFCURVE",
"490 755 CURVE SMOOTH",
"79 8 LINE SMOOTH",
"55 -36 OFFCURVE",
"73 -67 OFFCURVE",
"114 -88 CURVE SMOOTH"
);
}
);
width = 699;
},
{
anchors = (
{
name = bottom;
position = "{488, 0}";
},
{
name = top;
position = "{488, 700}";
}
);
layerId = "F1D2FE0C-0290-44F9-97DF-753285E87900";
paths = (
{
closed = 1;
nodes = (
"735 -14 OFFCURVE",
"924 116 OFFCURVE",
"924 340 CURVE SMOOTH",
"924 567 OFFCURVE",
"731 697 OFFCURVE",
"484 697 CURVE SMOOTH",
"241 697 OFFCURVE",
"51 565 OFFCURVE",
"51 336 CURVE SMOOTH",
"51 115 OFFCURVE",
"245 -14 OFFCURVE",
"493 -14 CURVE SMOOTH"
);
},
{
closed = 1;
nodes = (
"280 44 OFFCURVE",
"109 152 OFFCURVE",
"109 340 CURVE SMOOTH",
"109 530 OFFCURVE",
"280 639 OFFCURVE",
"488 639 CURVE SMOOTH",
"695 639 OFFCURVE",
"866 530 OFFCURVE",
"866 341 CURVE SMOOTH",
"866 157 OFFCURVE",
"699 44 OFFCURVE",
"487 44 CURVE SMOOTH"
);
},
{
closed = 1;
nodes = (
"229 -55 OFFCURVE",
"239 -53 OFFCURVE",
"251 -36 CURVE SMOOTH",
"755 679 LINE SMOOTH",
"769 699 OFFCURVE",
"770 710 OFFCURVE",
"753 722 CURVE SMOOTH",
"736 734 OFFCURVE",
"724 731 OFFCURVE",
"711 712 CURVE SMOOTH",
"208 -2 LINE SMOOTH",
"195 -21 OFFCURVE",
"196 -33 OFFCURVE",
"212 -44 CURVE SMOOTH"
);
}
);
width = 975;
},
{
anchors = (
{
name = bottom;
position = "{519, 0}";
},
{
name = top;
position = "{519, 700}";
}
);
layerId = "D56FD762-6887-41EE-B8AF-857F7388911F";
paths = (
{
closed = 1;
nodes = (
"837 -25 OFFCURVE",
"1013 121 OFFCURVE",
"1013 339 CURVE SMOOTH",
"1013 558 OFFCURVE",
"834 704 OFFCURVE",
"516 704 CURVE SMOOTH",
"201 704 OFFCURVE",
"25 556 OFFCURVE",
"25 335 CURVE SMOOTH",
"25 119 OFFCURVE",
"205 -25 OFFCURVE",
"524 -25 CURVE SMOOTH"
);
},
{
closed = 1;
nodes = (
"312 157 OFFCURVE",
"208 230 OFFCURVE",
"208 339 CURVE SMOOTH",
"208 449 OFFCURVE",
"313 522 OFFCURVE",
"520 522 CURVE SMOOTH",
"727 522 OFFCURVE",
"831 449 OFFCURVE",
"831 339 CURVE SMOOTH",
"831 230 OFFCURVE",
"726 157 OFFCURVE",
"519 157 CURVE SMOOTH"
);
},
{
closed = 1;
nodes = (
"261 -107 OFFCURVE",
"290 -104 OFFCURVE",
"318 -65 CURVE SMOOTH",
"832 664 LINE SMOOTH",
"862 707 OFFCURVE",
"855 738 OFFCURVE",
"811 767 CURVE SMOOTH",
"767 796 OFFCURVE",
"738 797 OFFCURVE",
"708 755 CURVE SMOOTH",
"191 21 LINE SMOOTH",
"162 -20 OFFCURVE",
"176 -53 OFFCURVE",
"215 -78 CURVE SMOOTH"
);
}
);
width = 1038;
}
);
note = Oslash;
rightKerningGroup = O;
unicode = 00D8;
},
{
glyphname = OE;
layers = (
{
anchors = (
{
name = bottom;
position = "{548, 0}";
},
{
name = top;
position = "{548, 700}";
}
);
layerId = "05A6575B-AA27-4212-BC78-A0BDA398BBDE";
paths = (
{
closed = 1;
nodes = (
"910 -9 LINE SMOOTH",
"954 -9 OFFCURVE",
"1002 -9 OFFCURVE",
"1002 82 CURVE SMOOTH",
"1002 174 OFFCURVE",
"955 174 OFFCURVE",
"910 170 CURVE SMOOTH",
"633 170 LINE",
"633 249 LINE",
"806 249 LINE SMOOTH",
"852 249 OFFCURVE",
"899 249 OFFCURVE",
"899 340 CURVE SMOOTH",
"899 432 OFFCURVE",
"853 432 OFFCURVE",
"808 432 CURVE SMOOTH",
"633 432 LINE",
"633 508 LINE",
"910 508 LINE SMOOTH",
"954 508 OFFCURVE",
"1002 508 OFFCURVE",
"1002 599 CURVE SMOOTH",
"1002 691 OFFCURVE",
"955 691 OFFCURVE",
"910 691 CURVE SMOOTH",
"347 691 LINE SMOOTH",
"164 691 OFFCURVE",
"14 532 OFFCURVE",
"14 337 CURVE SMOOTH",
"14 153 OFFCURVE",
"160 1 OFFCURVE",
"346 -9 CURVE SMOOTH"
);
},
{
closed = 1;
nodes = (
"263 177 OFFCURVE",
"197 250 OFFCURVE",
"197 339 CURVE SMOOTH",
"197 431 OFFCURVE",
"262 504 OFFCURVE",
"348 508 CURVE",
"450 508 LINE",
"450 170 LINE",
"347 170 LINE"
);
}
);
width = 1016;
},
{
anchors = (
{
name = bottom;
position = "{358, 0}";
},
{
name = top;
position = "{358, 700}";
}
);
layerId = "4383C18A-60F2-4889-B7DB-EDD0F2222092";
paths = (
{
closed = 1;
nodes = (
"573 -11 LINE SMOOTH",
"595 -11 OFFCURVE",
"603 -4 OFFCURVE",
"603 18 CURVE SMOOTH",
"603 41 OFFCURVE",
"596 48 OFFCURVE",
"574 48 CURVE SMOOTH",
"387 48 LINE",
"387 320 LINE",
"456 320 LINE SMOOTH",
"479 320 OFFCURVE",
"487 327 OFFCURVE",
"487 349 CURVE SMOOTH",
"487 372 OFFCURVE",
"480 380 OFFCURVE",
"458 380 CURVE SMOOTH",
"387 380 LINE",
"387 630 LINE",
"573 630 LINE SMOOTH",
"595 630 OFFCURVE",
"603 634 OFFCURVE",
"603 656 CURVE SMOOTH",
"603 679 OFFCURVE",
"596 687 OFFCURVE",
"574 687 CURVE SMOOTH",
"307 687 LINE SMOOTH",
"126 687 OFFCURVE",
"35 542 OFFCURVE",
"35 337 CURVE SMOOTH",
"35 128 OFFCURVE",
"127 -11 OFFCURVE",
"309 -11 CURVE SMOOTH"
);
},
{
closed = 1;
nodes = (
"161 48 OFFCURVE",
"95 163 OFFCURVE",
"95 340 CURVE SMOOTH",
"95 509 OFFCURVE",
"161 630 OFFCURVE",
"305 630 CURVE SMOOTH",
"327 630 LINE",
"327 48 LINE",
"305 48 LINE SMOOTH"
);
}
);
width = 628;
},
{
anchors = (
{
name = bottom;
position = "{574, -3}";
},
{
name = top;
position = "{574, 700}";
}
);
layerId = "988D29BF-96E2-481F-8769-6B283BD5795A";
paths = (
{
closed = 1;
nodes = (
"993 -11 LINE SMOOTH",
"1015 -11 OFFCURVE",
"1023 -4 OFFCURVE",
"1023 18 CURVE SMOOTH",
"1023 41 OFFCURVE",
"1016 47 OFFCURVE",
"994 47 CURVE SMOOTH",
"607 47 LINE",
"607 312 LINE",
"876 312 LINE SMOOTH",
"899 312 OFFCURVE",
"907 319 OFFCURVE",
"907 341 CURVE SMOOTH",
"907 364 OFFCURVE",
"900 372 OFFCURVE",
"878 372 CURVE SMOOTH",
"607 372 LINE",
"607 628 LINE",
"993 628 LINE SMOOTH",
"1015 628 OFFCURVE",
"1023 634 OFFCURVE",
"1023 656 CURVE SMOOTH",
"1023 679 OFFCURVE",
"1016 687 OFFCURVE",
"994 687 CURVE SMOOTH",
"357 687 LINE SMOOTH",
"176 687 OFFCURVE",
"55 542 OFFCURVE",
"55 337 CURVE SMOOTH",
"55 128 OFFCURVE",
"177 -11 OFFCURVE",
"359 -11 CURVE SMOOTH"
);
},
{
closed = 1;
nodes = (
"211 47 OFFCURVE",
"115 163 OFFCURVE",
"115 340 CURVE SMOOTH",
"115 509 OFFCURVE",
"211 628 OFFCURVE",
"355 628 CURVE SMOOTH",
"547 628 LINE",
"547 47 LINE",
"355 47 LINE SMOOTH"
);
}
);
width = 1078;
},
{
anchors = (
{
name = bottom;
position = "{459, 0}";
},
{
name = top;
position = "{459, 700}";
}
);
layerId = "C221B64C-0844-4CE6-BA2A-18F986CD7755";
paths = (
{
closed = 1;
nodes = (
"721 -9 LINE SMOOTH",
"765 -9 OFFCURVE",
"813 -9 OFFCURVE",
"813 82 CURVE SMOOTH",
"813 174 OFFCURVE",
"766 174 OFFCURVE",
"721 174 CURVE SMOOTH",
"544 174 LINE",
"544 249 LINE",
"617 249 LINE SMOOTH",
"663 249 OFFCURVE",
"710 249 OFFCURVE",
"710 340 CURVE SMOOTH",
"710 432 OFFCURVE",
"664 432 OFFCURVE",
"619 432 CURVE SMOOTH",
"544 432 LINE",
"544 509 LINE",
"721 509 LINE SMOOTH",
"765 509 OFFCURVE",
"813 508 OFFCURVE",
"813 599 CURVE SMOOTH",
"813 691 OFFCURVE",
"766 691 OFFCURVE",
"721 691 CURVE SMOOTH",
"338 691 LINE SMOOTH",
"155 691 OFFCURVE",
"25 532 OFFCURVE",
"25 337 CURVE SMOOTH",
"25 153 OFFCURVE",
"151 -9 OFFCURVE",
"338 -9 CURVE"
);
},
{
closed = 1;
nodes = (
"254 181 OFFCURVE",
"208 250 OFFCURVE",
"208 339 CURVE SMOOTH",
"208 431 OFFCURVE",
"253 505 OFFCURVE",
"338 509 CURVE",
"361 509 LINE",
"361 174 LINE",
"338 174 LINE"
);
}
);
width = 838;
},
{
anchors = (
{
name = bottom;
position = "{844, 0}";
},
{
name = top;
position = "{844, 700}";
}
);
layerId = "F1D2FE0C-0290-44F9-97DF-753285E87900";
paths = (
{
closed = 1;
nodes = (
"1573 -11 LINE SMOOTH",
"1595 -11 OFFCURVE",
"1603 -4 OFFCURVE",
"1603 18 CURVE SMOOTH",
"1603 41 OFFCURVE",
"1596 48 OFFCURVE",
"1574 48 CURVE SMOOTH",
"887 48 LINE",
"887 312 LINE",
"1456 312 LINE SMOOTH",
"1479 312 OFFCURVE",
"1487 319 OFFCURVE",
"1487 341 CURVE SMOOTH",
"1487 364 OFFCURVE",
"1480 372 OFFCURVE",
"1458 372 CURVE SMOOTH",
"887 372 LINE",
"887 627 LINE",
"1573 627 LINE SMOOTH",
"1595 627 OFFCURVE",
"1603 634 OFFCURVE",
"1603 656 CURVE SMOOTH",
"1603 679 OFFCURVE",
"1596 687 OFFCURVE",
"1574 687 CURVE SMOOTH",
"387 687 LINE SMOOTH",
"178 687 OFFCURVE",
"35 557 OFFCURVE",
"35 337 CURVE SMOOTH",
"35 118 OFFCURVE",
"179 -11 OFFCURVE",
"389 -11 CURVE SMOOTH"
);
},
{
closed = 1;
nodes = (
"215 48 OFFCURVE",
"95 155 OFFCURVE",
"95 340 CURVE SMOOTH",
"95 523 OFFCURVE",
"215 627 OFFCURVE",
"385 627 CURVE SMOOTH",
"827 627 LINE",
"827 48 LINE",
"385 48 LINE SMOOTH"
);
}
);
width = 1638;
},
{
anchors = (
{
name = bottom;
position = "{809, 0}";
},
{
name = top;
position = "{809, 700}";
}
);
layerId = "D56FD762-6887-41EE-B8AF-857F7388911F";
paths = (
{
closed = 1;
nodes = (
"1421 -9 LINE SMOOTH",
"1465 -9 OFFCURVE",
"1513 -9 OFFCURVE",
"1513 82 CURVE SMOOTH",
"1513 174 OFFCURVE",
"1466 173 OFFCURVE",
"1421 173 CURVE SMOOTH",
"894 173 LINE",
"894 249 LINE",
"1317 249 LINE SMOOTH",
"1363 249 OFFCURVE",
"1410 249 OFFCURVE",
"1410 340 CURVE SMOOTH",
"1410 432 OFFCURVE",
"1364 432 OFFCURVE",
"1319 432 CURVE SMOOTH",
"894 432 LINE",
"894 509 LINE",
"1421 509 LINE SMOOTH",
"1465 509 OFFCURVE",
"1513 508 OFFCURVE",
"1513 599 CURVE SMOOTH",
"1513 691 OFFCURVE",
"1466 691 OFFCURVE",
"1421 691 CURVE SMOOTH",
"408 691 LINE SMOOTH",
"180 691 OFFCURVE",
"25 560 OFFCURVE",
"25 337 CURVE SMOOTH",
"25 120 OFFCURVE",
"179 -9 OFFCURVE",
"407 -9 CURVE SMOOTH"
);
},
{
closed = 1;
nodes = (
"265 173 OFFCURVE",
"208 242 OFFCURVE",
"208 339 CURVE SMOOTH",
"208 437 OFFCURVE",
"265 509 OFFCURVE",
"379 509 CURVE SMOOTH",
"711 509 LINE",
"711 173 LINE",
"378 173 LINE SMOOTH"
);
}
);
width = 1538;
}
);
note = OE;
rightKerningGroup = d;
unicode = 0152;
},
{
glyphname = P;
layers = (
{
anchors = (
{
name = bottom;
position = "{301, 0}";
},
{
name = top;
position = "{301, 700}";
}
);
layerId = "05A6575B-AA27-4212-BC78-A0BDA398BBDE";
paths = (
{
closed = 1;
nodes = (
"218 -8 OFFCURVE",
"218 38 OFFCURVE",
"218 83 CURVE SMOOTH",
"218 179 LINE",
"325 179 LINE SMOOTH",
"428 179 OFFCURVE",
"581 260 OFFCURVE",
"581 434 CURVE SMOOTH",
"581 609 OFFCURVE",
"427 691 OFFCURVE",
"326 691 CURVE SMOOTH",
"127 691 LINE SMOOTH",
"35 691 OFFCURVE",
"35 644 OFFCURVE",
"35 600 CURVE SMOOTH",
"35 84 LINE SMOOTH",
"35 39 OFFCURVE",
"35 -8 OFFCURVE",
"126 -8 CURVE SMOOTH"
);
},
{
closed = 1;
nodes = (
"218 508 LINE",
"325 508 LINE SMOOTH",
"366 508 OFFCURVE",
"399 476 OFFCURVE",
"399 435 CURVE SMOOTH",
"399 379 OFFCURVE",
"352 362 OFFCURVE",
"326 362 CURVE SMOOTH",
"218 362 LINE"
);
}
);
width = 595;
},
{
anchors = (
{
name = bottom;
position = "{188, 0}";
},
{
name = top;
position = "{188, 700}";
}
);
layerId = "4383C18A-60F2-4889-B7DB-EDD0F2222092";
paths = (
{
closed = 1;
nodes = (
"117 -11 OFFCURVE",
"125 -3 OFFCURVE",
"125 19 CURVE SMOOTH",
"125 255 LINE",
"169 255 LINE SMOOTH",
"284 255 OFFCURVE",
"334 335 OFFCURVE",
"334 470 CURVE SMOOTH",
"334 606 OFFCURVE",
"285 687 OFFCURVE",
"170 687 CURVE SMOOTH",
"95 687 LINE SMOOTH",
"76 687 OFFCURVE",
"65 676 OFFCURVE",
"65 657 CURVE SMOOTH",
"65 20 LINE SMOOTH",
"65 -3 OFFCURVE",
"72 -11 OFFCURVE",
"94 -11 CURVE SMOOTH"
);
},
{
closed = 1;
nodes = (
"125 627 LINE",
"171 627 LINE SMOOTH",
"249 627 OFFCURVE",
"275 569 OFFCURVE",
"275 472 CURVE SMOOTH",
"275 373 OFFCURVE",
"249 315 OFFCURVE",
"172 315 CURVE SMOOTH",
"125 315 LINE"
);
}
);
width = 369;
},
{
anchors = (
{
name = bottom;
position = "{307, -3}";
},
{
name = top;
position = "{307, 700}";
}
);
layerId = "988D29BF-96E2-481F-8769-6B283BD5795A";
paths = (
{
closed = 1;
nodes = (
"132 -11 OFFCURVE",
"140 -3 OFFCURVE",
"140 19 CURVE SMOOTH",
"140 255 LINE",
"334 255 LINE SMOOTH",
"469 255 OFFCURVE",
"549 335 OFFCURVE",
"549 470 CURVE SMOOTH",
"549 606 OFFCURVE",
"470 687 OFFCURVE",
"335 687 CURVE SMOOTH",
"110 687 LINE SMOOTH",
"91 687 OFFCURVE",
"80 676 OFFCURVE",
"80 657 CURVE SMOOTH",
"80 20 LINE SMOOTH",
"80 -3 OFFCURVE",
"87 -11 OFFCURVE",
"109 -11 CURVE SMOOTH"
);
},
{
closed = 1;
nodes = (
"140 627 LINE",
"334 627 LINE SMOOTH",
"432 627 OFFCURVE",
"490 569 OFFCURVE",
"490 472 CURVE SMOOTH",
"490 373 OFFCURVE",
"432 315 OFFCURVE",
"335 315 CURVE SMOOTH",
"140 315 LINE"
);
}
);
width = 603;
},
{
anchors = (
{
name = bottom;
position = "{278, 0}";
},
{
name = top;
position = "{278, 700}";
}
);
layerId = "C221B64C-0844-4CE6-BA2A-18F986CD7755";
paths = (
{
closed = 1;
nodes = (
"228 -8 OFFCURVE",
"228 38 OFFCURVE",
"228 83 CURVE SMOOTH",
"228 179 LINE",
"255 179 LINE SMOOTH",
"358 179 OFFCURVE",
"511 260 OFFCURVE",
"511 434 CURVE SMOOTH",
"511 609 OFFCURVE",
"357 691 OFFCURVE",
"256 691 CURVE SMOOTH",
"137 691 LINE SMOOTH",
"45 691 OFFCURVE",
"45 644 OFFCURVE",
"45 600 CURVE SMOOTH",
"45 84 LINE SMOOTH",
"45 39 OFFCURVE",
"45 -8 OFFCURVE",
"136 -8 CURVE SMOOTH"
);
},
{
closed = 1;
nodes = (
"228 508 LINE",
"255 508 LINE SMOOTH",
"296 508 OFFCURVE",
"329 476 OFFCURVE",
"329 435 CURVE SMOOTH",
"329 379 OFFCURVE",
"282 362 OFFCURVE",
"256 362 CURVE SMOOTH",
"228 362 LINE"
);
}
);
width = 536;
},
{
anchors = (
{
name = bottom;
position = "{490, 0}";
},
{
name = top;
position = "{490, 700}";
}
);
layerId = "F1D2FE0C-0290-44F9-97DF-753285E87900";
paths = (
{
closed = 1;
nodes = (
"117 -11 OFFCURVE",
"125 -3 OFFCURVE",
"125 19 CURVE SMOOTH",
"125 255 LINE",
"569 255 LINE SMOOTH",
"704 255 OFFCURVE",
"834 335 OFFCURVE",
"834 470 CURVE SMOOTH",
"834 606 OFFCURVE",
"705 687 OFFCURVE",
"570 687 CURVE SMOOTH",
"95 687 LINE SMOOTH",
"76 687 OFFCURVE",
"65 676 OFFCURVE",
"65 657 CURVE SMOOTH",
"65 20 LINE SMOOTH",
"65 -3 OFFCURVE",
"72 -11 OFFCURVE",
"94 -11 CURVE SMOOTH"
);
},
{
closed = 1;
nodes = (
"125 627 LINE",
"569 627 LINE SMOOTH",
"667 627 OFFCURVE",
"775 569 OFFCURVE",
"775 472 CURVE SMOOTH",
"775 373 OFFCURVE",
"667 315 OFFCURVE",
"570 315 CURVE SMOOTH",
"125 315 LINE"
);
}
);
width = 869;
},
{
anchors = (
{
name = bottom;
position = "{528, 0}";
},
{
name = top;
position = "{528, 700}";
}
);
layerId = "D56FD762-6887-41EE-B8AF-857F7388911F";
paths = (
{
closed = 1;
nodes = (
"238 -8 OFFCURVE",
"238 38 OFFCURVE",
"238 83 CURVE SMOOTH",
"238 179 LINE",
"645 179 LINE SMOOTH",
"748 179 OFFCURVE",
"901 260 OFFCURVE",
"901 434 CURVE SMOOTH",
"901 609 OFFCURVE",
"747 691 OFFCURVE",
"646 691 CURVE SMOOTH",
"147 691 LINE SMOOTH",
"55 691 OFFCURVE",
"55 644 OFFCURVE",
"55 600 CURVE SMOOTH",
"55 84 LINE SMOOTH",
"55 39 OFFCURVE",
"55 -8 OFFCURVE",
"146 -8 CURVE SMOOTH"
);
},
{
closed = 1;
nodes = (
"238 508 LINE",
"645 508 LINE SMOOTH",
"686 508 OFFCURVE",
"719 476 OFFCURVE",
"719 435 CURVE SMOOTH",
"719 379 OFFCURVE",
"672 362 OFFCURVE",
"646 362 CURVE SMOOTH",
"238 362 LINE"
);
}
);
width = 936;
}
);
leftKerningGroup = P;
note = P;
rightKerningGroup = P;
unicode = 0050;
},
{
glyphname = Thorn;
layers = (
{
anchors = (
{
name = bottom;
position = "{307, 0}";
},
{
name = top;
position = "{307, 700}";
}
);
layerId = "05A6575B-AA27-4212-BC78-A0BDA398BBDE";
paths = (
{
closed = 1;
nodes = (
"223 -8 OFFCURVE",
"223 38 OFFCURVE",
"223 83 CURVE SMOOTH",
"223 85 LINE",
"330 85 LINE SMOOTH",
"433 85 OFFCURVE",
"586 166 OFFCURVE",
"586 340 CURVE SMOOTH",
"586 515 OFFCURVE",
"432 597 OFFCURVE",
"331 597 CURVE SMOOTH",
"223 597 LINE",
"223 599 LINE SMOOTH",
"223 644 OFFCURVE",
"223 691 OFFCURVE",
"132 691 CURVE SMOOTH",
"40 691 OFFCURVE",
"40 644 OFFCURVE",
"40 600 CURVE SMOOTH",
"40 84 LINE SMOOTH",
"40 39 OFFCURVE",
"40 -8 OFFCURVE",
"131 -8 CURVE SMOOTH"
);
},
{
closed = 1;
nodes = (
"223 414 LINE",
"330 414 LINE SMOOTH",
"371 414 OFFCURVE",
"404 383 OFFCURVE",
"404 341 CURVE SMOOTH",
"404 285 OFFCURVE",
"357 268 OFFCURVE",
"331 268 CURVE SMOOTH",
"223 268 LINE"
);
}
);
width = 606;
},
{
anchors = (
{
name = bottom;
position = "{245, 0}";
},
{
name = top;
position = "{245, 700}";
}
);
layerId = "4383C18A-60F2-4889-B7DB-EDD0F2222092";
paths = (
{
closed = 1;
nodes = (
"132 -11 OFFCURVE",
"140 -3 OFFCURVE",
"140 19 CURVE SMOOTH",
"140 126 LINE",
"234 126 LINE SMOOTH",
"352 126 OFFCURVE",
"449 222 OFFCURVE",
"449 341 CURVE SMOOTH",
"449 461 OFFCURVE",
"352 558 OFFCURVE",
"235 558 CURVE SMOOTH",
"140 558 LINE",
"140 656 LINE SMOOTH",
"140 679 OFFCURVE",
"132 687 OFFCURVE",
"110 687 CURVE SMOOTH",
"88 687 OFFCURVE",
"80 679 OFFCURVE",
"80 657 CURVE SMOOTH",
"80 20 LINE SMOOTH",
"80 -3 OFFCURVE",
"87 -11 OFFCURVE",
"109 -11 CURVE SMOOTH"
);
},
{
closed = 1;
nodes = (
"140 498 LINE",
"234 498 LINE SMOOTH",
"320 498 OFFCURVE",
"390 430 OFFCURVE",
"390 342 CURVE SMOOTH",
"390 255 OFFCURVE",
"321 186 OFFCURVE",
"235 186 CURVE SMOOTH",
"140 186 LINE"
);
}
);
width = 489;
},
{
anchors = (
{
name = bottom;
position = "{310, 0}";
},
{
name = top;
position = "{310, 700}";
}
);
layerId = "988D29BF-96E2-481F-8769-6B283BD5795A";
paths = (
{
closed = 1;
nodes = (
"127 -11 OFFCURVE",
"135 -3 OFFCURVE",
"135 19 CURVE SMOOTH",
"135 126 LINE",
"329 126 LINE SMOOTH",
"447 126 OFFCURVE",
"544 222 OFFCURVE",
"544 341 CURVE SMOOTH",
"544 461 OFFCURVE",
"447 558 OFFCURVE",
"330 558 CURVE SMOOTH",
"135 558 LINE",
"135 656 LINE SMOOTH",
"135 679 OFFCURVE",
"127 687 OFFCURVE",
"105 687 CURVE SMOOTH",
"83 687 OFFCURVE",
"75 679 OFFCURVE",
"75 657 CURVE SMOOTH",
"75 20 LINE SMOOTH",
"75 -3 OFFCURVE",
"82 -11 OFFCURVE",
"104 -11 CURVE SMOOTH"
);
},
{
closed = 1;
nodes = (
"135 498 LINE",
"329 498 LINE SMOOTH",
"415 498 OFFCURVE",
"485 430 OFFCURVE",
"485 342 CURVE SMOOTH",
"485 255 OFFCURVE",
"416 186 OFFCURVE",
"330 186 CURVE SMOOTH",
"135 186 LINE"
);
}
);
width = 588;
},
{
anchors = (
{
name = bottom;
position = "{268, 0}";
},
{
name = top;
position = "{268, 700}";
}
);
layerId = "C221B64C-0844-4CE6-BA2A-18F986CD7755";
paths = (
{
closed = 1;
nodes = (
"228 -8 OFFCURVE",
"228 38 OFFCURVE",
"228 83 CURVE SMOOTH",
"228 85 LINE",
"235 85 LINE SMOOTH",
"338 85 OFFCURVE",
"491 166 OFFCURVE",
"491 340 CURVE SMOOTH",
"491 515 OFFCURVE",
"337 597 OFFCURVE",
"236 597 CURVE SMOOTH",
"228 597 LINE",
"228 599 LINE SMOOTH",
"228 644 OFFCURVE",
"228 691 OFFCURVE",
"137 691 CURVE SMOOTH",
"45 691 OFFCURVE",
"45 644 OFFCURVE",
"45 600 CURVE SMOOTH",
"45 84 LINE SMOOTH",
"45 39 OFFCURVE",
"45 -8 OFFCURVE",
"136 -8 CURVE SMOOTH"
);
},
{
closed = 1;
nodes = (
"228 414 LINE",
"235 414 LINE SMOOTH",
"276 414 OFFCURVE",
"309 383 OFFCURVE",
"309 341 CURVE SMOOTH",
"309 285 OFFCURVE",
"262 268 OFFCURVE",
"236 268 CURVE SMOOTH",
"228 268 LINE"
);
}
);
width = 516;
},
{
anchors = (
{
name = bottom;
position = "{388, 0}";
},
{
name = top;
position = "{388, 700}";
}
);
layerId = "F1D2FE0C-0290-44F9-97DF-753285E87900";
paths = (
{
closed = 1;
nodes = (
"132 -11 OFFCURVE",
"140 -3 OFFCURVE",
"140 19 CURVE SMOOTH",
"140 126 LINE",
"514 126 LINE SMOOTH",
"662 126 OFFCURVE",
"749 206 OFFCURVE",
"749 341 CURVE SMOOTH",
"749 477 OFFCURVE",
"662 558 OFFCURVE",
"515 558 CURVE SMOOTH",
"140 558 LINE",
"140 656 LINE SMOOTH",
"140 679 OFFCURVE",
"132 687 OFFCURVE",
"110 687 CURVE SMOOTH",
"88 687 OFFCURVE",
"80 679 OFFCURVE",
"80 657 CURVE SMOOTH",
"80 20 LINE SMOOTH",
"80 -3 OFFCURVE",
"87 -11 OFFCURVE",
"109 -11 CURVE SMOOTH"
);
},
{
closed = 1;
nodes = (
"140 498 LINE",
"514 498 LINE SMOOTH",
"625 498 OFFCURVE",
"690 440 OFFCURVE",
"690 342 CURVE SMOOTH",
"690 244 OFFCURVE",
"625 186 OFFCURVE",
"515 186 CURVE SMOOTH",
"140 186 LINE"
);
}
);
width = 784;
},
{
anchors = (
{
name = bottom;
position = "{422, 0}";
},
{
name = top;
position = "{422, 700}";
}
);
layerId = "D56FD762-6887-41EE-B8AF-857F7388911F";
paths = (
{
closed = 1;
nodes = (
"233 -8 OFFCURVE",
"233 38 OFFCURVE",
"233 83 CURVE SMOOTH",
"233 85 LINE",
"540 85 LINE SMOOTH",
"643 85 OFFCURVE",
"796 166 OFFCURVE",
"796 340 CURVE SMOOTH",
"796 515 OFFCURVE",
"642 597 OFFCURVE",
"541 597 CURVE SMOOTH",
"233 597 LINE",
"233 599 LINE SMOOTH",
"233 644 OFFCURVE",
"233 691 OFFCURVE",
"142 691 CURVE SMOOTH",
"50 691 OFFCURVE",
"50 644 OFFCURVE",
"50 600 CURVE SMOOTH",
"50 84 LINE SMOOTH",
"50 39 OFFCURVE",
"50 -8 OFFCURVE",
"141 -8 CURVE SMOOTH"
);
},
{
closed = 1;
nodes = (
"233 414 LINE",
"540 414 LINE SMOOTH",
"581 414 OFFCURVE",
"614 383 OFFCURVE",
"614 341 CURVE SMOOTH",
"614 285 OFFCURVE",
"567 268 OFFCURVE",
"541 268 CURVE SMOOTH",
"233 268 LINE"
);
}
);
width = 821;
}
);
note = Thorn;
rightKerningGroup = d;
unicode = 00DE;
},
{
glyphname = Q;
layers = (
{
anchors = (
{
name = bottom;
position = "{386, 0}";
},
{
name = top;
position = "{386, 700}";
}
);
layerId = "05A6575B-AA27-4212-BC78-A0BDA398BBDE";
paths = (
{
closed = 1;
nodes = (
"674 188 LINE",
"695 235 OFFCURVE",
"707 286 OFFCURVE",
"707 339 CURVE SMOOTH",
"707 541 OFFCURVE",
"552 699 OFFCURVE",
"357 699 CURVE SMOOTH",
"167 699 OFFCURVE",
"14 538 OFFCURVE",
"14 335 CURVE SMOOTH",
"14 139 OFFCURVE",
"171 -20 OFFCURVE",
"365 -20 CURVE SMOOTH",
"437 -20 OFFCURVE",
"503 4 OFFCURVE",
"558 44 CURVE",
"614 8 LINE SMOOTH",
"670 -28 OFFCURVE",
"697 -32 OFFCURVE",
"741 31 CURVE SMOOTH",
"782 90 OFFCURVE",
"776 120 OFFCURVE",
"719 158 CURVE SMOOTH"
);
},
{
closed = 1;
nodes = (
"271 163 OFFCURVE",
"197 241 OFFCURVE",
"197 339 CURVE SMOOTH",
"197 438 OFFCURVE",
"270 516 OFFCURVE",
"361 516 CURVE SMOOTH",
"450 516 OFFCURVE",
"524 438 OFFCURVE",
"524 339 CURVE SMOOTH",
"524 239 OFFCURVE",
"451 163 OFFCURVE",
"360 163 CURVE SMOOTH"
);
}
);
width = 782;
},
{
anchors = (
{
name = bottom;
position = "{260, 0}";
},
{
name = top;
position = "{260, 700}";
}
);
layerId = "4383C18A-60F2-4889-B7DB-EDD0F2222092";
paths = (
{
closed = 1;
nodes = (
"411 82 LINE",
"447 147 OFFCURVE",
"459 240 OFFCURVE",
"459 342 CURVE SMOOTH",
"459 558 OFFCURVE",
"401 698 OFFCURVE",
"249 698 CURVE SMOOTH",
"102 698 OFFCURVE",
"46 556 OFFCURVE",
"46 338 CURVE SMOOTH",
"46 126 OFFCURVE",
"105 -12 OFFCURVE",
"258 -12 CURVE SMOOTH",
"303 -12 OFFCURVE",
"344 5 OFFCURVE",
"376 35 CURVE",
"437 -6 LINE SMOOTH",
"455 -18 OFFCURVE",
"465 -18 OFFCURVE",
"477 1 CURVE SMOOTH",
"489 19 OFFCURVE",
"487 29 OFFCURVE",
"469 42 CURVE SMOOTH"
);
},
{
closed = 1;
nodes = (
"137 46 OFFCURVE",
"104 164 OFFCURVE",
"104 342 CURVE SMOOTH",
"104 521 OFFCURVE",
"137 640 OFFCURVE",
"253 640 CURVE SMOOTH",
"368 640 OFFCURVE",
"401 521 OFFCURVE",
"401 343 CURVE SMOOTH",
"401 164 OFFCURVE",
"368 46 OFFCURVE",
"252 46 CURVE SMOOTH"
);
}
);
width = 530;
},
{
anchors = (
{
name = bottom;
position = "{415, -2}";
},
{
name = top;
position = "{375, 700}";
}
);
layerId = "988D29BF-96E2-481F-8769-6B283BD5795A";
paths = (
{
closed = 1;
nodes = (
"647 140 LINE",
"684 196 OFFCURVE",
"705 264 OFFCURVE",
"705 336 CURVE SMOOTH",
"705 534 OFFCURVE",
"553 690 OFFCURVE",
"364 690 CURVE SMOOTH",
"180 690 OFFCURVE",
"30 530 OFFCURVE",
"30 332 CURVE SMOOTH",
"30 141 OFFCURVE",
"184 -16 OFFCURVE",
"373 -16 CURVE SMOOTH",
"466 -16 OFFCURVE",
"551 26 OFFCURVE",
"612 93 CURVE",
"740 6 LINE SMOOTH",
"758 -7 OFFCURVE",
"769 -5 OFFCURVE",
"781 13 CURVE SMOOTH",
"793 31 OFFCURVE",
"791 41 OFFCURVE",
"773 54 CURVE SMOOTH"
);
},
{
closed = 1;
nodes = (
"216 44 OFFCURVE",
"90 176 OFFCURVE",
"90 336 CURVE SMOOTH",
"90 499 OFFCURVE",
"215 630 OFFCURVE",
"368 630 CURVE SMOOTH",
"520 630 OFFCURVE",
"645 498 OFFCURVE",
"645 337 CURVE SMOOTH",
"645 174 OFFCURVE",
"521 44 OFFCURVE",
"367 44 CURVE SMOOTH"
);
}
);
width = 820;
},
{
anchors = (
{
name = bottom;
position = "{286, 0}";
},
{
name = top;
position = "{286, 700}";
}
);
layerId = "C221B64C-0844-4CE6-BA2A-18F986CD7755";
paths = (
{
closed = 1;
nodes = (
"525 180 LINE",
"538 226 OFFCURVE",
"544 279 OFFCURVE",
"544 339 CURVE SMOOTH",
"544 565 OFFCURVE",
"449 699 OFFCURVE",
"287 699 CURVE SMOOTH",
"129 699 OFFCURVE",
"35 564 OFFCURVE",
"35 335 CURVE SMOOTH",
"35 112 OFFCURVE",
"132 -20 OFFCURVE",
"295 -20 CURVE SMOOTH",
"347 -20 OFFCURVE",
"393 -5 OFFCURVE",
"429 23 CURVE",
"452 8 LINE SMOOTH",
"508 -29 OFFCURVE",
"535 -32 OFFCURVE",
"579 31 CURVE SMOOTH",
"620 90 OFFCURVE",
"614 120 OFFCURVE",
"557 158 CURVE SMOOTH"
);
},
{
closed = 1;
nodes = (
"251 163 OFFCURVE",
"228 228 OFFCURVE",
"228 339 CURVE SMOOTH",
"228 450 OFFCURVE",
"251 516 OFFCURVE",
"290 516 CURVE SMOOTH",
"329 516 OFFCURVE",
"352 450 OFFCURVE",
"352 339 CURVE SMOOTH",
"352 228 OFFCURVE",
"329 163 OFFCURVE",
"289 163 CURVE SMOOTH"
);
}
);
width = 631;
},
{
anchors = (
{
name = bottom;
position = "{562, 0}";
},
{
name = top;
position = "{562, 700}";
}
);
layerId = "F1D2FE0C-0290-44F9-97DF-753285E87900";
paths = (
{
closed = 1;
nodes = (
"950 128 LINE",
"997 184 OFFCURVE",
"1024 255 OFFCURVE",
"1024 340 CURVE SMOOTH",
"1024 567 OFFCURVE",
"831 697 OFFCURVE",
"534 697 CURVE SMOOTH",
"241 697 OFFCURVE",
"51 565 OFFCURVE",
"51 336 CURVE SMOOTH",
"51 115 OFFCURVE",
"245 -14 OFFCURVE",
"543 -14 CURVE SMOOTH",
"718 -14 OFFCURVE",
"829 21 OFFCURVE",
"907 86 CURVE",
"1025 6 LINE SMOOTH",
"1043 -6 OFFCURVE",
"1054 -5 OFFCURVE",
"1066 13 CURVE SMOOTH",
"1078 31 OFFCURVE",
"1076 41 OFFCURVE",
"1058 54 CURVE SMOOTH"
);
},
{
closed = 1;
nodes = (
"280 44 OFFCURVE",
"109 152 OFFCURVE",
"109 340 CURVE SMOOTH",
"109 530 OFFCURVE",
"280 639 OFFCURVE",
"538 639 CURVE SMOOTH",
"795 639 OFFCURVE",
"966 530 OFFCURVE",
"966 341 CURVE SMOOTH",
"966 157 OFFCURVE",
"799 44 OFFCURVE",
"537 44 CURVE SMOOTH"
);
}
);
width = 1114;
},
{
anchors = (
{
name = bottom;
position = "{529, 0}";
},
{
name = top;
position = "{529, 700}";
}
);
layerId = "D56FD762-6887-41EE-B8AF-857F7388911F";
paths = (
{
closed = 1;
nodes = (
"990 188 LINE",
"1012 233 OFFCURVE",
"1023 284 OFFCURVE",
"1023 339 CURVE SMOOTH",
"1023 558 OFFCURVE",
"844 704 OFFCURVE",
"526 704 CURVE SMOOTH",
"211 704 OFFCURVE",
"35 556 OFFCURVE",
"35 335 CURVE SMOOTH",
"35 119 OFFCURVE",
"215 -25 OFFCURVE",
"534 -25 CURVE SMOOTH",
"696 -25 OFFCURVE",
"793 2 OFFCURVE",
"866 49 CURVE",
"930 8 LINE SMOOTH",
"986 -28 OFFCURVE",
"1013 -32 OFFCURVE",
"1057 31 CURVE SMOOTH",
"1098 90 OFFCURVE",
"1091 120 OFFCURVE",
"1035 158 CURVE SMOOTH"
);
},
{
closed = 1;
nodes = (
"322 157 OFFCURVE",
"218 230 OFFCURVE",
"218 339 CURVE SMOOTH",
"218 449 OFFCURVE",
"323 522 OFFCURVE",
"530 522 CURVE SMOOTH",
"737 522 OFFCURVE",
"841 449 OFFCURVE",
"841 339 CURVE SMOOTH",
"841 230 OFFCURVE",
"736 157 OFFCURVE",
"529 157 CURVE SMOOTH"
);
}
);
width = 1118;
}
);
note = Q;
rightKerningGroup = d;
unicode = 0051;
},
{
glyphname = R;
layers = (
{
anchors = (
{
name = bottom;
position = "{301, 0}";
},
{
name = top;
position = "{301, 700}";
}
);
layerId = "05A6575B-AA27-4212-BC78-A0BDA398BBDE";
paths = (
{
closed = 1;
nodes = (
"218 -8 OFFCURVE",
"218 38 OFFCURVE",
"218 83 CURVE SMOOTH",
"218 180 LINE",
"379 180 LINE",
"507 218 OFFCURVE",
"582 312 OFFCURVE",
"582 434 CURVE SMOOTH",
"582 609 OFFCURVE",
"429 691 OFFCURVE",
"328 691 CURVE SMOOTH",
"127 691 LINE SMOOTH",
"35 691 OFFCURVE",
"35 644 OFFCURVE",
"35 600 CURVE SMOOTH",
"35 84 LINE SMOOTH",
"35 39 OFFCURVE",
"35 -8 OFFCURVE",
"126 -8 CURVE SMOOTH"
);
},
{
closed = 1;
nodes = (
"605 61 OFFCURVE",
"606 86 OFFCURVE",
"566 144 CURVE SMOOTH",
"442 311 LINE",
"234 285 LINE",
"418 35 LINE SMOOTH",
"458 -19 OFFCURVE",
"485 -29 OFFCURVE",
"545 16 CURVE SMOOTH"
);
},
{
closed = 1;
nodes = (
"218 508 LINE",
"326 508 LINE SMOOTH",
"366 508 OFFCURVE",
"399 476 OFFCURVE",
"399 435 CURVE SMOOTH",
"399 379 OFFCURVE",
"353 362 OFFCURVE",
"328 362 CURVE SMOOTH",
"218 362 LINE"
);
}
);
width = 604;
},
{
anchors = (
{
name = bottom;
position = "{201, 0}";
},
{
name = top;
position = "{201, 700}";
}
);
layerId = "4383C18A-60F2-4889-B7DB-EDD0F2222092";
paths = (
{
closed = 1;
nodes = (
"125 -11 OFFCURVE",
"133 -3 OFFCURVE",
"133 19 CURVE SMOOTH",
"133 258 LINE",
"183 258 LINE",
"295 258 OFFCURVE",
"344 387 OFFCURVE",
"344 471 CURVE SMOOTH",
"344 613 OFFCURVE",
"271 687 OFFCURVE",
"151 687 CURVE SMOOTH",
"104 687 LINE SMOOTH",
"84 687 OFFCURVE",
"74 677 OFFCURVE",
"74 658 CURVE SMOOTH",
"74 20 LINE SMOOTH",
"74 -3 OFFCURVE",
"81 -11 OFFCURVE",
"103 -11 CURVE SMOOTH"
);
},
{
closed = 1;
nodes = (
"340 -2 OFFCURVE",
"345 11 OFFCURVE",
"335 35 CURVE",
"233 293 LINE",
"170 292 LINE",
"278 13 LINE",
"283 -6 OFFCURVE",
"296 -13 OFFCURVE",
"316 -8 CURVE SMOOTH"
);
},
{
closed = 1;
nodes = (
"133 627 LINE",
"149 627 LINE SMOOTH",
"232 627 OFFCURVE",
"285 574 OFFCURVE",
"285 472 CURVE SMOOTH",
"285 369 OFFCURVE",
"232 315 OFFCURVE",
"181 315 CURVE SMOOTH",
"133 315 LINE"
);
}
);
width = 389;
},
{
anchors = (
{
name = bottom;
position = "{315, -3}";
},
{
name = top;
position = "{295, 700}";
}
);
layerId = "988D29BF-96E2-481F-8769-6B283BD5795A";
paths = (
{
closed = 1;
nodes = (
"140 -11 OFFCURVE",
"148 -3 OFFCURVE",
"148 19 CURVE SMOOTH",
"148 258 LINE",
"378 258 LINE",
"510 258 OFFCURVE",
"559 387 OFFCURVE",
"559 471 CURVE SMOOTH",
"559 613 OFFCURVE",
"486 687 OFFCURVE",
"346 687 CURVE SMOOTH",
"119 687 LINE SMOOTH",
"99 687 OFFCURVE",
"89 677 OFFCURVE",
"89 658 CURVE SMOOTH",
"89 20 LINE SMOOTH",
"89 -3 OFFCURVE",
"96 -11 OFFCURVE",
"118 -11 CURVE SMOOTH"
);
},
{
closed = 1;
nodes = (
"572 7 OFFCURVE",
"576 19 OFFCURVE",
"562 41 CURVE",
"419 279 LINE",
"357 268 LINE",
"509 10 LINE",
"518 -8 OFFCURVE",
"532 -13 OFFCURVE",
"550 -4 CURVE SMOOTH"
);
},
{
closed = 1;
nodes = (
"148 627 LINE",
"344 627 LINE SMOOTH",
"447 627 OFFCURVE",
"500 574 OFFCURVE",
"500 472 CURVE SMOOTH",
"500 369 OFFCURVE",
"447 315 OFFCURVE",
"376 315 CURVE SMOOTH",
"148 315 LINE"
);
}
);
width = 631;
},
{
anchors = (
{
name = bottom;
position = "{266, 0}";
},
{
name = top;
position = "{266, 700}";
}
);
layerId = "C221B64C-0844-4CE6-BA2A-18F986CD7755";
paths = (
{
closed = 1;
nodes = (
"228 -8 OFFCURVE",
"228 38 OFFCURVE",
"228 83 CURVE SMOOTH",
"228 180 LINE",
"309 180 LINE",
"437 218 OFFCURVE",
"512 312 OFFCURVE",
"512 434 CURVE SMOOTH",
"512 609 OFFCURVE",
"359 691 OFFCURVE",
"258 691 CURVE SMOOTH",
"137 691 LINE SMOOTH",
"45 691 OFFCURVE",
"45 644 OFFCURVE",
"45 600 CURVE SMOOTH",
"45 84 LINE SMOOTH",
"45 39 OFFCURVE",
"45 -8 OFFCURVE",
"136 -8 CURVE SMOOTH"
);
},
{
closed = 1;
nodes = (
"535 61 OFFCURVE",
"538 88 OFFCURVE",
"496 144 CURVE SMOOTH",
"372 311 LINE",
"183 259 LINE",
"348 35 LINE SMOOTH",
"387 -18 OFFCURVE",
"415 -29 OFFCURVE",
"475 16 CURVE SMOOTH"
);
},
{
closed = 1;
nodes = (
"228 508 LINE",
"256 508 LINE SMOOTH",
"296 508 OFFCURVE",
"329 476 OFFCURVE",
"329 435 CURVE SMOOTH",
"329 379 OFFCURVE",
"283 362 OFFCURVE",
"258 362 CURVE SMOOTH",
"228 362 LINE"
);
}
);
width = 549;
},
{
anchors = (
{
name = bottom;
position = "{396, 0}";
},
{
name = top;
position = "{396, 700}";
}
);
layerId = "F1D2FE0C-0290-44F9-97DF-753285E87900";
paths = (
{
closed = 1;
nodes = (
"106 -11 OFFCURVE",
"114 -3 OFFCURVE",
"114 19 CURVE SMOOTH",
"114 258 LINE",
"594 258 LINE",
"726 258 OFFCURVE",
"825 387 OFFCURVE",
"825 471 CURVE SMOOTH",
"825 613 OFFCURVE",
"702 687 OFFCURVE",
"562 687 CURVE SMOOTH",
"85 687 LINE SMOOTH",
"65 687 OFFCURVE",
"55 677 OFFCURVE",
"55 658 CURVE SMOOTH",
"55 20 LINE SMOOTH",
"55 -3 OFFCURVE",
"62 -11 OFFCURVE",
"84 -11 CURVE SMOOTH"
);
},
{
closed = 1;
nodes = (
"838 7 OFFCURVE",
"842 19 OFFCURVE",
"828 41 CURVE",
"635 279 LINE",
"573 268 LINE",
"775 10 LINE",
"784 -8 OFFCURVE",
"798 -13 OFFCURVE",
"816 -4 CURVE SMOOTH"
);
},
{
closed = 1;
nodes = (
"114 627 LINE",
"560 627 LINE SMOOTH",
"663 627 OFFCURVE",
"766 574 OFFCURVE",
"766 472 CURVE SMOOTH",
"766 369 OFFCURVE",
"663 315 OFFCURVE",
"592 315 CURVE SMOOTH",
"114 315 LINE"
);
}
);
width = 876;
},
{
anchors = (
{
name = bottom;
position = "{445, 0}";
},
{
name = top;
position = "{445, 700}";
}
);
layerId = "D56FD762-6887-41EE-B8AF-857F7388911F";
paths = (
{
closed = 1;
nodes = (
"238 -8 OFFCURVE",
"238 38 OFFCURVE",
"238 83 CURVE SMOOTH",
"238 180 LINE",
"679 180 LINE",
"807 218 OFFCURVE",
"902 312 OFFCURVE",
"902 434 CURVE SMOOTH",
"902 609 OFFCURVE",
"729 691 OFFCURVE",
"628 691 CURVE SMOOTH",
"147 691 LINE SMOOTH",
"55 691 OFFCURVE",
"55 644 OFFCURVE",
"55 600 CURVE SMOOTH",
"55 84 LINE SMOOTH",
"55 39 OFFCURVE",
"55 -8 OFFCURVE",
"146 -8 CURVE SMOOTH"
);
},
{
closed = 1;
nodes = (
"925 61 OFFCURVE",
"932 91 OFFCURVE",
"886 144 CURVE SMOOTH",
"742 311 LINE",
"524 298 LINE",
"738 35 LINE SMOOTH",
"778 -14 OFFCURVE",
"805 -29 OFFCURVE",
"865 16 CURVE SMOOTH"
);
},
{
closed = 1;
nodes = (
"238 508 LINE",
"626 508 LINE SMOOTH",
"666 508 OFFCURVE",
"719 476 OFFCURVE",
"719 435 CURVE SMOOTH",
"719 379 OFFCURVE",
"653 362 OFFCURVE",
"628 362 CURVE SMOOTH",
"238 362 LINE"
);
}
);
width = 951;
}
);
note = R;
rightKerningGroup = d;
unicode = 0052;
},
{
glyphname = S;
layers = (
{
anchors = (
{
name = bottom;
position = "{271, 0}";
},
{
name = top;
position = "{271, 700}";
}
);
layerId = "05A6575B-AA27-4212-BC78-A0BDA398BBDE";
paths = (
{
closed = 1;
nodes = (
"374 -19 OFFCURVE",
"528 43 OFFCURVE",
"528 217 CURVE SMOOTH",
"528 341 OFFCURVE",
"462 387 OFFCURVE",
"390 410 CURVE SMOOTH",
"303 437 OFFCURVE",
"208 431 OFFCURVE",
"208 488 CURVE SMOOTH",
"208 512 OFFCURVE",
"233 531 OFFCURVE",
"261 531 CURVE SMOOTH",
"315 531 OFFCURVE",
"322 511 OFFCURVE",
"339 499 CURVE SMOOTH",
"389 467 OFFCURVE",
"425 472 OFFCURVE",
"465 529 CURVE SMOOTH",
"501 582 OFFCURVE",
"497 602 OFFCURVE",
"453 642 CURVE SMOOTH",
"445 649 OFFCURVE",
"392 702 OFFCURVE",
"262 702 CURVE SMOOTH",
"126 702 OFFCURVE",
"26 611 OFFCURVE",
"26 489 CURVE SMOOTH",
"26 375 OFFCURVE",
"86 323 OFFCURVE",
"154 295 CURVE SMOOTH",
"243 257 OFFCURVE",
"344 259 OFFCURVE",
"344 214 CURVE SMOOTH",
"344 171 OFFCURVE",
"321 153 OFFCURVE",
"267 153 CURVE SMOOTH",
"237 153 OFFCURVE",
"219 163 OFFCURVE",
"187 199 CURVE SMOOTH",
"146 245 OFFCURVE",
"103 262 OFFCURVE",
"57 219 CURVE SMOOTH",
"7 171 OFFCURVE",
"0 140 OFFCURVE",
"40 90 CURVE",
"49 80 OFFCURVE",
"109 -19 OFFCURVE",
"271 -19 CURVE SMOOTH"
);
}
);
width = 542;
},
{
anchors = (
{
name = bottom;
position = "{188, 0}";
},
{
name = top;
position = "{188, 700}";
}
);
layerId = "4383C18A-60F2-4889-B7DB-EDD0F2222092";
paths = (
{
closed = 1;
nodes = (
"254 -20 OFFCURVE",
"321 33 OFFCURVE",
"321 154 CURVE SMOOTH",
"321 265 OFFCURVE",
"257 322 OFFCURVE",
"208 377 CURVE SMOOTH",
"171 419 OFFCURVE",
"120 470 OFFCURVE",
"120 539 CURVE SMOOTH",
"120 601 OFFCURVE",
"140 638 OFFCURVE",
"194 638 CURVE SMOOTH",
"216 638 OFFCURVE",
"237 624 OFFCURVE",
"259 587 CURVE SMOOTH",
"269 570 OFFCURVE",
"289 574 OFFCURVE",
"303 589 CURVE SMOOTH",
"318 605 OFFCURVE",
"315 611 OFFCURVE",
"302 633 CURVE SMOOTH",
"281 669 OFFCURVE",
"239 697 OFFCURVE",
"195 697 CURVE SMOOTH",
"103 697 OFFCURVE",
"61 630 OFFCURVE",
"61 540 CURVE SMOOTH",
"61 450 OFFCURVE",
"112 388 OFFCURVE",
"150 345 CURVE SMOOTH",
"200 288 OFFCURVE",
"262 241 OFFCURVE",
"262 151 CURVE SMOOTH",
"262 61 OFFCURVE",
"217 39 OFFCURVE",
"175 39 CURVE SMOOTH",
"157 39 OFFCURVE",
"128 52 OFFCURVE",
"112 92 CURVE SMOOTH",
"101 119 OFFCURVE",
"87 131 OFFCURVE",
"61 114 CURVE SMOOTH",
"39 99 OFFCURVE",
"44 92 OFFCURVE",
"54 66 CURVE SMOOTH",
"76 10 OFFCURVE",
"128 -20 OFFCURVE",
"177 -20 CURVE SMOOTH"
);
}
);
width = 366;
},
{
anchors = (
{
name = bottom;
position = "{282, -2}";
},
{
name = top;
position = "{273, 700}";
}
);
layerId = "988D29BF-96E2-481F-8769-6B283BD5795A";
paths = (
{
closed = 1;
nodes = (
"407 -20 OFFCURVE",
"508 51 OFFCURVE",
"508 172 CURVE SMOOTH",
"508 306 OFFCURVE",
"396 348 OFFCURVE",
"292 381 CURVE SMOOTH",
"207 408 OFFCURVE",
"127 439 OFFCURVE",
"127 519 CURVE SMOOTH",
"127 596 OFFCURVE",
"187 638 OFFCURVE",
"271 638 CURVE SMOOTH",
"326 638 OFFCURVE",
"375 628 OFFCURVE",
"422 575 CURVE SMOOTH",
"436 559 OFFCURVE",
"449 558 OFFCURVE",
"465 572 CURVE SMOOTH",
"484 588 OFFCURVE",
"479 599 OFFCURVE",
"462 619 CURVE SMOOTH",
"432 655 OFFCURVE",
"361 697 OFFCURVE",
"272 697 CURVE SMOOTH",
"150 697 OFFCURVE",
"68 625 OFFCURVE",
"68 520 CURVE SMOOTH",
"68 398 OFFCURVE",
"166 361 OFFCURVE",
"264 330 CURVE SMOOTH",
"356 301 OFFCURVE",
"449 268 OFFCURVE",
"449 169 CURVE SMOOTH",
"449 79 OFFCURVE",
"368 39 OFFCURVE",
"267 39 CURVE SMOOTH",
"215 39 OFFCURVE",
"151 62 OFFCURVE",
"118 111 CURVE SMOOTH",
"102 135 OFFCURVE",
"91 150 OFFCURVE",
"65 133 CURVE SMOOTH",
"43 118 OFFCURVE",
"48 108 OFFCURVE",
"62 85 CURVE SMOOTH",
"102 19 OFFCURVE",
"192 -20 OFFCURVE",
"271 -20 CURVE SMOOTH"
);
}
);
width = 558;
},
{
anchors = (
{
name = bottom;
position = "{235, 0}";
},
{
name = top;
position = "{235, 700}";
}
);
layerId = "C221B64C-0844-4CE6-BA2A-18F986CD7755";
paths = (
{
closed = 1;
nodes = (
"336 -19 OFFCURVE",
"465 33 OFFCURVE",
"465 207 CURVE SMOOTH",
"465 313 OFFCURVE",
"393 365 OFFCURVE",
"323 402 CURVE SMOOTH",
"258 437 OFFCURVE",
"194 459 OFFCURVE",
"194 500 CURVE SMOOTH",
"194 516 OFFCURVE",
"213 530 OFFCURVE",
"234 530 CURVE SMOOTH",
"266 530 OFFCURVE",
"282 488 OFFCURVE",
"303 473 CURVE SMOOTH",
"346 442 OFFCURVE",
"373 461 OFFCURVE",
"412 519 CURVE SMOOTH",
"448 572 OFFCURVE",
"445 593 OFFCURVE",
"400 632 CURVE SMOOTH",
"392 639 OFFCURVE",
"319 702 OFFCURVE",
"229 702 CURVE SMOOTH",
"93 702 OFFCURVE",
"23 621 OFFCURVE",
"23 499 CURVE SMOOTH",
"23 396 OFFCURVE",
"90 340 OFFCURVE",
"157 300 CURVE SMOOTH",
"225 260 OFFCURVE",
"293 236 OFFCURVE",
"293 195 CURVE SMOOTH",
"293 152 OFFCURVE",
"260 155 OFFCURVE",
"246 155 CURVE SMOOTH",
"236 155 OFFCURVE",
"204 160 OFFCURVE",
"187 197 CURVE SMOOTH",
"162 252 OFFCURVE",
"102 261 OFFCURVE",
"57 217 CURVE SMOOTH",
"7 169 OFFCURVE",
"2 147 OFFCURVE",
"40 88 CURVE SMOOTH",
"47 77 OFFCURVE",
"115 -19 OFFCURVE",
"238 -19 CURVE SMOOTH"
);
}
);
width = 480;
},
{
anchors = (
{
name = bottom;
position = "{419, 0}";
},
{
name = top;
position = "{419, 700}";
}
);
layerId = "F1D2FE0C-0290-44F9-97DF-753285E87900";
paths = (
{
closed = 1;
nodes = (
"637 -19 OFFCURVE",
"790 45 OFFCURVE",
"790 171 CURVE SMOOTH",
"790 316 OFFCURVE",
"590 355 OFFCURVE",
"408 389 CURVE SMOOTH",
"257 417 OFFCURVE",
"119 441 OFFCURVE",
"119 519 CURVE SMOOTH",
"119 613 OFFCURVE",
"251 637 OFFCURVE",
"381 637 CURVE SMOOTH",
"548 637 OFFCURVE",
"656 599 OFFCURVE",
"708 569 CURVE SMOOTH",
"729 557 OFFCURVE",
"743 565 OFFCURVE",
"754 585 CURVE SMOOTH",
"763 601 OFFCURVE",
"754 614 OFFCURVE",
"732 626 CURVE SMOOTH",
"702 642 OFFCURVE",
"574 696 OFFCURVE",
"373 696 CURVE SMOOTH",
"205 696 OFFCURVE",
"60 644 OFFCURVE",
"60 520 CURVE SMOOTH",
"60 395 OFFCURVE",
"238 363 OFFCURVE",
"410 332 CURVE SMOOTH",
"573 303 OFFCURVE",
"731 274 OFFCURVE",
"731 168 CURVE SMOOTH",
"731 75 OFFCURVE",
"599 40 OFFCURVE",
"440 40 CURVE SMOOTH",
"267 40 OFFCURVE",
"158 73 OFFCURVE",
"110 118 CURVE SMOOTH",
"85 141 OFFCURVE",
"71 142 OFFCURVE",
"55 123 CURVE SMOOTH",
"42 108 OFFCURVE",
"40 96 OFFCURVE",
"62 77 CURVE SMOOTH",
"118 28 OFFCURVE",
"244 -19 OFFCURVE",
"444 -19 CURVE SMOOTH"
);
}
);
width = 835;
},
{
anchors = (
{
name = bottom;
position = "{441, 0}";
},
{
name = top;
position = "{441, 700}";
}
);
layerId = "D56FD762-6887-41EE-B8AF-857F7388911F";
paths = (
{
closed = 1;
nodes = (
"705 -19 OFFCURVE",
"848 65 OFFCURVE",
"848 207 CURVE SMOOTH",
"848 360 OFFCURVE",
"641 398 OFFCURVE",
"468 422 CURVE SMOOTH",
"344 439 OFFCURVE",
"238 449 OFFCURVE",
"238 488 CURVE SMOOTH",
"238 514 OFFCURVE",
"279 531 OFFCURVE",
"421 531 CURVE SMOOTH",
"525 531 OFFCURVE",
"600 519 OFFCURVE",
"659 489 CURVE SMOOTH",
"712 462 OFFCURVE",
"745 462 OFFCURVE",
"785 519 CURVE SMOOTH",
"822 571 OFFCURVE",
"825 601 OFFCURVE",
"773 632 CURVE SMOOTH",
"702 674 OFFCURVE",
"612 702 OFFCURVE",
"432 702 CURVE SMOOTH",
"180 702 OFFCURVE",
"46 617 OFFCURVE",
"46 489 CURVE SMOOTH",
"46 328 OFFCURVE",
"259 289 OFFCURVE",
"433 266 CURVE SMOOTH",
"553 250 OFFCURVE",
"654 241 OFFCURVE",
"654 204 CURVE SMOOTH",
"654 167 OFFCURVE",
"613 152 OFFCURVE",
"457 152 CURVE SMOOTH",
"334 152 OFFCURVE",
"256 173 OFFCURVE",
"207 207 CURVE SMOOTH",
"156 243 OFFCURVE",
"122 273 OFFCURVE",
"77 227 CURVE SMOOTH",
"29 177 OFFCURVE",
"20 140 OFFCURVE",
"60 98 CURVE SMOOTH",
"115 41 OFFCURVE",
"229 -19 OFFCURVE",
"441 -19 CURVE SMOOTH"
);
}
);
width = 883;
}
);
leftKerningGroup = S;
note = S;
rightKerningGroup = S;
unicode = 0053;
},
{
glyphname = T;
layers = (
{
anchors = (
{
name = bottom;
position = "{320, 0}";
},
{
name = center;
position = "{320, 350}";
},
{
name = top;
position = "{320, 700}";
}
);
layerId = "05A6575B-AA27-4212-BC78-A0BDA398BBDE";
paths = (
{
closed = 1;
nodes = (
"92 692 LINE SMOOTH",
"55 692 OFFCURVE",
"15 692 OFFCURVE",
"15 616 CURVE SMOOTH",
"15 538 OFFCURVE",
"54 538 OFFCURVE",
"91 538 CURVE SMOOTH",
"230 538 LINE",
"230 81 LINE SMOOTH",
"230 37 OFFCURVE",
"230 -9 OFFCURVE",
"319 -9 CURVE SMOOTH",
"410 -9 OFFCURVE",
"410 36 OFFCURVE",
"410 80 CURVE SMOOTH",
"410 538 LINE",
"548 538 LINE SMOOTH",
"585 538 OFFCURVE",
"625 538 OFFCURVE",
"625 615 CURVE SMOOTH",
"625 692 OFFCURVE",
"586 692 OFFCURVE",
"549 692 CURVE SMOOTH"
);
}
);
width = 640;
},
{
anchors = (
{
name = bottom;
position = "{231, 0}";
},
{
name = center;
position = "{231, 350}";
},
{
name = top;
position = "{231, 700}";
}
);
layerId = "4383C18A-60F2-4889-B7DB-EDD0F2222092";
paths = (
{
closed = 1;
nodes = (
"68 687 LINE SMOOTH",
"50 687 OFFCURVE",
"40 676 OFFCURVE",
"40 656 CURVE SMOOTH",
"40 637 OFFCURVE",
"50 627 OFFCURVE",
"70 627 CURVE SMOOTH",
"203 627 LINE",
"203 20 LINE SMOOTH",
"203 0 OFFCURVE",
"213 -11 OFFCURVE",
"232 -11 CURVE SMOOTH",
"252 -11 OFFCURVE",
"262 -1 OFFCURVE",
"262 19 CURVE SMOOTH",
"262 627 LINE",
"392 627 LINE SMOOTH",
"412 627 OFFCURVE",
"422 637 OFFCURVE",
"422 656 CURVE SMOOTH",
"422 676 OFFCURVE",
"412 687 OFFCURVE",
"394 687 CURVE SMOOTH"
);
}
);
width = 462;
},
{
anchors = (
{
name = bottom;
position = "{330, -3}";
},
{
name = center;
position = "{330, 365}";
},
{
name = top;
position = "{330, 700}";
}
);
layerId = "988D29BF-96E2-481F-8769-6B283BD5795A";
paths = (
{
closed = 1;
nodes = (
"73 687 LINE SMOOTH",
"52 687 OFFCURVE",
"45 679 OFFCURVE",
"45 656 CURVE SMOOTH",
"45 634 OFFCURVE",
"53 627 OFFCURVE",
"75 627 CURVE SMOOTH",
"308 627 LINE",
"308 20 LINE SMOOTH",
"308 -3 OFFCURVE",
"315 -11 OFFCURVE",
"337 -11 CURVE SMOOTH",
"359 -11 OFFCURVE",
"367 -3 OFFCURVE",
"367 19 CURVE SMOOTH",
"367 627 LINE",
"597 627 LINE SMOOTH",
"619 627 OFFCURVE",
"627 634 OFFCURVE",
"627 656 CURVE SMOOTH",
"627 679 OFFCURVE",
"620 687 OFFCURVE",
"599 687 CURVE SMOOTH"
);
}
);
width = 672;
},
{
anchors = (
{
name = bottom;
position = "{270, 0}";
},
{
name = center;
position = "{270, 350}";
},
{
name = top;
position = "{270, 700}";
}
);
layerId = "C221B64C-0844-4CE6-BA2A-18F986CD7755";
paths = (
{
closed = 1;
nodes = (
"102 692 LINE SMOOTH",
"65 692 OFFCURVE",
"25 692 OFFCURVE",
"25 616 CURVE SMOOTH",
"25 538 OFFCURVE",
"64 538 OFFCURVE",
"101 538 CURVE SMOOTH",
"180 538 LINE",
"180 81 LINE SMOOTH",
"180 37 OFFCURVE",
"180 -9 OFFCURVE",
"269 -9 CURVE SMOOTH",
"360 -9 OFFCURVE",
"360 36 OFFCURVE",
"360 80 CURVE SMOOTH",
"360 538 LINE",
"438 538 LINE SMOOTH",
"475 538 OFFCURVE",
"515 538 OFFCURVE",
"515 615 CURVE SMOOTH",
"515 692 OFFCURVE",
"476 692 OFFCURVE",
"439 692 CURVE SMOOTH"
);
}
);
width = 540;
},
{
anchors = (
{
name = bottom;
position = "{491, 0}";
},
{
name = center;
position = "{491, 350}";
},
{
name = top;
position = "{491, 700}";
}
);
layerId = "F1D2FE0C-0290-44F9-97DF-753285E87900";
paths = (
{
closed = 1;
nodes = (
"78 687 LINE SMOOTH",
"60 687 OFFCURVE",
"50 676 OFFCURVE",
"50 656 CURVE SMOOTH",
"50 637 OFFCURVE",
"60 627 OFFCURVE",
"80 627 CURVE SMOOTH",
"413 627 LINE",
"413 20 LINE SMOOTH",
"413 0 OFFCURVE",
"423 -11 OFFCURVE",
"442 -11 CURVE SMOOTH",
"462 -11 OFFCURVE",
"472 -1 OFFCURVE",
"472 19 CURVE SMOOTH",
"472 627 LINE",
"802 627 LINE SMOOTH",
"822 627 OFFCURVE",
"832 637 OFFCURVE",
"832 656 CURVE SMOOTH",
"832 676 OFFCURVE",
"822 687 OFFCURVE",
"804 687 CURVE SMOOTH"
);
}
);
width = 882;
},
{
anchors = (
{
name = bottom;
position = "{460, 0}";
},
{
name = center;
position = "{460, 350}";
},
{
name = top;
position = "{460, 700}";
}
);
layerId = "D56FD762-6887-41EE-B8AF-857F7388911F";
paths = (
{
closed = 1;
nodes = (
"102 692 LINE SMOOTH",
"65 692 OFFCURVE",
"25 692 OFFCURVE",
"25 616 CURVE SMOOTH",
"25 538 OFFCURVE",
"64 538 OFFCURVE",
"101 538 CURVE SMOOTH",
"370 538 LINE",
"370 81 LINE SMOOTH",
"370 37 OFFCURVE",
"370 -9 OFFCURVE",
"459 -9 CURVE SMOOTH",
"550 -9 OFFCURVE",
"550 36 OFFCURVE",
"550 80 CURVE SMOOTH",
"550 538 LINE",
"818 538 LINE SMOOTH",
"855 538 OFFCURVE",
"895 538 OFFCURVE",
"895 615 CURVE SMOOTH",
"895 692 OFFCURVE",
"856 692 OFFCURVE",
"819 692 CURVE SMOOTH"
);
}
);
width = 920;
}
);
note = T;
rightKerningGroup = d;
unicode = 0054;
},
{
glyphname = U;
layers = (
{
anchors = (
{
name = bottom;
position = "{338, 0}";
},
{
name = ogonek;
position = "{416, 10}";
},
{
name = top;
position = "{338, 700}";
},
{
name = topright;
position = "{655, 700}";
}
);
layerId = "05A6575B-AA27-4212-BC78-A0BDA398BBDE";
paths = (
{
closed = 1;
nodes = (
"539 -20 OFFCURVE",
"647 159 OFFCURVE",
"647 318 CURVE SMOOTH",
"647 599 LINE SMOOTH",
"647 644 OFFCURVE",
"647 692 OFFCURVE",
"556 692 CURVE SMOOTH",
"466 692 OFFCURVE",
"464 648 OFFCURVE",
"464 605 CURVE SMOOTH",
"464 321 LINE SMOOTH",
"464 227 OFFCURVE",
"415 164 OFFCURVE",
"339 164 CURVE SMOOTH",
"239 164 OFFCURVE",
"212 254 OFFCURVE",
"212 320 CURVE SMOOTH",
"212 599 LINE SMOOTH",
"212 646 OFFCURVE",
"211 692 OFFCURVE",
"120 692 CURVE SMOOTH",
"28 692 OFFCURVE",
"28 645 OFFCURVE",
"28 600 CURVE SMOOTH",
"28 320 LINE SMOOTH",
"28 162 OFFCURVE",
"134 -20 OFFCURVE",
"336 -20 CURVE SMOOTH"
);
}
);
width = 675;
},
{
anchors = (
{
name = bottom;
position = "{231, 0}";
},
{
name = ogonek;
position = "{274, 10}";
},
{
name = top;
position = "{231, 700}";
},
{
name = topright;
position = "{412, 700}";
}
);
layerId = "4383C18A-60F2-4889-B7DB-EDD0F2222092";
paths = (
{
closed = 1;
nodes = (
"356 -11 OFFCURVE",
"407 86 OFFCURVE",
"407 259 CURVE SMOOTH",
"407 656 LINE SMOOTH",
"407 679 OFFCURVE",
"400 687 OFFCURVE",
"378 687 CURVE SMOOTH",
"355 687 OFFCURVE",
"347 681 OFFCURVE",
"347 663 CURVE SMOOTH",
"347 262 LINE SMOOTH",
"347 122 OFFCURVE",
"321 47 OFFCURVE",
"232 47 CURVE SMOOTH",
"142 47 OFFCURVE",
"116 122 OFFCURVE",
"116 261 CURVE SMOOTH",
"116 656 LINE SMOOTH",
"116 679 OFFCURVE",
"108 687 OFFCURVE",
"85 687 CURVE SMOOTH",
"63 687 OFFCURVE",
"55 679 OFFCURVE",
"55 657 CURVE SMOOTH",
"55 261 LINE SMOOTH",
"55 86 OFFCURVE",
"105 -11 OFFCURVE",
"229 -11 CURVE SMOOTH"
);
}
);
width = 462;
},
{
anchors = (
{
name = bottom;
position = "{363, -2}";
},
{
name = ogonek;
position = "{387, 8}";
},
{
name = top;
position = "{361, 700}";
},
{
name = topright;
position = "{723, 733}";
}
);
layerId = "988D29BF-96E2-481F-8769-6B283BD5795A";
paths = (
{
closed = 1;
nodes = (
"536 -11 OFFCURVE",
"639 104 OFFCURVE",
"639 298 CURVE SMOOTH",
"639 656 LINE SMOOTH",
"639 679 OFFCURVE",
"632 687 OFFCURVE",
"610 687 CURVE SMOOTH",
"587 687 OFFCURVE",
"579 681 OFFCURVE",
"579 663 CURVE SMOOTH",
"579 301 LINE SMOOTH",
"579 143 OFFCURVE",
"499 48 OFFCURVE",
"364 48 CURVE SMOOTH",
"228 48 OFFCURVE",
"148 143 OFFCURVE",
"148 300 CURVE SMOOTH",
"148 656 LINE SMOOTH",
"148 679 OFFCURVE",
"140 687 OFFCURVE",
"117 687 CURVE SMOOTH",
"95 687 OFFCURVE",
"87 679 OFFCURVE",
"87 657 CURVE SMOOTH",
"87 300 LINE SMOOTH",
"87 105 OFFCURVE",
"189 -11 OFFCURVE",
"361 -11 CURVE SMOOTH"
);
}
);
width = 726;
},
{
anchors = (
{
name = bottom;
position = "{295, 0}";
},
{
name = ogonek;
position = "{401, 10}";
},
{
name = top;
position = "{295, 700}";
},
{
name = topright;
position = "{569, 700}";
}
);
layerId = "C221B64C-0844-4CE6-BA2A-18F986CD7755";
paths = (
{
closed = 1;
nodes = (
"451 -20 OFFCURVE",
"544 83 OFFCURVE",
"544 258 CURVE SMOOTH",
"544 599 LINE SMOOTH",
"544 644 OFFCURVE",
"544 692 OFFCURVE",
"453 692 CURVE SMOOTH",
"363 692 OFFCURVE",
"361 648 OFFCURVE",
"361 605 CURVE SMOOTH",
"361 243 LINE SMOOTH",
"361 193 OFFCURVE",
"337 164 OFFCURVE",
"296 164 CURVE SMOOTH",
"254 164 OFFCURVE",
"229 193 OFFCURVE",
"229 242 CURVE SMOOTH",
"229 599 LINE SMOOTH",
"229 646 OFFCURVE",
"228 692 OFFCURVE",
"137 692 CURVE SMOOTH",
"45 692 OFFCURVE",
"45 645 OFFCURVE",
"45 600 CURVE SMOOTH",
"45 260 LINE SMOOTH",
"45 84 OFFCURVE",
"137 -20 OFFCURVE",
"293 -20 CURVE SMOOTH"
);
}
);
width = 589;
},
{
anchors = (
{
name = bottom;
position = "{486, 0}";
},
{
name = ogonek;
position = "{514, 10}";
},
{
name = top;
position = "{486, 700}";
},
{
name = topright;
position = "{902, 700}";
}
);
layerId = "F1D2FE0C-0290-44F9-97DF-753285E87900";
paths = (
{
closed = 1;
nodes = (
"782 -11 OFFCURVE",
"912 115 OFFCURVE",
"912 318 CURVE SMOOTH",
"912 656 LINE SMOOTH",
"912 676 OFFCURVE",
"902 687 OFFCURVE",
"883 687 CURVE SMOOTH",
"863 687 OFFCURVE",
"852 679 OFFCURVE",
"852 663 CURVE SMOOTH",
"852 321 LINE SMOOTH",
"852 155 OFFCURVE",
"744 47 OFFCURVE",
"487 47 CURVE SMOOTH",
"229 47 OFFCURVE",
"121 154 OFFCURVE",
"121 320 CURVE SMOOTH",
"121 656 LINE SMOOTH",
"121 676 OFFCURVE",
"110 687 OFFCURVE",
"90 687 CURVE SMOOTH",
"70 687 OFFCURVE",
"60 677 OFFCURVE",
"60 657 CURVE SMOOTH",
"60 320 LINE SMOOTH",
"60 116 OFFCURVE",
"188 -11 OFFCURVE",
"484 -11 CURVE SMOOTH"
);
}
);
width = 972;
},
{
anchors = (
{
name = bottom;
position = "{515, 0}";
},
{
name = ogonek;
position = "{550, 10}";
},
{
name = top;
position = "{515, 700}";
},
{
name = topright;
position = "{929, 700}";
}
);
layerId = "D56FD762-6887-41EE-B8AF-857F7388911F";
paths = (
{
closed = 1;
nodes = (
"833 -20 OFFCURVE",
"974 116 OFFCURVE",
"974 338 CURVE SMOOTH",
"974 599 LINE SMOOTH",
"974 644 OFFCURVE",
"974 692 OFFCURVE",
"883 692 CURVE SMOOTH",
"793 692 OFFCURVE",
"791 648 OFFCURVE",
"791 605 CURVE SMOOTH",
"791 341 LINE SMOOTH",
"791 238 OFFCURVE",
"714 164 OFFCURVE",
"516 164 CURVE SMOOTH",
"317 164 OFFCURVE",
"239 237 OFFCURVE",
"239 340 CURVE SMOOTH",
"239 599 LINE SMOOTH",
"239 646 OFFCURVE",
"238 692 OFFCURVE",
"147 692 CURVE SMOOTH",
"55 692 OFFCURVE",
"55 645 OFFCURVE",
"55 600 CURVE SMOOTH",
"55 340 LINE SMOOTH",
"55 117 OFFCURVE",
"195 -20 OFFCURVE",
"513 -20 CURVE SMOOTH"
);
}
);
width = 1029;
}
);
leftKerningGroup = U;
note = U;
rightKerningGroup = U;
unicode = 0055;
},
{
glyphname = V;
layers = (
{
anchors = (
{
name = bottom;
position = "{364, 0}";
},
{
name = top;
position = "{364, 700}";
}
);
layerId = "05A6575B-AA27-4212-BC78-A0BDA398BBDE";
paths = (
{
closed = 1;
nodes = (
"404 -8 OFFCURVE",
"438 12 OFFCURVE",
"452 42 CURVE SMOOTH",
"689 563 LINE",
"715 622 OFFCURVE",
"709 648 OFFCURVE",
"643 680 CURVE",
"582 714 OFFCURVE",
"547 699 OFFCURVE",
"522 638 CURVE SMOOTH",
"364 249 LINE",
"206 638 LINE SMOOTH",
"181 699 OFFCURVE",
"149 715 OFFCURVE",
"85 680 CURVE",
"23 650 OFFCURVE",
"13 622 OFFCURVE",
"39 563 CURVE",
"276 42 LINE SMOOTH",
"291 9 OFFCURVE",
"322 -8 OFFCURVE",
"366 -8 CURVE SMOOTH"
);
}
);
width = 728;
},
{
anchors = (
{
name = bottom;
position = "{230, 0}";
},
{
name = top;
position = "{225, 700}";
}
);
layerId = "4383C18A-60F2-4889-B7DB-EDD0F2222092";
paths = (
{
closed = 1;
nodes = (
"248 -11 OFFCURVE",
"260 -6 OFFCURVE",
"263 6 CURVE SMOOTH",
"419 643 LINE SMOOTH",
"423 658 OFFCURVE",
"435 677 OFFCURVE",
"406 688 CURVE SMOOTH",
"377 699 OFFCURVE",
"368 683 OFFCURVE",
"364 665 CURVE SMOOTH",
"229 62 LINE",
"92 676 LINE SMOOTH",
"88 694 OFFCURVE",
"74 695 OFFCURVE",
"58 689 CURVE SMOOTH",
"40 682 OFFCURVE",
"31 678 OFFCURVE",
"37 655 CURVE SMOOTH",
"196 5 LINE SMOOTH",
"199 -8 OFFCURVE",
"211 -11 OFFCURVE",
"229 -11 CURVE SMOOTH"
);
}
);
width = 460;
},
{
anchors = (
{
name = bottom;
position = "{361, 0}";
},
{
name = top;
position = "{362, 700}";
}
);
layerId = "988D29BF-96E2-481F-8769-6B283BD5795A";
paths = (
{
closed = 1;
nodes = (
"380 -11 OFFCURVE",
"390 -6 OFFCURVE",
"395 6 CURVE SMOOTH",
"651 643 LINE SMOOTH",
"657 658 OFFCURVE",
"668 674 OFFCURVE",
"640 688 CURVE SMOOTH",
"611 702 OFFCURVE",
"604 685 OFFCURVE",
"596 665 CURVE SMOOTH",
"361 72 LINE",
"124 676 LINE SMOOTH",
"116 696 OFFCURVE",
"103 697 OFFCURVE",
"87 689 CURVE SMOOTH",
"69 680 OFFCURVE",
"60 678 OFFCURVE",
"69 655 CURVE SMOOTH",
"328 5 LINE SMOOTH",
"333 -8 OFFCURVE",
"343 -11 OFFCURVE",
"361 -11 CURVE SMOOTH"
);
}
);
width = 723;
},
{
anchors = (
{
name = bottom;
position = "{308, 0}";
},
{
name = top;
position = "{308, 700}";
}
);
layerId = "C221B64C-0844-4CE6-BA2A-18F986CD7755";
paths = (
{
closed = 1;
nodes = (
"352 -11 OFFCURVE",
"382 11 OFFCURVE",
"394 45 CURVE SMOOTH",
"581 577 LINE SMOOTH",
"602 636 OFFCURVE",
"591 664 OFFCURVE",
"527 685 CURVE SMOOTH",
"459 707 OFFCURVE",
"426 689 OFFCURVE",
"409 629 CURVE SMOOTH",
"308 272 LINE",
"207 629 LINE SMOOTH",
"190 689 OFFCURVE",
"157 707 OFFCURVE",
"89 685 CURVE SMOOTH",
"25 664 OFFCURVE",
"14 636 OFFCURVE",
"35 577 CURVE SMOOTH",
"222 45 LINE SMOOTH",
"234 11 OFFCURVE",
"264 -11 OFFCURVE",
"308 -11 CURVE SMOOTH"
);
}
);
width = 616;
},
{
anchors = (
{
name = bottom;
position = "{470, 0}";
},
{
name = top;
position = "{470, 700}";
}
);
layerId = "F1D2FE0C-0290-44F9-97DF-753285E87900";
paths = (
{
closed = 1;
nodes = (
"488 -11 OFFCURVE",
"495 -8 OFFCURVE",
"503 5 CURVE SMOOTH",
"900 653 LINE SMOOTH",
"912 673 OFFCURVE",
"902 680 OFFCURVE",
"885 689 CURVE SMOOTH",
"868 698 OFFCURVE",
"858 697 OFFCURVE",
"847 678 CURVE SMOOTH",
"470 62 LINE",
"93 678 LINE SMOOTH",
"82 697 OFFCURVE",
"72 698 OFFCURVE",
"55 689 CURVE SMOOTH",
"38 680 OFFCURVE",
"28 673 OFFCURVE",
"40 653 CURVE SMOOTH",
"437 5 LINE SMOOTH",
"445 -8 OFFCURVE",
"452 -11 OFFCURVE",
"470 -11 CURVE SMOOTH"
);
}
);
width = 940;
},
{
anchors = (
{
name = bottom;
position = "{506, 0}";
},
{
name = top;
position = "{506, 700}";
}
);
layerId = "D56FD762-6887-41EE-B8AF-857F7388911F";
paths = (
{
closed = 1;
nodes = (
"545 -8 OFFCURVE",
"574 15 OFFCURVE",
"593 42 CURVE SMOOTH",
"970 563 LINE SMOOTH",
"1004 611 OFFCURVE",
"990 640 OFFCURVE",
"924 680 CURVE SMOOTH",
"863 717 OFFCURVE",
"840 691 OFFCURVE",
"803 638 CURVE SMOOTH",
"505 219 LINE",
"207 638 LINE SMOOTH",
"170 691 OFFCURVE",
"149 718 OFFCURVE",
"86 680 CURVE SMOOTH",
"24 643 OFFCURVE",
"6 611 OFFCURVE",
"40 563 CURVE SMOOTH",
"417 42 LINE SMOOTH",
"438 12 OFFCURVE",
"463 -8 OFFCURVE",
"507 -8 CURVE SMOOTH"
);
}
);
width = 1011;
}
);
note = V;
rightKerningGroup = d;
unicode = 0056;
},
{
glyphname = W;
layers = (
{
anchors = (
{
name = bottom;
position = "{474, 0}";
},
{
name = top;
position = "{474, 700}";
}
);
layerId = "05A6575B-AA27-4212-BC78-A0BDA398BBDE";
paths = (
{
closed = 1;
nodes = (
"359 -8 OFFCURVE",
"376 50 OFFCURVE",
"379 60 CURVE",
"473 367 LINE",
"567 59 LINE",
"569 52 OFFCURVE",
"587 -8 OFFCURVE",
"656 -8 CURVE SMOOTH",
"724 -8 OFFCURVE",
"739 41 OFFCURVE",
"743 54 CURVE",
"922 570 LINE SMOOTH",
"941 635 OFFCURVE",
"937 661 OFFCURVE",
"865 687 CURVE SMOOTH",
"796 710 OFFCURVE",
"771 694 OFFCURVE",
"749 629 CURVE SMOOTH",
"645 323 LINE",
"563 623 LINE",
"557 638 OFFCURVE",
"547 691 OFFCURVE",
"471 691 CURVE SMOOTH",
"403 691 OFFCURVE",
"388 644 OFFCURVE",
"383 624 CURVE",
"301 325 LINE",
"197 629 LINE SMOOTH",
"174 696 OFFCURVE",
"150 708 OFFCURVE",
"82 686 CURVE SMOOTH",
"13 663 OFFCURVE",
"4 636 OFFCURVE",
"24 570 CURVE SMOOTH",
"204 54 LINE",
"207 43 OFFCURVE",
"226 -8 OFFCURVE",
"290 -8 CURVE SMOOTH"
);
}
);
width = 947;
},
{
anchors = (
{
name = bottom;
position = "{375, 0}";
},
{
name = top;
position = "{375, 700}";
}
);
layerId = "4383C18A-60F2-4889-B7DB-EDD0F2222092";
paths = (
{
closed = 1;
nodes = (
"228 -6 OFFCURVE",
"235 0 OFFCURVE",
"241 17 CURVE",
"374 581 LINE",
"507 17 LINE",
"513 0 OFFCURVE",
"520 -6 OFFCURVE",
"536 -6 CURVE SMOOTH",
"552 -6 OFFCURVE",
"559 -1 OFFCURVE",
"564 14 CURVE",
"711 647 LINE SMOOTH",
"716 670 OFFCURVE",
"715 680 OFFCURVE",
"696 686 CURVE SMOOTH",
"673 693 OFFCURVE",
"660 688 OFFCURVE",
"655 665 CURVE SMOOTH",
"535 102 LINE",
"403 669 LINE",
"400 682 OFFCURVE",
"392 687 OFFCURVE",
"373 687 CURVE SMOOTH",
"356 687 OFFCURVE",
"347 681 OFFCURVE",
"343 664 CURVE SMOOTH",
"213 105 LINE",
"93 667 LINE SMOOTH",
"89 687 OFFCURVE",
"77 691 OFFCURVE",
"55 684 CURVE SMOOTH",
"34 677 OFFCURVE",
"32 667 OFFCURVE",
"37 647 CURVE SMOOTH",
"184 15 LINE",
"187 -1 OFFCURVE",
"194 -6 OFFCURVE",
"212 -6 CURVE SMOOTH"
);
}
);
width = 749;
},
{
anchors = (
{
name = bottom;
position = "{486, -3}";
},
{
name = top;
position = "{486, 700}";
}
);
layerId = "988D29BF-96E2-481F-8769-6B283BD5795A";
paths = (
{
closed = 1;
nodes = (
"294 -6 OFFCURVE",
"301 0 OFFCURVE",
"307 17 CURVE",
"485 588 LINE",
"663 17 LINE",
"669 0 OFFCURVE",
"676 -6 OFFCURVE",
"692 -6 CURVE SMOOTH",
"708 -6 OFFCURVE",
"715 -1 OFFCURVE",
"720 14 CURVE",
"932 647 LINE SMOOTH",
"940 670 OFFCURVE",
"936 680 OFFCURVE",
"917 686 CURVE SMOOTH",
"894 694 OFFCURVE",
"883 688 OFFCURVE",
"876 665 CURVE SMOOTH",
"691 95 LINE",
"514 669 LINE",
"511 682 OFFCURVE",
"503 687 OFFCURVE",
"484 687 CURVE SMOOTH",
"467 687 OFFCURVE",
"459 681 OFFCURVE",
"454 664 CURVE SMOOTH",
"279 98 LINE",
"94 667 LINE SMOOTH",
"87 687 OFFCURVE",
"78 691 OFFCURVE",
"56 684 CURVE SMOOTH",
"35 677 OFFCURVE",
"31 667 OFFCURVE",
"38 647 CURVE SMOOTH",
"250 15 LINE",
"253 -1 OFFCURVE",
"260 -6 OFFCURVE",
"278 -6 CURVE SMOOTH"
);
}
);
width = 971;
},
{
anchors = (
{
name = bottom;
position = "{428, 0}";
},
{
name = top;
position = "{428, 700}";
}
);
layerId = "C221B64C-0844-4CE6-BA2A-18F986CD7755";
paths = (
{
closed = 1;
nodes = (
"349 -8 OFFCURVE",
"371 19 OFFCURVE",
"379 63 CURVE SMOOTH",
"433 377 LINE",
"487 63 LINE SMOOTH",
"494 21 OFFCURVE",
"517 -8 OFFCURVE",
"586 -8 CURVE SMOOTH",
"654 -8 OFFCURVE",
"664 32 OFFCURVE",
"673 63 CURVE SMOOTH",
"822 573 LINE SMOOTH",
"841 637 OFFCURVE",
"837 665 OFFCURVE",
"765 690 CURVE SMOOTH",
"697 714 OFFCURVE",
"664 698 OFFCURVE",
"649 632 CURVE SMOOTH",
"575 313 LINE",
"523 626 LINE SMOOTH",
"517 661 OFFCURVE",
"507 694 OFFCURVE",
"431 694 CURVE SMOOTH",
"363 694 OFFCURVE",
"350 667 OFFCURVE",
"343 626 CURVE SMOOTH",
"291 315 LINE",
"217 632 LINE SMOOTH",
"201 699 OFFCURVE",
"170 710 OFFCURVE",
"102 689 CURVE SMOOTH",
"33 668 OFFCURVE",
"25 639 OFFCURVE",
"44 573 CURVE SMOOTH",
"194 63 LINE SMOOTH",
"203 34 OFFCURVE",
"216 -8 OFFCURVE",
"280 -8 CURVE SMOOTH"
);
}
);
width = 867;
},
{
anchors = (
{
name = bottom;
position = "{688, 0}";
},
{
name = top;
position = "{688, 700}";
}
);
layerId = "F1D2FE0C-0290-44F9-97DF-753285E87900";
paths = (
{
closed = 1;
nodes = (
"390 -6 OFFCURVE",
"396 0 OFFCURVE",
"404 17 CURVE SMOOTH",
"687 591 LINE",
"970 17 LINE SMOOTH",
"978 0 OFFCURVE",
"984 -6 OFFCURVE",
"999 -6 CURVE SMOOTH",
"1015 -6 OFFCURVE",
"1020 -1 OFFCURVE",
"1027 14 CURVE SMOOTH",
"1334 646 LINE SMOOTH",
"1345 668 OFFCURVE",
"1340 678 OFFCURVE",
"1319 686 CURVE SMOOTH",
"1297 694 OFFCURVE",
"1289 688 OFFCURVE",
"1278 665 CURVE SMOOTH",
"998 92 LINE",
"716 669 LINE",
"712 682 OFFCURVE",
"705 687 OFFCURVE",
"686 687 CURVE SMOOTH",
"670 687 OFFCURVE",
"664 681 OFFCURVE",
"656 664 CURVE SMOOTH",
"376 95 LINE",
"96 667 LINE SMOOTH",
"86 687 OFFCURVE",
"79 691 OFFCURVE",
"58 684 CURVE SMOOTH",
"36 677 OFFCURVE",
"30 667 OFFCURVE",
"40 647 CURVE SMOOTH",
"347 15 LINE SMOOTH",
"354 0 OFFCURVE",
"357 -6 OFFCURVE",
"375 -6 CURVE SMOOTH"
);
}
);
width = 1375;
},
{
anchors = (
{
name = bottom;
position = "{637, 0}";
},
{
name = top;
position = "{637, 700}";
}
);
layerId = "D56FD762-6887-41EE-B8AF-857F7388911F";
paths = (
{
closed = 1;
nodes = (
"448 -8 OFFCURVE",
"459 30 OFFCURVE",
"468 51 CURVE SMOOTH",
"637 427 LINE",
"806 51 LINE SMOOTH",
"815 31 OFFCURVE",
"826 -8 OFFCURVE",
"895 -8 CURVE SMOOTH",
"963 -8 OFFCURVE",
"973 32 OFFCURVE",
"982 51 CURVE SMOOTH",
"1236 570 LINE SMOOTH",
"1264 626 OFFCURVE",
"1251 656 OFFCURVE",
"1179 687 CURVE SMOOTH",
"1111 716 OFFCURVE",
"1095 690 OFFCURVE",
"1063 629 CURVE SMOOTH",
"884 283 LINE",
"727 623 LINE SMOOTH",
"718 642 OFFCURVE",
"701 691 OFFCURVE",
"635 691 CURVE SMOOTH",
"577 691 OFFCURVE",
"558 647 OFFCURVE",
"547 624 CURVE SMOOTH",
"390 285 LINE",
"211 629 LINE SMOOTH",
"179 691 OFFCURVE",
"164 714 OFFCURVE",
"96 686 CURVE SMOOTH",
"27 658 OFFCURVE",
"10 626 OFFCURVE",
"38 570 CURVE SMOOTH",
"293 51 LINE SMOOTH",
"302 32 OFFCURVE",
"315 -8 OFFCURVE",
"379 -8 CURVE SMOOTH"
);
}
);
width = 1275;
}
);
note = W;
rightKerningGroup = d;
unicode = 0057;
},
{
glyphname = X;
layers = (
{
anchors = (
{
name = bottom;
position = "{345, 0}";
},
{
name = top;
position = "{345, 693}";
}
);
layerId = "05A6575B-AA27-4212-BC78-A0BDA398BBDE";
paths = (
{
closed = 1;
nodes = (
"695 64 OFFCURVE",
"691 95 OFFCURVE",
"646 144 CURVE SMOOTH",
"176 661 LINE SMOOTH",
"131 714 OFFCURVE",
"101 716 OFFCURVE",
"47 667 CURVE SMOOTH",
"-5 619 OFFCURVE",
"-2 585 OFFCURVE",
"42 538 CURVE SMOOTH",
"512 22 LINE SMOOTH",
"557 -31 OFFCURVE",
"587 -33 OFFCURVE",
"641 16 CURVE SMOOTH"
);
},
{
closed = 1;
nodes = (
"102 -33 OFFCURVE",
"132 -31 OFFCURVE",
"177 22 CURVE SMOOTH",
"647 538 LINE SMOOTH",
"691 585 OFFCURVE",
"695 619 OFFCURVE",
"642 667 CURVE SMOOTH",
"588 716 OFFCURVE",
"558 714 OFFCURVE",
"513 661 CURVE SMOOTH",
"43 144 LINE SMOOTH",
"-2 95 OFFCURVE",
"-6 64 OFFCURVE",
"48 16 CURVE SMOOTH"
);
}
);
width = 689;
},
{
anchors = (
{
name = bottom;
position = "{212, 0}";
},
{
name = top;
position = "{212, 693}";
}
);
layerId = "4383C18A-60F2-4889-B7DB-EDD0F2222092";
paths = (
{
closed = 1;
nodes = (
"388 -1 OFFCURVE",
"384 7 OFFCURVE",
"375 28 CURVE SMOOTH",
"100 677 LINE SMOOTH",
"91 697 OFFCURVE",
"76 696 OFFCURVE",
"58 683 CURVE SMOOTH",
"40 670 OFFCURVE",
"44 662 OFFCURVE",
"53 641 CURVE SMOOTH",
"328 -6 LINE SMOOTH",
"337 -27 OFFCURVE",
"351 -26 OFFCURVE",
"370 -13 CURVE SMOOTH"
);
},
{
closed = 1;
nodes = (
"77 -26 OFFCURVE",
"91 -27 OFFCURVE",
"100 -6 CURVE SMOOTH",
"375 641 LINE SMOOTH",
"384 662 OFFCURVE",
"388 670 OFFCURVE",
"370 683 CURVE SMOOTH",
"352 696 OFFCURVE",
"337 697 OFFCURVE",
"328 677 CURVE SMOOTH",
"53 28 LINE SMOOTH",
"44 7 OFFCURVE",
"40 -1 OFFCURVE",
"58 -13 CURVE SMOOTH"
);
}
);
width = 428;
},
{
anchors = (
{
name = bottom;
position = "{338, -2}";
},
{
name = top;
position = "{338, 693}";
}
);
layerId = "988D29BF-96E2-481F-8769-6B283BD5795A";
paths = (
{
closed = 1;
nodes = (
"621 -1 OFFCURVE",
"622 10 OFFCURVE",
"608 28 CURVE SMOOTH",
"134 677 LINE SMOOTH",
"121 695 OFFCURVE",
"110 696 OFFCURVE",
"93 683 CURVE SMOOTH",
"75 670 OFFCURVE",
"74 660 OFFCURVE",
"88 641 CURVE SMOOTH",
"562 -6 LINE SMOOTH",
"576 -25 OFFCURVE",
"585 -26 OFFCURVE",
"603 -13 CURVE SMOOTH"
);
},
{
closed = 1;
nodes = (
"111 -26 OFFCURVE",
"120 -25 OFFCURVE",
"134 -6 CURVE SMOOTH",
"608 641 LINE SMOOTH",
"622 660 OFFCURVE",
"621 670 OFFCURVE",
"603 683 CURVE SMOOTH",
"586 696 OFFCURVE",
"575 695 OFFCURVE",
"562 677 CURVE SMOOTH",
"88 28 LINE SMOOTH",
"74 10 OFFCURVE",
"75 -1 OFFCURVE",
"93 -13 CURVE SMOOTH"
);
}
);
width = 696;
},
{
anchors = (
{
name = bottom;
position = "{296, 0}";
},
{
name = top;
position = "{296, 693}";
}
);
layerId = "C221B64C-0844-4CE6-BA2A-18F986CD7755";
paths = (
{
closed = 1;
nodes = (
"549 39 OFFCURVE",
"558 75 OFFCURVE",
"524 132 CURVE SMOOTH",
"221 648 LINE SMOOTH",
"189 706 OFFCURVE",
"153 715 OFFCURVE",
"96 681 CURVE SMOOTH",
"40 647 OFFCURVE",
"32 611 OFFCURVE",
"65 555 CURVE SMOOTH",
"368 40 LINE SMOOTH",
"399 -17 OFFCURVE",
"435 -26 OFFCURVE",
"493 7 CURVE SMOOTH"
);
},
{
closed = 1;
nodes = (
"153 -27 OFFCURVE",
"190 -17 OFFCURVE",
"221 40 CURVE SMOOTH",
"524 555 LINE SMOOTH",
"557 611 OFFCURVE",
"549 647 OFFCURVE",
"493 681 CURVE SMOOTH",
"436 715 OFFCURVE",
"400 706 OFFCURVE",
"368 648 CURVE SMOOTH",
"65 132 LINE SMOOTH",
"31 75 OFFCURVE",
"40 40 OFFCURVE",
"96 7 CURVE SMOOTH"
);
}
);
width = 589;
},
{
anchors = (
{
name = bottom;
position = "{455, 0}";
},
{
name = top;
position = "{455, 693}";
}
);
layerId = "F1D2FE0C-0290-44F9-97DF-753285E87900";
paths = (
{
closed = 1;
nodes = (
"875 1 OFFCURVE",
"882 13 OFFCURVE",
"864 28 CURVE SMOOTH",
"92 677 LINE SMOOTH",
"75 692 OFFCURVE",
"68 698 OFFCURVE",
"51 683 CURVE SMOOTH",
"33 667 OFFCURVE",
"29 655 OFFCURVE",
"46 641 CURVE SMOOTH",
"818 -6 LINE SMOOTH",
"834 -20 OFFCURVE",
"841 -29 OFFCURVE",
"859 -13 CURVE SMOOTH"
);
},
{
closed = 1;
nodes = (
"69 -29 OFFCURVE",
"76 -20 OFFCURVE",
"92 -6 CURVE SMOOTH",
"864 641 LINE SMOOTH",
"881 655 OFFCURVE",
"877 668 OFFCURVE",
"859 683 CURVE SMOOTH",
"842 698 OFFCURVE",
"835 692 OFFCURVE",
"818 677 CURVE SMOOTH",
"46 28 LINE SMOOTH",
"28 13 OFFCURVE",
"35 1 OFFCURVE",
"51 -13 CURVE SMOOTH"
);
}
);
width = 910;
},
{
anchors = (
{
name = bottom;
position = "{520, 0}";
},
{
name = top;
position = "{520, 693}";
}
);
layerId = "D56FD762-6887-41EE-B8AF-857F7388911F";
paths = (
{
closed = 1;
nodes = (
"1017 83 OFFCURVE",
"1010 117 OFFCURVE",
"955 154 CURVE SMOOTH",
"192 672 LINE SMOOTH",
"134 711 OFFCURVE",
"109 714 OFFCURVE",
"64 657 CURVE SMOOTH",
"19 601 OFFCURVE",
"27 566 OFFCURVE",
"80 530 CURVE SMOOTH",
"843 11 LINE SMOOTH",
"900 -28 OFFCURVE",
"925 -31 OFFCURVE",
"971 27 CURVE SMOOTH"
);
},
{
closed = 1;
nodes = (
"112 -30 OFFCURVE",
"136 -28 OFFCURVE",
"193 11 CURVE SMOOTH",
"956 530 LINE SMOOTH",
"1009 566 OFFCURVE",
"1017 601 OFFCURVE",
"972 657 CURVE SMOOTH",
"927 714 OFFCURVE",
"902 711 OFFCURVE",
"844 672 CURVE SMOOTH",
"81 154 LINE SMOOTH",
"26 117 OFFCURVE",
"19 83 OFFCURVE",
"65 27 CURVE SMOOTH"
);
}
);
width = 1036;
}
);
note = X;
rightKerningGroup = d;
unicode = 0058;
},
{
glyphname = Y;
layers = (
{
anchors = (
{
name = bottom;
position = "{319, 0}";
},
{
name = top;
position = "{319, 700}";
},
{
name = topleft;
position = "{20, 700}";
}
);
layerId = "05A6575B-AA27-4212-BC78-A0BDA398BBDE";
paths = (
{
closed = 1;
nodes = (
"521 715 OFFCURVE",
"493 709 OFFCURVE",
"455 651 CURVE SMOOTH",
"316 437 LINE",
"183 651 LINE SMOOTH",
"148 706 OFFCURVE",
"117 718 OFFCURVE",
"55 676 CURVE SMOOTH",
"-2 638 OFFCURVE",
"-9 605 OFFCURVE",
"28 553 CURVE SMOOTH",
"227 255 LINE",
"227 82 LINE SMOOTH",
"227 36 OFFCURVE",
"227 -11 OFFCURVE",
"319 -11 CURVE SMOOTH",
"411 -11 OFFCURVE",
"411 35 OFFCURVE",
"411 80 CURVE SMOOTH",
"411 255 LINE",
"610 553 LINE SMOOTH",
"645 603 OFFCURVE",
"642 636 OFFCURVE",
"584 676 CURVE"
);
}
);
width = 638;
},
{
anchors = (
{
name = bottom;
position = "{217, 0}";
},
{
name = top;
position = "{217, 700}";
},
{
name = topleft;
position = "{-31, 700}";
}
);
layerId = "4383C18A-60F2-4889-B7DB-EDD0F2222092";
paths = (
{
closed = 1;
nodes = (
"347 697 OFFCURVE",
"335 689 OFFCURVE",
"329 672 CURVE SMOOTH",
"217 357 LINE",
"105 672 LINE SMOOTH",
"99 689 OFFCURVE",
"87 697 OFFCURVE",
"66 688 CURVE SMOOTH",
"47 680 OFFCURVE",
"41 669 OFFCURVE",
"48 652 CURVE SMOOTH",
"187 287 LINE",
"187 21 LINE SMOOTH",
"187 -3 OFFCURVE",
"195 -11 OFFCURVE",
"217 -11 CURVE SMOOTH",
"239 -11 OFFCURVE",
"247 -3 OFFCURVE",
"247 19 CURVE SMOOTH",
"247 289 LINE",
"386 652 LINE SMOOTH",
"393 669 OFFCURVE",
"387 680 OFFCURVE",
"368 688 CURVE SMOOTH"
);
}
);
width = 434;
},
{
anchors = (
{
name = bottom;
position = "{319, 0}";
},
{
name = top;
position = "{319, 700}";
},
{
name = topleft;
position = "{20, 700}";
}
);
layerId = "988D29BF-96E2-481F-8769-6B283BD5795A";
paths = (
{
closed = 1;
nodes = (
"568 699 OFFCURVE",
"557 698 OFFCURVE",
"547 682 CURVE SMOOTH",
"320 326 LINE",
"92 682 LINE SMOOTH",
"81 699 OFFCURVE",
"71 700 OFFCURVE",
"52 686 CURVE SMOOTH",
"34 673 OFFCURVE",
"31 663 OFFCURVE",
"41 648 CURVE SMOOTH",
"290 275 LINE",
"290 21 LINE SMOOTH",
"290 -3 OFFCURVE",
"298 -11 OFFCURVE",
"320 -11 CURVE SMOOTH",
"342 -11 OFFCURVE",
"350 -3 OFFCURVE",
"350 19 CURVE SMOOTH",
"350 274 LINE",
"597 650 LINE SMOOTH",
"607 665 OFFCURVE",
"605 675 OFFCURVE",
"588 688 CURVE"
);
}
);
width = 638;
},
{
anchors = (
{
name = bottom;
position = "{305, 0}";
},
{
name = top;
position = "{305, 700}";
},
{
name = topleft;
position = "{20, 700}";
}
);
layerId = "C221B64C-0844-4CE6-BA2A-18F986CD7755";
paths = (
{
closed = 1;
nodes = (
"460 718 OFFCURVE",
"430 705 OFFCURVE",
"403 645 CURVE SMOOTH",
"305 429 LINE",
"206 645 LINE SMOOTH",
"179 705 OFFCURVE",
"149 718 OFFCURVE",
"82 684 CURVE SMOOTH",
"21 653 OFFCURVE",
"9 621 OFFCURVE",
"41 564 CURVE SMOOTH",
"226 238 LINE",
"226 82 LINE SMOOTH",
"226 36 OFFCURVE",
"226 -11 OFFCURVE",
"318 -11 CURVE SMOOTH",
"410 -11 OFFCURVE",
"410 35 OFFCURVE",
"410 80 CURVE SMOOTH",
"410 286 LINE",
"568 564 LINE SMOOTH",
"600 621 OFFCURVE",
"588 653 OFFCURVE",
"527 684 CURVE SMOOTH"
);
}
);
width = 609;
},
{
anchors = (
{
name = bottom;
position = "{463, 0}";
},
{
name = top;
position = "{463, 700}";
},
{
name = topleft;
position = "{55, 700}";
}
);
layerId = "F1D2FE0C-0290-44F9-97DF-753285E87900";
paths = (
{
closed = 1;
nodes = (
"857 702 OFFCURVE",
"848 696 OFFCURVE",
"834 682 CURVE SMOOTH",
"463 319 LINE",
"92 682 LINE SMOOTH",
"78 696 OFFCURVE",
"69 702 OFFCURVE",
"51 688 CURVE SMOOTH",
"34 675 OFFCURVE",
"29 662 OFFCURVE",
"42 649 CURVE SMOOTH",
"437 261 LINE",
"437 21 LINE SMOOTH",
"437 -3 OFFCURVE",
"445 -11 OFFCURVE",
"467 -11 CURVE SMOOTH",
"489 -11 OFFCURVE",
"497 -3 OFFCURVE",
"497 19 CURVE SMOOTH",
"497 270 LINE",
"884 649 LINE SMOOTH",
"897 662 OFFCURVE",
"892 675 OFFCURVE",
"875 688 CURVE SMOOTH"
);
}
);
width = 926;
},
{
anchors = (
{
name = bottom;
position = "{485, 0}";
},
{
name = top;
position = "{485, 700}";
},
{
name = topleft;
position = "{70, 700}";
}
);
layerId = "D56FD762-6887-41EE-B8AF-857F7388911F";
paths = (
{
closed = 1;
nodes = (
"863 718 OFFCURVE",
"835 711 OFFCURVE",
"783 670 CURVE SMOOTH",
"486 440 LINE",
"187 670 LINE SMOOTH",
"135 710 OFFCURVE",
"107 718 OFFCURVE",
"57 662 CURVE SMOOTH",
"12 611 OFFCURVE",
"11 574 OFFCURVE",
"62 536 CURVE SMOOTH",
"400 281 LINE",
"400 82 LINE SMOOTH",
"400 36 OFFCURVE",
"400 -11 OFFCURVE",
"492 -11 CURVE SMOOTH",
"584 -11 OFFCURVE",
"584 35 OFFCURVE",
"584 80 CURVE SMOOTH",
"584 292 LINE",
"908 536 LINE SMOOTH",
"959 574 OFFCURVE",
"958 611 OFFCURVE",
"913 662 CURVE SMOOTH"
);
}
);
width = 970;
}
);
leftKerningGroup = Y;
note = Y;
rightKerningGroup = Y;
unicode = 0059;
},
{
glyphname = Z;
layers = (
{
anchors = (
{
name = bottom;
position = "{299, 0}";
},
{
name = top;
position = "{299, 700}";
}
);
layerId = "05A6575B-AA27-4212-BC78-A0BDA398BBDE";
paths = (
{
closed = 1;
nodes = (
"492 -11 LINE SMOOTH",
"537 -11 OFFCURVE",
"584 -11 OFFCURVE",
"584 80 CURVE SMOOTH",
"584 166 OFFCURVE",
"537 168 OFFCURVE",
"494 168 CURVE SMOOTH",
"280 168 LINE",
"558 553 LINE SMOOTH",
"567 564 OFFCURVE",
"571 579 OFFCURVE",
"571 598 CURVE SMOOTH",
"571 651 OFFCURVE",
"530 692 OFFCURVE",
"480 692 CURVE SMOOTH",
"106 692 LINE SMOOTH",
"61 692 OFFCURVE",
"14 692 OFFCURVE",
"14 600 CURVE SMOOTH",
"14 512 OFFCURVE",
"64 512 OFFCURVE",
"109 512 CURVE SMOOTH",
"305 512 LINE",
"27 127 LINE SMOOTH",
"18 116 OFFCURVE",
"14 100 OFFCURVE",
"14 82 CURVE SMOOTH",
"14 28 OFFCURVE",
"54 -11 OFFCURVE",
"105 -11 CURVE SMOOTH"
);
}
);
width = 598;
},
{
anchors = (
{
name = bottom;
position = "{207, 0}";
},
{
name = top;
position = "{207, 700}";
}
);
layerId = "4383C18A-60F2-4889-B7DB-EDD0F2222092";
paths = (
{
closed = 1;
nodes = (
"332 -10 LINE SMOOTH",
"355 -10 OFFCURVE",
"363 -3 OFFCURVE",
"363 19 CURVE SMOOTH",
"363 39 OFFCURVE",
"356 46 OFFCURVE",
"334 46 CURVE SMOOTH",
"120 46 LINE",
"364 630 LINE SMOOTH",
"368 639 OFFCURVE",
"370 651 OFFCURVE",
"364 662 CURVE SMOOTH",
"359 670 OFFCURVE",
"351 677 OFFCURVE",
"339 677 CURVE SMOOTH",
"97 677 LINE SMOOTH",
"74 677 OFFCURVE",
"66 669 OFFCURVE",
"66 646 CURVE SMOOTH",
"66 627 OFFCURVE",
"75 620 OFFCURVE",
"100 620 CURVE SMOOTH",
"295 620 LINE",
"50 33 LINE SMOOTH",
"47 26 OFFCURVE",
"45 20 OFFCURVE",
"45 13 CURVE SMOOTH",
"45 -4 OFFCURVE",
"59 -10 OFFCURVE",
"76 -10 CURVE SMOOTH"
);
}
);
width = 413;
},
{
anchors = (
{
name = bottom;
position = "{284, -3}";
},
{
name = top;
position = "{284, 700}";
}
);
layerId = "988D29BF-96E2-481F-8769-6B283BD5795A";
paths = (
{
closed = 1;
nodes = (
"501 -11 LINE SMOOTH",
"524 -11 OFFCURVE",
"532 -4 OFFCURVE",
"532 18 CURVE SMOOTH",
"532 38 OFFCURVE",
"525 45 OFFCURVE",
"503 45 CURVE SMOOTH",
"116 45 LINE",
"506 630 LINE SMOOTH",
"511 637 OFFCURVE",
"516 647 OFFCURVE",
"516 661 CURVE SMOOTH",
"516 671 OFFCURVE",
"508 687 OFFCURVE",
"488 687 CURVE SMOOTH",
"66 687 LINE SMOOTH",
"43 687 OFFCURVE",
"35 679 OFFCURVE",
"35 656 CURVE SMOOTH",
"35 637 OFFCURVE",
"44 630 OFFCURVE",
"69 630 CURVE SMOOTH",
"438 630 LINE",
"40 36 LINE",
"37 32 OFFCURVE",
"35 23 OFFCURVE",
"35 18 CURVE SMOOTH",
"35 -3 OFFCURVE",
"46 -11 OFFCURVE",
"63 -11 CURVE SMOOTH"
);
}
);
width = 567;
},
{
anchors = (
{
name = bottom;
position = "{279, 0}";
},
{
name = top;
position = "{279, 700}";
}
);
layerId = "C221B64C-0844-4CE6-BA2A-18F986CD7755";
paths = (
{
closed = 1;
nodes = (
"435 -11 LINE SMOOTH",
"480 -11 OFFCURVE",
"527 -11 OFFCURVE",
"527 80 CURVE SMOOTH",
"527 166 OFFCURVE",
"480 168 OFFCURVE",
"437 168 CURVE SMOOTH",
"283 168 LINE",
"501 553 LINE SMOOTH",
"508 565 OFFCURVE",
"514 579 OFFCURVE",
"514 598 CURVE SMOOTH",
"514 651 OFFCURVE",
"473 692 OFFCURVE",
"423 692 CURVE SMOOTH",
"129 692 LINE SMOOTH",
"84 692 OFFCURVE",
"37 692 OFFCURVE",
"37 600 CURVE SMOOTH",
"37 512 OFFCURVE",
"87 512 OFFCURVE",
"132 512 CURVE SMOOTH",
"268 512 LINE",
"50 127 LINE SMOOTH",
"43 115 OFFCURVE",
"37 100 OFFCURVE",
"37 82 CURVE SMOOTH",
"37 28 OFFCURVE",
"77 -11 OFFCURVE",
"128 -11 CURVE SMOOTH"
);
}
);
width = 558;
},
{
anchors = (
{
name = bottom;
position = "{434, 0}";
},
{
name = top;
position = "{434, 700}";
}
);
layerId = "F1D2FE0C-0290-44F9-97DF-753285E87900";
paths = (
{
closed = 1;
nodes = (
"811 -11 LINE SMOOTH",
"834 -11 OFFCURVE",
"842 -4 OFFCURVE",
"842 18 CURVE SMOOTH",
"842 38 OFFCURVE",
"835 45 OFFCURVE",
"813 45 CURVE SMOOTH",
"140 45 LINE",
"816 630 LINE SMOOTH",
"824 637 OFFCURVE",
"826 647 OFFCURVE",
"826 661 CURVE SMOOTH",
"826 671 OFFCURVE",
"818 687 OFFCURVE",
"798 687 CURVE SMOOTH",
"76 687 LINE SMOOTH",
"53 687 OFFCURVE",
"45 679 OFFCURVE",
"45 656 CURVE SMOOTH",
"45 637 OFFCURVE",
"54 630 OFFCURVE",
"79 630 CURVE SMOOTH",
"734 630 LINE",
"50 36 LINE SMOOTH",
"45 31 OFFCURVE",
"45 26 OFFCURVE",
"45 18 CURVE SMOOTH",
"45 -3 OFFCURVE",
"56 -11 OFFCURVE",
"73 -11 CURVE SMOOTH"
);
}
);
width = 887;
},
{
anchors = (
{
name = bottom;
position = "{468, 0}";
},
{
name = top;
position = "{468, 700}";
}
);
layerId = "D56FD762-6887-41EE-B8AF-857F7388911F";
paths = (
{
closed = 1;
nodes = (
"804 -11 LINE SMOOTH",
"849 -11 OFFCURVE",
"901 -11 OFFCURVE",
"901 85 CURVE SMOOTH",
"901 175 OFFCURVE",
"849 178 OFFCURVE",
"806 178 CURVE SMOOTH",
"362 178 LINE",
"872 552 LINE SMOOTH",
"888 564 OFFCURVE",
"888 588 OFFCURVE",
"888 603 CURVE SMOOTH",
"888 659 OFFCURVE",
"844 701 OFFCURVE",
"792 701 CURVE SMOOTH",
"132 701 LINE SMOOTH",
"87 701 OFFCURVE",
"35 701 OFFCURVE",
"35 605 CURVE SMOOTH",
"35 512 OFFCURVE",
"90 512 OFFCURVE",
"135 512 CURVE SMOOTH",
"561 512 LINE",
"51 137 LINE SMOOTH",
"35 125 OFFCURVE",
"35 101 OFFCURVE",
"35 87 CURVE SMOOTH",
"35 31 OFFCURVE",
"79 -11 OFFCURVE",
"131 -11 CURVE SMOOTH"
);
}
);
width = 936;
}
);
leftKerningGroup = Z;
note = Z;
rightKerningGroup = Z;
unicode = 005A;
},
{
glyphname = a;
layers = (
{
anchors = (
{
name = bottom;
position = "{278, 0}";
},
{
name = ogonek;
position = "{500, 10}";
},
{
name = top;
position = "{278, 500}";
}
);
layerId = "05A6575B-AA27-4212-BC78-A0BDA398BBDE";
paths = (
{
closed = 1;
nodes = (
"527 -7 OFFCURVE",
"527 38 OFFCURVE",
"527 83 CURVE SMOOTH",
"527 408 LINE SMOOTH",
"527 452 OFFCURVE",
"527 499 OFFCURVE",
"437 499 CURVE SMOOTH",
"377 499 OFFCURVE",
"349 479 OFFCURVE",
"350 446 CURVE",
"361 446 LINE",
"350 461 OFFCURVE",
"314 498 OFFCURVE",
"246 498 CURVE SMOOTH",
"127 498 OFFCURVE",
"15 377 OFFCURVE",
"15 247 CURVE SMOOTH",
"15 114 OFFCURVE",
"126 -7 OFFCURVE",
"246 -7 CURVE SMOOTH",
"316 -7 OFFCURVE",
"352 28 OFFCURVE",
"363 42 CURVE",
"349 42 LINE",
"348 17 OFFCURVE",
"376 -7 OFFCURVE",
"436 -7 CURVE SMOOTH"
);
},
{
closed = 1;
nodes = (
"231 174 OFFCURVE",
"196 207 OFFCURVE",
"196 245 CURVE SMOOTH",
"196 284 OFFCURVE",
"229 318 OFFCURVE",
"269 318 CURVE SMOOTH",
"309 318 OFFCURVE",
"340 285 OFFCURVE",
"340 246 CURVE SMOOTH",
"340 207 OFFCURVE",
"308 174 OFFCURVE",
"271 174 CURVE SMOOTH"
);
}
);
width = 557;
},
{
anchors = (
{
name = bottom;
position = "{167, 0}";
},
{
name = ogonek;
position = "{355, 10}";
},
{
name = top;
position = "{167, 500}";
}
);
layerId = "4383C18A-60F2-4889-B7DB-EDD0F2222092";
paths = (
{
closed = 1;
nodes = (
"281 -10 OFFCURVE",
"288 -2 OFFCURVE",
"288 21 CURVE SMOOTH",
"288 433 LINE SMOOTH",
"288 459 OFFCURVE",
"281 468 OFFCURVE",
"261 468 CURVE SMOOTH",
"240 468 OFFCURVE",
"233 459 OFFCURVE",
"233 433 CURVE SMOOTH",
"233 422 LINE",
"220 443 OFFCURVE",
"200 466 OFFCURVE",
"148 466 CURVE SMOOTH",
"77 466 OFFCURVE",
"35 379 OFFCURVE",
"35 232 CURVE SMOOTH",
"35 81 OFFCURVE",
"77 -9 OFFCURVE",
"148 -9 CURVE SMOOTH",
"210 -9 OFFCURVE",
"221 18 OFFCURVE",
"233 42 CURVE",
"233 21 LINE SMOOTH",
"233 -2 OFFCURVE",
"240 -10 OFFCURVE",
"261 -10 CURVE SMOOTH"
);
},
{
closed = 1;
nodes = (
"116 43 OFFCURVE",
"90 112 OFFCURVE",
"90 228 CURVE SMOOTH",
"90 346 OFFCURVE",
"116 416 OFFCURVE",
"159 416 CURVE SMOOTH",
"231 416 OFFCURVE",
"230 341 OFFCURVE",
"230 230 CURVE SMOOTH",
"230 113 OFFCURVE",
"235 43 OFFCURVE",
"161 43 CURVE SMOOTH"
);
}
);
width = 343;
},
{
anchors = (
{
name = bottom;
position = "{247, 0}";
},
{
name = ogonek;
position = "{445, 10}";
},
{
name = top;
position = "{247, 500}";
}
);
layerId = "C221B64C-0844-4CE6-BA2A-18F986CD7755";
paths = (
{
closed = 1;
nodes = (
"471 -7 OFFCURVE",
"471 38 OFFCURVE",
"471 83 CURVE SMOOTH",
"471 408 LINE SMOOTH",
"471 452 OFFCURVE",
"471 499 OFFCURVE",
"380 499 CURVE SMOOTH",
"331 499 OFFCURVE",
"305 478 OFFCURVE",
"295 448 CURVE",
"299 448 LINE",
"287 476 OFFCURVE",
"238 498 OFFCURVE",
"189 498 CURVE SMOOTH",
"80 498 OFFCURVE",
"14 377 OFFCURVE",
"14 247 CURVE SMOOTH",
"14 114 OFFCURVE",
"78 -7 OFFCURVE",
"189 -7 CURVE SMOOTH",
"246 -7 OFFCURVE",
"286 26 OFFCURVE",
"299 47 CURVE",
"294 47 LINE",
"294 18 OFFCURVE",
"336 -7 OFFCURVE",
"379 -7 CURVE SMOOTH"
);
},
{
closed = 1;
nodes = (
"211 174 OFFCURVE",
"195 207 OFFCURVE",
"195 245 CURVE SMOOTH",
"195 285 OFFCURVE",
"209 318 OFFCURVE",
"240 318 CURVE SMOOTH",
"271 318 OFFCURVE",
"284 285 OFFCURVE",
"284 246 CURVE SMOOTH",
"284 207 OFFCURVE",
"270 174 OFFCURVE",
"242 174 CURVE SMOOTH"
);
}
);
width = 501;
},
{
anchors = (
{
name = bottom;
position = "{295, 0}";
},
{
name = ogonek;
position = "{494, 10}";
},
{
name = top;
position = "{284, 500}";
}
);
layerId = "988D29BF-96E2-481F-8769-6B283BD5795A";
paths = (
{
closed = 1;
nodes = (
"508 -10 OFFCURVE",
"515 -2 OFFCURVE",
"515 23 CURVE SMOOTH",
"515 429 LINE SMOOTH",
"515 456 OFFCURVE",
"508 466 OFFCURVE",
"489 466 CURVE SMOOTH",
"467 466 OFFCURVE",
"460 456 OFFCURVE",
"460 429 CURVE SMOOTH",
"460 372 LINE",
"417 427 OFFCURVE",
"367 466 OFFCURVE",
"274 466 CURVE SMOOTH",
"146 466 OFFCURVE",
"45 360 OFFCURVE",
"45 230 CURVE SMOOTH",
"45 95 OFFCURVE",
"144 -11 OFFCURVE",
"274 -11 CURVE SMOOTH",
"380 -11 OFFCURVE",
"438 52 OFFCURVE",
"460 90 CURVE",
"460 23 LINE",
"462 -2 OFFCURVE",
"469 -10 OFFCURVE",
"488 -10 CURVE SMOOTH"
);
},
{
closed = 1;
nodes = (
"174 41 OFFCURVE",
"100 120 OFFCURVE",
"100 226 CURVE SMOOTH",
"100 335 OFFCURVE",
"173 416 OFFCURVE",
"283 416 CURVE SMOOTH",
"376 416 OFFCURVE",
"457 341 OFFCURVE",
"457 228 CURVE SMOOTH",
"457 120 OFFCURVE",
"380 41 OFFCURVE",
"285 41 CURVE SMOOTH"
);
}
);
width = 580;
},
{
anchors = (
{
name = bottom;
position = "{372, 0}";
},
{
name = ogonek;
position = "{631, 10}";
},
{
name = top;
position = "{372, 500}";
}
);
layerId = "F1D2FE0C-0290-44F9-97DF-753285E87900";
paths = (
{
closed = 1;
nodes = (
"686 -10 OFFCURVE",
"693 -2 OFFCURVE",
"693 23 CURVE SMOOTH",
"693 429 LINE SMOOTH",
"693 456 OFFCURVE",
"686 466 OFFCURVE",
"667 466 CURVE SMOOTH",
"645 466 OFFCURVE",
"638 456 OFFCURVE",
"638 429 CURVE SMOOTH",
"638 369 LINE",
"594 425 OFFCURVE",
"499 466 OFFCURVE",
"352 466 CURVE SMOOTH",
"152 466 OFFCURVE",
"35 372 OFFCURVE",
"35 230 CURVE SMOOTH",
"35 85 OFFCURVE",
"152 -11 OFFCURVE",
"352 -11 CURVE SMOOTH",
"509 -11 OFFCURVE",
"603 33 OFFCURVE",
"638 94 CURVE",
"638 23 LINE",
"640 -2 OFFCURVE",
"647 -10 OFFCURVE",
"666 -10 CURVE SMOOTH"
);
},
{
closed = 1;
nodes = (
"188 41 OFFCURVE",
"90 115 OFFCURVE",
"90 226 CURVE SMOOTH",
"90 340 OFFCURVE",
"188 416 OFFCURVE",
"359 416 CURVE SMOOTH",
"542 416 OFFCURVE",
"635 341 OFFCURVE",
"635 228 CURVE SMOOTH",
"635 116 OFFCURVE",
"543 41 OFFCURVE",
"361 41 CURVE SMOOTH"
);
}
);
width = 753;
},
{
anchors = (
{
name = bottom;
position = "{378, 0}";
},
{
name = ogonek;
position = "{640, 10}";
},
{
name = top;
position = "{378, 500}";
}
);
layerId = "D56FD762-6887-41EE-B8AF-857F7388911F";
paths = (
{
closed = 1;
nodes = (
"721 -7 OFFCURVE",
"721 38 OFFCURVE",
"721 83 CURVE SMOOTH",
"721 408 LINE SMOOTH",
"721 452 OFFCURVE",
"721 499 OFFCURVE",
"630 499 CURVE SMOOTH",
"567 499 OFFCURVE",
"540 467 OFFCURVE",
"540 431 CURVE",
"558 431 LINE",
"537 470 OFFCURVE",
"465 498 OFFCURVE",
"342 498 CURVE SMOOTH",
"132 498 OFFCURVE",
"25 398 OFFCURVE",
"25 247 CURVE SMOOTH",
"25 95 OFFCURVE",
"132 -7 OFFCURVE",
"342 -7 CURVE SMOOTH",
"468 -7 OFFCURVE",
"539 20 OFFCURVE",
"558 58 CURVE",
"540 58 LINE",
"544 29 OFFCURVE",
"569 -7 OFFCURVE",
"630 -7 CURVE SMOOTH"
);
},
{
closed = 1;
nodes = (
"257 154 OFFCURVE",
"217 190 OFFCURVE",
"217 245 CURVE SMOOTH",
"217 301 OFFCURVE",
"257 338 OFFCURVE",
"366 338 CURVE SMOOTH",
"475 338 OFFCURVE",
"514 301 OFFCURVE",
"514 246 CURVE SMOOTH",
"514 191 OFFCURVE",
"476 154 OFFCURVE",
"368 154 CURVE SMOOTH"
);
}
);
width = 766;
}
);
leftKerningGroup = a;
note = a;
rightKerningGroup = a;
unicode = 0061;
},
{
glyphname = ae;
layers = (
{
anchors = (
{
name = bottom;
position = "{423, 0}";
},
{
name = top;
position = "{423, 500}";
}
);
layerId = "05A6575B-AA27-4212-BC78-A0BDA398BBDE";
paths = (
{
closed = 1;
nodes = (
"163 507 OFFCURVE",
"93 470 OFFCURVE",
"63 442 CURVE SMOOTH",
"15 397 OFFCURVE",
"15 367 OFFCURVE",
"64 310 CURVE SMOOTH",
"101 266 OFFCURVE",
"149 265 OFFCURVE",
"195 313 CURVE SMOOTH",
"213 332 OFFCURVE",
"231 338 OFFCURVE",
"258 338 CURVE SMOOTH",
"307 338 OFFCURVE",
"330 307 OFFCURVE",
"335 243 CURVE",
"306 260 OFFCURVE",
"264 270 OFFCURVE",
"214 270 CURVE SMOOTH",
"90 270 OFFCURVE",
"14 220 OFFCURVE",
"14 139 CURVE SMOOTH",
"14 35 OFFCURVE",
"75 -18 OFFCURVE",
"193 -18 CURVE SMOOTH",
"317 -18 OFFCURVE",
"369 21 OFFCURVE",
"406 58 CURVE",
"454 9 OFFCURVE",
"522 -16 OFFCURVE",
"604 -16 CURVE SMOOTH",
"702 -16 OFFCURVE",
"808 9 OFFCURVE",
"808 74 CURVE SMOOTH",
"808 88 OFFCURVE",
"803 105 OFFCURVE",
"795 121 CURVE SMOOTH",
"780 151 OFFCURVE",
"760 166 OFFCURVE",
"736 166 CURVE SMOOTH",
"702 166 OFFCURVE",
"685 142 OFFCURVE",
"611 142 CURVE SMOOTH",
"571 142 OFFCURVE",
"534 162 OFFCURVE",
"526 185 CURVE",
"732 185 LINE SMOOTH",
"792 185 OFFCURVE",
"832 233 OFFCURVE",
"832 308 CURVE SMOOTH",
"832 388 OFFCURVE",
"761 504 OFFCURVE",
"604 504 CURVE SMOOTH",
"533 504 OFFCURVE",
"469 483 OFFCURVE",
"421 443 CURVE",
"375 485 OFFCURVE",
"317 507 OFFCURVE",
"255 507 CURVE SMOOTH"
);
},
{
closed = 1;
nodes = (
"532 314 OFFCURVE",
"570 344 OFFCURVE",
"602 344 CURVE SMOOTH",
"635 344 OFFCURVE",
"655 330 OFFCURVE",
"655 306 CURVE SMOOTH",
"655 293 OFFCURVE",
"646 286 OFFCURVE",
"631 286 CURVE SMOOTH",
"525 286 LINE"
);
},
{
closed = 1;
nodes = (
"190 111 OFFCURVE",
"175 121 OFFCURVE",
"175 144 CURVE SMOOTH",
"175 159 OFFCURVE",
"196 166 OFFCURVE",
"242 166 CURVE SMOOTH",
"285 166 OFFCURVE",
"319 158 OFFCURVE",
"338 152 CURVE",
"315 128 OFFCURVE",
"272 111 OFFCURVE",
"228 111 CURVE SMOOTH"
);
}
);
width = 846;
},
{
anchors = (
{
name = bottom;
position = "{290, 0}";
},
{
name = top;
position = "{300, 500}";
}
);
layerId = "4383C18A-60F2-4889-B7DB-EDD0F2222092";
paths = (
{
closed = 1;
nodes = (
"146 463 OFFCURVE",
"95 441 OFFCURVE",
"68 412 CURVE SMOOTH",
"48 391 OFFCURVE",
"47 379 OFFCURVE",
"63 367 CURVE SMOOTH",
"82 353 OFFCURVE",
"86 362 OFFCURVE",
"111 383 CURVE SMOOTH",
"130 399 OFFCURVE",
"159 412 OFFCURVE",
"185 412 CURVE SMOOTH",
"229 412 OFFCURVE",
"259 334 OFFCURVE",
"259 217 CURVE",
"223 233 OFFCURVE",
"176 244 OFFCURVE",
"143 244 CURVE SMOOTH",
"78 244 OFFCURVE",
"35 190 OFFCURVE",
"35 110 CURVE SMOOTH",
"35 42 OFFCURVE",
"71 -7 OFFCURVE",
"125 -13 CURVE SMOOTH",
"188 -20 OFFCURVE",
"262 25 OFFCURVE",
"287 102 CURVE",
"304 34 OFFCURVE",
"373 -12 OFFCURVE",
"430 -12 CURVE SMOOTH",
"501 -12 OFFCURVE",
"549 10 OFFCURVE",
"549 42 CURVE SMOOTH",
"549 51 OFFCURVE",
"549 53 OFFCURVE",
"544 62 CURVE",
"541 68 OFFCURVE",
"536 74 OFFCURVE",
"526 74 CURVE SMOOTH",
"497 74 OFFCURVE",
"482 39 OFFCURVE",
"429 39 CURVE SMOOTH",
"360 39 OFFCURVE",
"317 107 OFFCURVE",
"321 209 CURVE",
"498 209 LINE SMOOTH",
"538 209 OFFCURVE",
"564 243 OFFCURVE",
"564 293 CURVE SMOOTH",
"564 396 OFFCURVE",
"505 464 OFFCURVE",
"416 464 CURVE SMOOTH",
"369 464 OFFCURVE",
"308 429 OFFCURVE",
"287 358 CURVE",
"271 421 OFFCURVE",
"229 463 OFFCURVE",
"181 463 CURVE SMOOTH"
);
},
{
closed = 1;
nodes = (
"318 352 OFFCURVE",
"356 416 OFFCURVE",
"417 416 CURVE SMOOTH",
"473 416 OFFCURVE",
"511 366 OFFCURVE",
"511 292 CURVE SMOOTH",
"511 271 OFFCURVE",
"498 257 OFFCURVE",
"478 257 CURVE",
"321 257 LINE"
);
},
{
closed = 1;
nodes = (
"111 36 OFFCURVE",
"90 69 OFFCURVE",
"90 116 CURVE SMOOTH",
"90 165 OFFCURVE",
"119 197 OFFCURVE",
"163 197 CURVE SMOOTH",
"188 197 OFFCURVE",
"226 184 OFFCURVE",
"259 165 CURVE",
"248 84 OFFCURVE",
"201 32 OFFCURVE",
"143 35 CURVE SMOOTH"
);
}
);
width = 599;
},
{
anchors = (
{
name = bottom;
position = "{454, 0}";
},
{
name = top;
position = "{454, 500}";
}
);
layerId = "988D29BF-96E2-481F-8769-6B283BD5795A";
paths = (
{
closed = 1;
nodes = (
"188 463 OFFCURVE",
"137 447 OFFCURVE",
"82 401 CURVE SMOOTH",
"59 382 OFFCURVE",
"55 370 OFFCURVE",
"68 355 CURVE SMOOTH",
"83 337 OFFCURVE",
"96 339 OFFCURVE",
"117 362 CURVE SMOOTH",
"146 393 OFFCURVE",
"213 412 OFFCURVE",
"264 412 CURVE SMOOTH",
"375 412 OFFCURVE",
"409 333 OFFCURVE",
"409 207 CURVE",
"364 227 OFFCURVE",
"287 245 OFFCURVE",
"216 245 CURVE SMOOTH",
"103 245 OFFCURVE",
"35 189 OFFCURVE",
"35 110 CURVE SMOOTH",
"35 36 OFFCURVE",
"104 -13 OFFCURVE",
"203 -13 CURVE SMOOTH",
"345 -13 OFFCURVE",
"407 42 OFFCURVE",
"440 108 CURVE",
"480 33 OFFCURVE",
"557 -13 OFFCURVE",
"657 -13 CURVE SMOOTH",
"757 -13 OFFCURVE",
"837 33 OFFCURVE",
"837 52 CURVE SMOOTH",
"837 61 OFFCURVE",
"834 68 OFFCURVE",
"828 77 CURVE",
"824 84 OFFCURVE",
"814 84 OFFCURVE",
"807 81 CURVE SMOOTH",
"780 70 OFFCURVE",
"753 39 OFFCURVE",
"656 39 CURVE SMOOTH",
"568 39 OFFCURVE",
"466 103 OFFCURVE",
"470 209 CURVE",
"785 209 LINE SMOOTH",
"828 209 OFFCURVE",
"862 228 OFFCURVE",
"862 293 CURVE SMOOTH",
"862 382 OFFCURVE",
"775 464 OFFCURVE",
"653 464 CURVE SMOOTH",
"558 464 OFFCURVE",
"481 419 OFFCURVE",
"440 350 CURVE",
"404 430 OFFCURVE",
"332 463 OFFCURVE",
"260 463 CURVE SMOOTH"
);
},
{
closed = 1;
nodes = (
"467 347 OFFCURVE",
"554 413 OFFCURVE",
"654 413 CURVE SMOOTH",
"743 413 OFFCURVE",
"810 356 OFFCURVE",
"810 291 CURVE SMOOTH",
"810 257 OFFCURVE",
"794 257 OFFCURVE",
"768 257 CURVE SMOOTH",
"470 257 LINE"
);
},
{
closed = 1;
nodes = (
"129 35 OFFCURVE",
"90 66 OFFCURVE",
"90 116 CURVE SMOOTH",
"90 161 OFFCURVE",
"126 198 OFFCURVE",
"236 198 CURVE SMOOTH",
"298 198 OFFCURVE",
"374 177 OFFCURVE",
"411 156 CURVE",
"398 82 OFFCURVE",
"308 35 OFFCURVE",
"223 35 CURVE SMOOTH"
);
}
);
width = 897;
},
{
anchors = (
{
name = bottom;
position = "{386, 0}";
},
{
name = top;
position = "{386, 500}";
}
);
layerId = "C221B64C-0844-4CE6-BA2A-18F986CD7755";
paths = (
{
closed = 1;
nodes = (
"167 507 OFFCURVE",
"112 492 OFFCURVE",
"72 465 CURVE SMOOTH",
"22 431 OFFCURVE",
"19 405 OFFCURVE",
"61 341 CURVE SMOOTH",
"93 292 OFFCURVE",
"119 284 OFFCURVE",
"159 316 CURVE SMOOTH",
"190 341 OFFCURVE",
"205 339 OFFCURVE",
"232 339 CURVE SMOOTH",
"271 339 OFFCURVE",
"288 299 OFFCURVE",
"293 245 CURVE",
"264 262 OFFCURVE",
"215 269 OFFCURVE",
"185 269 CURVE SMOOTH",
"91 269 OFFCURVE",
"25 212 OFFCURVE",
"25 131 CURVE SMOOTH",
"25 27 OFFCURVE",
"88 -18 OFFCURVE",
"186 -18 CURVE SMOOTH",
"265 -18 OFFCURVE",
"331 17 OFFCURVE",
"368 60 CURVE",
"404 13 OFFCURVE",
"461 -21 OFFCURVE",
"551 -21 CURVE SMOOTH",
"645 -21 OFFCURVE",
"740 17 OFFCURVE",
"740 71 CURVE SMOOTH",
"740 85 OFFCURVE",
"737 99 OFFCURVE",
"727 117 CURVE SMOOTH",
"710 148 OFFCURVE",
"692 165 OFFCURVE",
"668 165 CURVE SMOOTH",
"640 165 OFFCURVE",
"615 140 OFFCURVE",
"559 140 CURVE SMOOTH",
"519 140 OFFCURVE",
"500 159 OFFCURVE",
"501 182 CURVE",
"645 182 LINE SMOOTH",
"705 182 OFFCURVE",
"746 233 OFFCURVE",
"746 308 CURVE SMOOTH",
"746 389 OFFCURVE",
"698 510 OFFCURVE",
"552 510 CURVE SMOOTH",
"467 510 OFFCURVE",
"402 475 OFFCURVE",
"362 416 CURVE",
"335 462 OFFCURVE",
"273 507 OFFCURVE",
"219 507 CURVE SMOOTH"
);
},
{
closed = 1;
nodes = (
"498 314 OFFCURVE",
"517 344 OFFCURVE",
"550 344 CURVE SMOOTH",
"575 344 OFFCURVE",
"585 330 OFFCURVE",
"585 306 CURVE SMOOTH",
"585 292 OFFCURVE",
"577 286 OFFCURVE",
"559 286 CURVE",
"498 286 LINE"
);
},
{
closed = 1;
nodes = (
"171 107 OFFCURVE",
"157 117 OFFCURVE",
"157 142 CURVE SMOOTH",
"157 160 OFFCURVE",
"174 168 OFFCURVE",
"200 168 CURVE SMOOTH",
"234 168 OFFCURVE",
"270 160 OFFCURVE",
"289 150 CURVE",
"266 126 OFFCURVE",
"220 107 OFFCURVE",
"186 107 CURVE SMOOTH"
);
}
);
width = 771;
},
{
anchors = (
{
name = bottom;
position = "{667, 0}";
},
{
name = top;
position = "{667, 500}";
}
);
layerId = "F1D2FE0C-0290-44F9-97DF-753285E87900";
paths = (
{
closed = 1;
nodes = (
"254 460 OFFCURVE",
"173 444 OFFCURVE",
"97 391 CURVE SMOOTH",
"74 375 OFFCURVE",
"70 360 OFFCURVE",
"83 345 CURVE SMOOTH",
"98 327 OFFCURVE",
"109 333 OFFCURVE",
"132 352 CURVE SMOOTH",
"190 400 OFFCURVE",
"279 409 OFFCURVE",
"390 409 CURVE SMOOTH",
"548 409 OFFCURVE",
"628 349 OFFCURVE",
"638 217 CURVE",
"583 237 OFFCURVE",
"482 255 OFFCURVE",
"332 255 CURVE SMOOTH",
"136 255 OFFCURVE",
"52 189 OFFCURVE",
"52 110 CURVE SMOOTH",
"52 36 OFFCURVE",
"146 -13 OFFCURVE",
"319 -13 CURVE SMOOTH",
"538 -13 OFFCURVE",
"630 47 OFFCURVE",
"664 114 CURVE",
"709 36 OFFCURVE",
"827 -12 OFFCURVE",
"981 -12 CURVE SMOOTH",
"1135 -12 OFFCURVE",
"1231 17 OFFCURVE",
"1260 38 CURVE SMOOTH",
"1271 46 OFFCURVE",
"1275 53 OFFCURVE",
"1264 73 CURVE SMOOTH",
"1258 84 OFFCURVE",
"1248 84 OFFCURVE",
"1238 82 CURVE SMOOTH",
"1209 76 OFFCURVE",
"1157 41 OFFCURVE",
"980 41 CURVE SMOOTH",
"827 41 OFFCURVE",
"690 110 OFFCURVE",
"694 211 CURVE",
"1209 211 LINE SMOOTH",
"1252 211 OFFCURVE",
"1286 229 OFFCURVE",
"1286 293 CURVE SMOOTH",
"1286 382 OFFCURVE",
"1178 465 OFFCURVE",
"976 465 CURVE SMOOTH",
"820 465 OFFCURVE",
"702 403 OFFCURVE",
"659 326 CURVE",
"630 391 OFFCURVE",
"547 460 OFFCURVE",
"386 460 CURVE SMOOTH"
);
},
{
closed = 1;
nodes = (
"698 348 OFFCURVE",
"813 413 OFFCURVE",
"978 413 CURVE SMOOTH",
"1147 413 OFFCURVE",
"1234 356 OFFCURVE",
"1234 291 CURVE SMOOTH",
"1234 254 OFFCURVE",
"1218 260 OFFCURVE",
"1192 260 CURVE SMOOTH",
"694 260 LINE"
);
},
{
closed = 1;
nodes = (
"171 35 OFFCURVE",
"107 66 OFFCURVE",
"107 116 CURVE SMOOTH",
"107 161 OFFCURVE",
"168 208 OFFCURVE",
"352 208 CURVE SMOOTH",
"493 208 OFFCURVE",
"590 187 OFFCURVE",
"637 166 CURVE",
"624 92 OFFCURVE",
"504 35 OFFCURVE",
"339 35 CURVE SMOOTH"
);
}
);
width = 1324;
},
{
anchors = (
{
name = bottom;
position = "{594, 0}";
},
{
name = top;
position = "{594, 500}";
}
);
layerId = "D56FD762-6887-41EE-B8AF-857F7388911F";
paths = (
{
closed = 1;
nodes = (
"172 507 OFFCURVE",
"104 470 OFFCURVE",
"74 442 CURVE SMOOTH",
"25 397 OFFCURVE",
"26 368 OFFCURVE",
"75 309 CURVE SMOOTH",
"95 285 OFFCURVE",
"116 272 OFFCURVE",
"138 272 CURVE SMOOTH",
"181 272 OFFCURVE",
"190 338 OFFCURVE",
"359 338 CURVE SMOOTH",
"418 338 OFFCURVE",
"509 308 OFFCURVE",
"507 246 CURVE",
"469 262 OFFCURVE",
"271 270 OFFCURVE",
"225 270 CURVE SMOOTH",
"101 270 OFFCURVE",
"25 220 OFFCURVE",
"25 139 CURVE SMOOTH",
"25 35 OFFCURVE",
"121 -18 OFFCURVE",
"279 -18 CURVE SMOOTH",
"443 -18 OFFCURVE",
"536 21 OFFCURVE",
"577 58 CURVE",
"625 9 OFFCURVE",
"733 -16 OFFCURVE",
"855 -16 CURVE SMOOTH",
"993 -16 OFFCURVE",
"1076 -10 OFFCURVE",
"1118 22 CURVE SMOOTH",
"1147 44 OFFCURVE",
"1156 81 OFFCURVE",
"1136 121 CURVE SMOOTH",
"1121 151 OFFCURVE",
"1101 166 OFFCURVE",
"1077 166 CURVE SMOOTH",
"1049 166 OFFCURVE",
"1024 142 OFFCURVE",
"862 142 CURVE SMOOTH",
"782 142 OFFCURVE",
"705 162 OFFCURVE",
"697 185 CURVE",
"1073 185 LINE SMOOTH",
"1133 185 OFFCURVE",
"1173 233 OFFCURVE",
"1173 308 CURVE SMOOTH",
"1173 388 OFFCURVE",
"1102 504 OFFCURVE",
"855 504 CURVE SMOOTH",
"744 504 OFFCURVE",
"630 467 OFFCURVE",
"592 417 CURVE",
"556 469 OFFCURVE",
"436 507 OFFCURVE",
"354 507 CURVE SMOOTH"
);
},
{
closed = 1;
nodes = (
"703 314 OFFCURVE",
"746 344 OFFCURVE",
"863 344 CURVE SMOOTH",
"976 344 OFFCURVE",
"996 330 OFFCURVE",
"996 306 CURVE SMOOTH",
"996 293 OFFCURVE",
"987 286 OFFCURVE",
"952 286 CURVE SMOOTH",
"696 286 LINE"
);
},
{
closed = 1;
nodes = (
"220 111 OFFCURVE",
"186 121 OFFCURVE",
"186 144 CURVE SMOOTH",
"186 159 OFFCURVE",
"207 166 OFFCURVE",
"343 166 CURVE SMOOTH",
"406 166 OFFCURVE",
"490 158 OFFCURVE",
"509 152 CURVE",
"486 128 OFFCURVE",
"373 111 OFFCURVE",
"329 111 CURVE SMOOTH"
);
}
);
width = 1198;
}
);
leftKerningGroup = a;
note = ae;
rightKerningGroup = e;
unicode = 00E6;
},
{
glyphname = b;
layers = (
{
anchors = (
{
name = bottom;
position = "{278, 0}";
},
{
name = top;
position = "{278, 500}";
}
);
layerId = "05A6575B-AA27-4212-BC78-A0BDA398BBDE";
paths = (
{
closed = 1;
nodes = (
"428 -7 OFFCURVE",
"539 113 OFFCURVE",
"539 247 CURVE SMOOTH",
"539 376 OFFCURVE",
"426 498 OFFCURVE",
"308 498 CURVE SMOOTH",
"181 498 OFFCURVE",
"122 378 OFFCURVE",
"120 249 CURVE SMOOTH",
"118 119 OFFCURVE",
"176 -7 OFFCURVE",
"308 -7 CURVE SMOOTH"
);
},
{
closed = 1;
nodes = (
"246 173 OFFCURVE",
"213 206 OFFCURVE",
"213 245 CURVE SMOOTH",
"213 284 OFFCURVE",
"244 317 OFFCURVE",
"285 317 CURVE SMOOTH",
"325 317 OFFCURVE",
"357 285 OFFCURVE",
"357 245 CURVE SMOOTH",
"357 207 OFFCURVE",
"323 173 OFFCURVE",
"284 173 CURVE SMOOTH"
);
},
{
closed = 1;
nodes = (
"174 -8 OFFCURVE",
"198 7 OFFCURVE",
"207 42 CURVE",
"207 637 LINE",
"208 681 OFFCURVE",
"211 728 OFFCURVE",
"121 728 CURVE SMOOTH",
"30 728 OFFCURVE",
"30 683 OFFCURVE",
"30 638 CURVE SMOOTH",
"30 83 LINE SMOOTH",
"30 39 OFFCURVE",
"30 -8 OFFCURVE",
"120 -8 CURVE SMOOTH"
);
}
);
width = 554;
},
{
anchors = (
{
name = bottom;
position = "{183, 0}";
},
{
name = top;
position = "{183, 500}";
}
);
layerId = "4383C18A-60F2-4889-B7DB-EDD0F2222092";
paths = (
{
closed = 1;
nodes = (
"277 -11 OFFCURVE",
"318 72 OFFCURVE",
"318 230 CURVE SMOOTH",
"318 386 OFFCURVE",
"277 467 OFFCURVE",
"197 467 CURVE SMOOTH",
"137 467 OFFCURVE",
"83 371 OFFCURVE",
"83 227 CURVE",
"83 70 OFFCURVE",
"135 -11 OFFCURVE",
"197 -11 CURVE SMOOTH"
);
},
{
closed = 1;
nodes = (
"138 42 OFFCURVE",
"126 116 OFFCURVE",
"126 227 CURVE SMOOTH",
"126 339 OFFCURVE",
"138 414 OFFCURVE",
"188 414 CURVE SMOOTH",
"237 414 OFFCURVE",
"262 350 OFFCURVE",
"262 227 CURVE SMOOTH",
"262 105 OFFCURVE",
"237 42 OFFCURVE",
"188 42 CURVE SMOOTH"
);
},
{
closed = 1;
nodes = (
"115 -11 OFFCURVE",
"122 -3 OFFCURVE",
"122 19 CURVE SMOOTH",
"122 656 LINE SMOOTH",
"122 679 OFFCURVE",
"115 687 OFFCURVE",
"94 687 CURVE SMOOTH",
"72 687 OFFCURVE",
"65 679 OFFCURVE",
"65 657 CURVE SMOOTH",
"65 20 LINE SMOOTH",
"65 -3 OFFCURVE",
"72 -11 OFFCURVE",
"93 -11 CURVE SMOOTH"
);
}
);
width = 353;
},
{
anchors = (
{
name = bottom;
position = "{300, 0}";
},
{
name = top;
position = "{300, 500}";
}
);
layerId = "988D29BF-96E2-481F-8769-6B283BD5795A";
paths = (
{
closed = 1;
nodes = (
"434 -11 OFFCURVE",
"531 85 OFFCURVE",
"531 230 CURVE SMOOTH",
"531 372 OFFCURVE",
"434 467 OFFCURVE",
"310 467 CURVE SMOOTH",
"179 467 OFFCURVE",
"86 371 OFFCURVE",
"86 227 CURVE",
"86 84 OFFCURVE",
"179 -11 OFFCURVE",
"310 -11 CURVE SMOOTH"
);
},
{
closed = 1;
nodes = (
"202 42 OFFCURVE",
"127 117 OFFCURVE",
"127 227 CURVE SMOOTH",
"127 338 OFFCURVE",
"203 414 OFFCURVE",
"301 414 CURVE SMOOTH",
"400 414 OFFCURVE",
"476 338 OFFCURVE",
"476 227 CURVE SMOOTH",
"476 117 OFFCURVE",
"400 42 OFFCURVE",
"301 42 CURVE SMOOTH"
);
},
{
closed = 1;
nodes = (
"117 -12 OFFCURVE",
"124 -4 OFFCURVE",
"124 19 CURVE SMOOTH",
"124 656 LINE SMOOTH",
"124 678 OFFCURVE",
"116 686 OFFCURVE",
"95 686 CURVE SMOOTH",
"74 686 OFFCURVE",
"67 678 OFFCURVE",
"67 655 CURVE SMOOTH",
"67 18 LINE SMOOTH",
"67 -4 OFFCURVE",
"75 -12 OFFCURVE",
"96 -12 CURVE SMOOTH"
);
}
);
width = 591;
},
{
anchors = (
{
name = bottom;
position = "{257, 0}";
},
{
name = top;
position = "{257, 500}";
}
);
layerId = "C221B64C-0844-4CE6-BA2A-18F986CD7755";
paths = (
{
closed = 1;
nodes = (
"422 -7 OFFCURVE",
"489 95 OFFCURVE",
"489 247 CURVE SMOOTH",
"489 398 OFFCURVE",
"422 498 OFFCURVE",
"302 498 CURVE SMOOTH",
"184 498 OFFCURVE",
"175 398 OFFCURVE",
"175 245 CURVE SMOOTH",
"175 100 OFFCURVE",
"179 -7 OFFCURVE",
"302 -7 CURVE SMOOTH"
);
},
{
closed = 1;
nodes = (
"237 173 OFFCURVE",
"219 202 OFFCURVE",
"219 245 CURVE SMOOTH",
"219 288 OFFCURVE",
"238 317 OFFCURVE",
"266 317 CURVE SMOOTH",
"291 317 OFFCURVE",
"308 288 OFFCURVE",
"308 245 CURVE SMOOTH",
"308 202 OFFCURVE",
"291 173 OFFCURVE",
"265 173 CURVE SMOOTH"
);
},
{
closed = 1;
nodes = (
"180 -8 OFFCURVE",
"205 7 OFFCURVE",
"214 43 CURVE",
"214 638 LINE SMOOTH",
"214 683 OFFCURVE",
"216 728 OFFCURVE",
"125 728 CURVE SMOOTH",
"35 728 OFFCURVE",
"35 682 OFFCURVE",
"35 637 CURVE SMOOTH",
"35 82 LINE SMOOTH",
"35 37 OFFCURVE",
"35 -8 OFFCURVE",
"127 -8 CURVE SMOOTH"
);
}
);
width = 504;
},
{
anchors = (
{
name = bottom;
position = "{388, 0}";
},
{
name = top;
position = "{388, 500}";
}
);
layerId = "F1D2FE0C-0290-44F9-97DF-753285E87900";
paths = (
{
closed = 1;
nodes = (
"618 -11 OFFCURVE",
"726 85 OFFCURVE",
"726 230 CURVE SMOOTH",
"726 372 OFFCURVE",
"618 467 OFFCURVE",
"405 467 CURVE SMOOTH",
"191 467 OFFCURVE",
"81 371 OFFCURVE",
"81 227 CURVE",
"81 84 OFFCURVE",
"191 -11 OFFCURVE",
"405 -11 CURVE SMOOTH"
);
},
{
closed = 1;
nodes = (
"212 42 OFFCURVE",
"122 116 OFFCURVE",
"122 227 CURVE SMOOTH",
"122 339 OFFCURVE",
"212 414 OFFCURVE",
"396 414 CURVE SMOOTH",
"581 414 OFFCURVE",
"671 339 OFFCURVE",
"671 227 CURVE SMOOTH",
"671 116 OFFCURVE",
"581 42 OFFCURVE",
"396 42 CURVE SMOOTH"
);
},
{
closed = 1;
nodes = (
"111 -11 OFFCURVE",
"119 -3 OFFCURVE",
"119 19 CURVE SMOOTH",
"119 656 LINE SMOOTH",
"119 679 OFFCURVE",
"112 687 OFFCURVE",
"90 687 CURVE SMOOTH",
"68 687 OFFCURVE",
"60 679 OFFCURVE",
"60 657 CURVE SMOOTH",
"60 20 LINE SMOOTH",
"60 -3 OFFCURVE",
"67 -11 OFFCURVE",
"89 -11 CURVE SMOOTH"
);
}
);
width = 776;
},
{
anchors = (
{
name = bottom;
position = "{400, 0}";
},
{
name = top;
position = "{400, 500}";
}
);
layerId = "D56FD762-6887-41EE-B8AF-857F7388911F";
paths = (
{
closed = 1;
nodes = (
"626 -7 OFFCURVE",
"734 95 OFFCURVE",
"734 247 CURVE SMOOTH",
"734 398 OFFCURVE",
"626 498 OFFCURVE",
"413 498 CURVE SMOOTH",
"199 498 OFFCURVE",
"169 378 OFFCURVE",
"169 254 CURVE SMOOTH",
"169 106 OFFCURVE",
"199 -7 OFFCURVE",
"413 -7 CURVE SMOOTH"
);
},
{
closed = 1;
nodes = (
"278 153 OFFCURVE",
"238 190 OFFCURVE",
"238 245 CURVE SMOOTH",
"238 300 OFFCURVE",
"279 337 OFFCURVE",
"390 337 CURVE SMOOTH",
"501 337 OFFCURVE",
"542 300 OFFCURVE",
"542 245 CURVE SMOOTH",
"542 190 OFFCURVE",
"501 153 OFFCURVE",
"389 153 CURVE SMOOTH"
);
},
{
closed = 1;
nodes = (
"191 -8 OFFCURVE",
"218 16 OFFCURVE",
"223 52 CURVE",
"226 637 LINE",
"226 681 OFFCURVE",
"226 728 OFFCURVE",
"136 728 CURVE SMOOTH",
"45 728 OFFCURVE",
"45 683 OFFCURVE",
"45 638 CURVE SMOOTH",
"45 83 LINE SMOOTH",
"45 39 OFFCURVE",
"45 -8 OFFCURVE",
"135 -8 CURVE SMOOTH"
);
}
);
width = 759;
}
);
note = b;
rightKerningGroup = d;
unicode = 0062;
},
